M48
; DRILL file {KiCad (5.1.4)-1} date 1/13/2021 3:58:26 PM
; FORMAT={-:-/ absolute / metric / decimal}
; #@! TF.CreationDate,2021-01-13T15:58:26-08:00
; #@! TF.GenerationSoftware,Kicad,Pcbnew,(5.1.4)-1
; #@! TF.FileFunction,Plated,1,2,PTH
FMAT,2
METRIC
T1C0.400
T2C0.450
T3C1.000
%
G90
G05
T1
X57.972Y-77.04
X57.972Y-82.2
X59.722Y-81.55
X61.972Y-81.6
X63.172Y-75.65
X65.265Y-81.252
X67.022Y-87.05
X67.235Y-65.413
X67.272Y-64.35
X67.322Y-85.15
X69.272Y-82.5
X69.372Y-72.5
X69.372Y-79.0
X70.622Y-69.95
X71.372Y-63.55
X71.722Y-86.45
X72.172Y-69.65
X73.072Y-68.6
X73.772Y-86.5
X73.822Y-62.7
X74.547Y-67.15
X74.822Y-62.7
X75.722Y-58.45
X76.147Y-68.85
X76.322Y-63.55
X76.472Y-82.5
X76.972Y-65.95
X77.572Y-62.65
X78.172Y-87.0
X78.547Y-65.225
X78.722Y-79.7
X79.922Y-87.0
X80.046Y-73.976
X81.472Y-82.5
X82.022Y-68.35
X82.922Y-86.7
X83.622Y-64.45
X85.022Y-86.85
X85.122Y-79.5
X86.922Y-88.35
X87.022Y-86.65
X87.395Y-63.373
X87.395Y-72.677
X89.372Y-81.5
X89.472Y-86.775
X90.16Y-82.513
X90.772Y-79.75
X90.935Y-67.0
X90.972Y-72.7
X91.022Y-60.25
X91.022Y-77.85
X91.072Y-58.05
X91.172Y-63.4
X91.172Y-69.15
X91.222Y-65.3
X91.322Y-74.25
X94.972Y-87.25
T3
X53.622Y-70.15
X53.622Y-72.69
X53.622Y-75.23
X53.622Y-77.77
X99.572Y-81.38
X99.572Y-83.92
X99.572Y-86.46
X99.572Y-89.0
X99.572Y-58.98
X99.572Y-61.52
X99.572Y-64.06
X99.572Y-66.6
X53.622Y-58.95
X53.622Y-61.49
X53.622Y-64.03
X53.622Y-66.57
X99.572Y-70.18
X99.572Y-72.72
X99.572Y-75.26
X99.572Y-77.8
X64.541Y-94.056
X67.081Y-94.056
X69.621Y-94.056
X72.161Y-94.056
X75.743Y-94.056
X78.283Y-94.056
X80.823Y-94.056
X83.363Y-94.056
X86.944Y-94.056
X89.484Y-94.056
X92.024Y-94.056
X94.564Y-94.056
T2
G00X52.781Y-82.099
M15
G01X53.581Y-82.099
M16
G05
G00X53.581Y-89.249
M15
G01X52.781Y-89.249
M16
G05
T0
M30
