G04 #@! TF.GenerationSoftware,KiCad,Pcbnew,(5.1.4)-1*
G04 #@! TF.CreationDate,2021-01-13T15:58:14-08:00*
G04 #@! TF.ProjectId,Fan Controller,46616e20-436f-46e7-9472-6f6c6c65722e,rev?*
G04 #@! TF.SameCoordinates,Original*
G04 #@! TF.FileFunction,Paste,Top*
G04 #@! TF.FilePolarity,Positive*
%FSLAX46Y46*%
G04 Gerber Fmt 4.6, Leading zero omitted, Abs format (unit mm)*
G04 Created by KiCad (PCBNEW (5.1.4)-1) date 2021-01-13 15:58:14*
%MOMM*%
%LPD*%
G04 APERTURE LIST*
%ADD10C,0.100000*%
%ADD11C,0.975000*%
%ADD12C,1.000000*%
%ADD13R,0.550000X1.500000*%
%ADD14R,1.500000X0.550000*%
%ADD15R,0.558800X1.270000*%
%ADD16R,1.270000X0.558800*%
%ADD17R,1.000000X1.700000*%
%ADD18R,1.450000X1.150000*%
%ADD19R,1.900000X1.750000*%
%ADD20R,1.400000X0.400000*%
%ADD21R,0.762000X2.006600*%
G04 APERTURE END LIST*
D10*
G36*
X94827142Y-59351374D02*
G01*
X94850803Y-59354884D01*
X94874007Y-59360696D01*
X94896529Y-59368754D01*
X94918153Y-59378982D01*
X94938670Y-59391279D01*
X94957883Y-59405529D01*
X94975607Y-59421593D01*
X94991671Y-59439317D01*
X95005921Y-59458530D01*
X95018218Y-59479047D01*
X95028446Y-59500671D01*
X95036504Y-59523193D01*
X95042316Y-59546397D01*
X95045826Y-59570058D01*
X95047000Y-59593950D01*
X95047000Y-60506450D01*
X95045826Y-60530342D01*
X95042316Y-60554003D01*
X95036504Y-60577207D01*
X95028446Y-60599729D01*
X95018218Y-60621353D01*
X95005921Y-60641870D01*
X94991671Y-60661083D01*
X94975607Y-60678807D01*
X94957883Y-60694871D01*
X94938670Y-60709121D01*
X94918153Y-60721418D01*
X94896529Y-60731646D01*
X94874007Y-60739704D01*
X94850803Y-60745516D01*
X94827142Y-60749026D01*
X94803250Y-60750200D01*
X94315750Y-60750200D01*
X94291858Y-60749026D01*
X94268197Y-60745516D01*
X94244993Y-60739704D01*
X94222471Y-60731646D01*
X94200847Y-60721418D01*
X94180330Y-60709121D01*
X94161117Y-60694871D01*
X94143393Y-60678807D01*
X94127329Y-60661083D01*
X94113079Y-60641870D01*
X94100782Y-60621353D01*
X94090554Y-60599729D01*
X94082496Y-60577207D01*
X94076684Y-60554003D01*
X94073174Y-60530342D01*
X94072000Y-60506450D01*
X94072000Y-59593950D01*
X94073174Y-59570058D01*
X94076684Y-59546397D01*
X94082496Y-59523193D01*
X94090554Y-59500671D01*
X94100782Y-59479047D01*
X94113079Y-59458530D01*
X94127329Y-59439317D01*
X94143393Y-59421593D01*
X94161117Y-59405529D01*
X94180330Y-59391279D01*
X94200847Y-59378982D01*
X94222471Y-59368754D01*
X94244993Y-59360696D01*
X94268197Y-59354884D01*
X94291858Y-59351374D01*
X94315750Y-59350200D01*
X94803250Y-59350200D01*
X94827142Y-59351374D01*
X94827142Y-59351374D01*
G37*
D11*
X94559500Y-60050200D03*
D10*
G36*
X92952142Y-59351374D02*
G01*
X92975803Y-59354884D01*
X92999007Y-59360696D01*
X93021529Y-59368754D01*
X93043153Y-59378982D01*
X93063670Y-59391279D01*
X93082883Y-59405529D01*
X93100607Y-59421593D01*
X93116671Y-59439317D01*
X93130921Y-59458530D01*
X93143218Y-59479047D01*
X93153446Y-59500671D01*
X93161504Y-59523193D01*
X93167316Y-59546397D01*
X93170826Y-59570058D01*
X93172000Y-59593950D01*
X93172000Y-60506450D01*
X93170826Y-60530342D01*
X93167316Y-60554003D01*
X93161504Y-60577207D01*
X93153446Y-60599729D01*
X93143218Y-60621353D01*
X93130921Y-60641870D01*
X93116671Y-60661083D01*
X93100607Y-60678807D01*
X93082883Y-60694871D01*
X93063670Y-60709121D01*
X93043153Y-60721418D01*
X93021529Y-60731646D01*
X92999007Y-60739704D01*
X92975803Y-60745516D01*
X92952142Y-60749026D01*
X92928250Y-60750200D01*
X92440750Y-60750200D01*
X92416858Y-60749026D01*
X92393197Y-60745516D01*
X92369993Y-60739704D01*
X92347471Y-60731646D01*
X92325847Y-60721418D01*
X92305330Y-60709121D01*
X92286117Y-60694871D01*
X92268393Y-60678807D01*
X92252329Y-60661083D01*
X92238079Y-60641870D01*
X92225782Y-60621353D01*
X92215554Y-60599729D01*
X92207496Y-60577207D01*
X92201684Y-60554003D01*
X92198174Y-60530342D01*
X92197000Y-60506450D01*
X92197000Y-59593950D01*
X92198174Y-59570058D01*
X92201684Y-59546397D01*
X92207496Y-59523193D01*
X92215554Y-59500671D01*
X92225782Y-59479047D01*
X92238079Y-59458530D01*
X92252329Y-59439317D01*
X92268393Y-59421593D01*
X92286117Y-59405529D01*
X92305330Y-59391279D01*
X92325847Y-59378982D01*
X92347471Y-59368754D01*
X92369993Y-59360696D01*
X92393197Y-59354884D01*
X92416858Y-59351374D01*
X92440750Y-59350200D01*
X92928250Y-59350200D01*
X92952142Y-59351374D01*
X92952142Y-59351374D01*
G37*
D11*
X92684500Y-60050200D03*
D10*
G36*
X94827142Y-57351374D02*
G01*
X94850803Y-57354884D01*
X94874007Y-57360696D01*
X94896529Y-57368754D01*
X94918153Y-57378982D01*
X94938670Y-57391279D01*
X94957883Y-57405529D01*
X94975607Y-57421593D01*
X94991671Y-57439317D01*
X95005921Y-57458530D01*
X95018218Y-57479047D01*
X95028446Y-57500671D01*
X95036504Y-57523193D01*
X95042316Y-57546397D01*
X95045826Y-57570058D01*
X95047000Y-57593950D01*
X95047000Y-58506450D01*
X95045826Y-58530342D01*
X95042316Y-58554003D01*
X95036504Y-58577207D01*
X95028446Y-58599729D01*
X95018218Y-58621353D01*
X95005921Y-58641870D01*
X94991671Y-58661083D01*
X94975607Y-58678807D01*
X94957883Y-58694871D01*
X94938670Y-58709121D01*
X94918153Y-58721418D01*
X94896529Y-58731646D01*
X94874007Y-58739704D01*
X94850803Y-58745516D01*
X94827142Y-58749026D01*
X94803250Y-58750200D01*
X94315750Y-58750200D01*
X94291858Y-58749026D01*
X94268197Y-58745516D01*
X94244993Y-58739704D01*
X94222471Y-58731646D01*
X94200847Y-58721418D01*
X94180330Y-58709121D01*
X94161117Y-58694871D01*
X94143393Y-58678807D01*
X94127329Y-58661083D01*
X94113079Y-58641870D01*
X94100782Y-58621353D01*
X94090554Y-58599729D01*
X94082496Y-58577207D01*
X94076684Y-58554003D01*
X94073174Y-58530342D01*
X94072000Y-58506450D01*
X94072000Y-57593950D01*
X94073174Y-57570058D01*
X94076684Y-57546397D01*
X94082496Y-57523193D01*
X94090554Y-57500671D01*
X94100782Y-57479047D01*
X94113079Y-57458530D01*
X94127329Y-57439317D01*
X94143393Y-57421593D01*
X94161117Y-57405529D01*
X94180330Y-57391279D01*
X94200847Y-57378982D01*
X94222471Y-57368754D01*
X94244993Y-57360696D01*
X94268197Y-57354884D01*
X94291858Y-57351374D01*
X94315750Y-57350200D01*
X94803250Y-57350200D01*
X94827142Y-57351374D01*
X94827142Y-57351374D01*
G37*
D11*
X94559500Y-58050200D03*
D10*
G36*
X92952142Y-57351374D02*
G01*
X92975803Y-57354884D01*
X92999007Y-57360696D01*
X93021529Y-57368754D01*
X93043153Y-57378982D01*
X93063670Y-57391279D01*
X93082883Y-57405529D01*
X93100607Y-57421593D01*
X93116671Y-57439317D01*
X93130921Y-57458530D01*
X93143218Y-57479047D01*
X93153446Y-57500671D01*
X93161504Y-57523193D01*
X93167316Y-57546397D01*
X93170826Y-57570058D01*
X93172000Y-57593950D01*
X93172000Y-58506450D01*
X93170826Y-58530342D01*
X93167316Y-58554003D01*
X93161504Y-58577207D01*
X93153446Y-58599729D01*
X93143218Y-58621353D01*
X93130921Y-58641870D01*
X93116671Y-58661083D01*
X93100607Y-58678807D01*
X93082883Y-58694871D01*
X93063670Y-58709121D01*
X93043153Y-58721418D01*
X93021529Y-58731646D01*
X92999007Y-58739704D01*
X92975803Y-58745516D01*
X92952142Y-58749026D01*
X92928250Y-58750200D01*
X92440750Y-58750200D01*
X92416858Y-58749026D01*
X92393197Y-58745516D01*
X92369993Y-58739704D01*
X92347471Y-58731646D01*
X92325847Y-58721418D01*
X92305330Y-58709121D01*
X92286117Y-58694871D01*
X92268393Y-58678807D01*
X92252329Y-58661083D01*
X92238079Y-58641870D01*
X92225782Y-58621353D01*
X92215554Y-58599729D01*
X92207496Y-58577207D01*
X92201684Y-58554003D01*
X92198174Y-58530342D01*
X92197000Y-58506450D01*
X92197000Y-57593950D01*
X92198174Y-57570058D01*
X92201684Y-57546397D01*
X92207496Y-57523193D01*
X92215554Y-57500671D01*
X92225782Y-57479047D01*
X92238079Y-57458530D01*
X92252329Y-57439317D01*
X92268393Y-57421593D01*
X92286117Y-57405529D01*
X92305330Y-57391279D01*
X92325847Y-57378982D01*
X92347471Y-57368754D01*
X92369993Y-57360696D01*
X92393197Y-57354884D01*
X92416858Y-57351374D01*
X92440750Y-57350200D01*
X92928250Y-57350200D01*
X92952142Y-57351374D01*
X92952142Y-57351374D01*
G37*
D11*
X92684500Y-58050200D03*
D10*
G36*
X94777142Y-68501374D02*
G01*
X94800803Y-68504884D01*
X94824007Y-68510696D01*
X94846529Y-68518754D01*
X94868153Y-68528982D01*
X94888670Y-68541279D01*
X94907883Y-68555529D01*
X94925607Y-68571593D01*
X94941671Y-68589317D01*
X94955921Y-68608530D01*
X94968218Y-68629047D01*
X94978446Y-68650671D01*
X94986504Y-68673193D01*
X94992316Y-68696397D01*
X94995826Y-68720058D01*
X94997000Y-68743950D01*
X94997000Y-69656450D01*
X94995826Y-69680342D01*
X94992316Y-69704003D01*
X94986504Y-69727207D01*
X94978446Y-69749729D01*
X94968218Y-69771353D01*
X94955921Y-69791870D01*
X94941671Y-69811083D01*
X94925607Y-69828807D01*
X94907883Y-69844871D01*
X94888670Y-69859121D01*
X94868153Y-69871418D01*
X94846529Y-69881646D01*
X94824007Y-69889704D01*
X94800803Y-69895516D01*
X94777142Y-69899026D01*
X94753250Y-69900200D01*
X94265750Y-69900200D01*
X94241858Y-69899026D01*
X94218197Y-69895516D01*
X94194993Y-69889704D01*
X94172471Y-69881646D01*
X94150847Y-69871418D01*
X94130330Y-69859121D01*
X94111117Y-69844871D01*
X94093393Y-69828807D01*
X94077329Y-69811083D01*
X94063079Y-69791870D01*
X94050782Y-69771353D01*
X94040554Y-69749729D01*
X94032496Y-69727207D01*
X94026684Y-69704003D01*
X94023174Y-69680342D01*
X94022000Y-69656450D01*
X94022000Y-68743950D01*
X94023174Y-68720058D01*
X94026684Y-68696397D01*
X94032496Y-68673193D01*
X94040554Y-68650671D01*
X94050782Y-68629047D01*
X94063079Y-68608530D01*
X94077329Y-68589317D01*
X94093393Y-68571593D01*
X94111117Y-68555529D01*
X94130330Y-68541279D01*
X94150847Y-68528982D01*
X94172471Y-68518754D01*
X94194993Y-68510696D01*
X94218197Y-68504884D01*
X94241858Y-68501374D01*
X94265750Y-68500200D01*
X94753250Y-68500200D01*
X94777142Y-68501374D01*
X94777142Y-68501374D01*
G37*
D11*
X94509500Y-69200200D03*
D10*
G36*
X92902142Y-68501374D02*
G01*
X92925803Y-68504884D01*
X92949007Y-68510696D01*
X92971529Y-68518754D01*
X92993153Y-68528982D01*
X93013670Y-68541279D01*
X93032883Y-68555529D01*
X93050607Y-68571593D01*
X93066671Y-68589317D01*
X93080921Y-68608530D01*
X93093218Y-68629047D01*
X93103446Y-68650671D01*
X93111504Y-68673193D01*
X93117316Y-68696397D01*
X93120826Y-68720058D01*
X93122000Y-68743950D01*
X93122000Y-69656450D01*
X93120826Y-69680342D01*
X93117316Y-69704003D01*
X93111504Y-69727207D01*
X93103446Y-69749729D01*
X93093218Y-69771353D01*
X93080921Y-69791870D01*
X93066671Y-69811083D01*
X93050607Y-69828807D01*
X93032883Y-69844871D01*
X93013670Y-69859121D01*
X92993153Y-69871418D01*
X92971529Y-69881646D01*
X92949007Y-69889704D01*
X92925803Y-69895516D01*
X92902142Y-69899026D01*
X92878250Y-69900200D01*
X92390750Y-69900200D01*
X92366858Y-69899026D01*
X92343197Y-69895516D01*
X92319993Y-69889704D01*
X92297471Y-69881646D01*
X92275847Y-69871418D01*
X92255330Y-69859121D01*
X92236117Y-69844871D01*
X92218393Y-69828807D01*
X92202329Y-69811083D01*
X92188079Y-69791870D01*
X92175782Y-69771353D01*
X92165554Y-69749729D01*
X92157496Y-69727207D01*
X92151684Y-69704003D01*
X92148174Y-69680342D01*
X92147000Y-69656450D01*
X92147000Y-68743950D01*
X92148174Y-68720058D01*
X92151684Y-68696397D01*
X92157496Y-68673193D01*
X92165554Y-68650671D01*
X92175782Y-68629047D01*
X92188079Y-68608530D01*
X92202329Y-68589317D01*
X92218393Y-68571593D01*
X92236117Y-68555529D01*
X92255330Y-68541279D01*
X92275847Y-68528982D01*
X92297471Y-68518754D01*
X92319993Y-68510696D01*
X92343197Y-68504884D01*
X92366858Y-68501374D01*
X92390750Y-68500200D01*
X92878250Y-68500200D01*
X92902142Y-68501374D01*
X92902142Y-68501374D01*
G37*
D11*
X92634500Y-69200200D03*
D10*
G36*
X94777142Y-66501374D02*
G01*
X94800803Y-66504884D01*
X94824007Y-66510696D01*
X94846529Y-66518754D01*
X94868153Y-66528982D01*
X94888670Y-66541279D01*
X94907883Y-66555529D01*
X94925607Y-66571593D01*
X94941671Y-66589317D01*
X94955921Y-66608530D01*
X94968218Y-66629047D01*
X94978446Y-66650671D01*
X94986504Y-66673193D01*
X94992316Y-66696397D01*
X94995826Y-66720058D01*
X94997000Y-66743950D01*
X94997000Y-67656450D01*
X94995826Y-67680342D01*
X94992316Y-67704003D01*
X94986504Y-67727207D01*
X94978446Y-67749729D01*
X94968218Y-67771353D01*
X94955921Y-67791870D01*
X94941671Y-67811083D01*
X94925607Y-67828807D01*
X94907883Y-67844871D01*
X94888670Y-67859121D01*
X94868153Y-67871418D01*
X94846529Y-67881646D01*
X94824007Y-67889704D01*
X94800803Y-67895516D01*
X94777142Y-67899026D01*
X94753250Y-67900200D01*
X94265750Y-67900200D01*
X94241858Y-67899026D01*
X94218197Y-67895516D01*
X94194993Y-67889704D01*
X94172471Y-67881646D01*
X94150847Y-67871418D01*
X94130330Y-67859121D01*
X94111117Y-67844871D01*
X94093393Y-67828807D01*
X94077329Y-67811083D01*
X94063079Y-67791870D01*
X94050782Y-67771353D01*
X94040554Y-67749729D01*
X94032496Y-67727207D01*
X94026684Y-67704003D01*
X94023174Y-67680342D01*
X94022000Y-67656450D01*
X94022000Y-66743950D01*
X94023174Y-66720058D01*
X94026684Y-66696397D01*
X94032496Y-66673193D01*
X94040554Y-66650671D01*
X94050782Y-66629047D01*
X94063079Y-66608530D01*
X94077329Y-66589317D01*
X94093393Y-66571593D01*
X94111117Y-66555529D01*
X94130330Y-66541279D01*
X94150847Y-66528982D01*
X94172471Y-66518754D01*
X94194993Y-66510696D01*
X94218197Y-66504884D01*
X94241858Y-66501374D01*
X94265750Y-66500200D01*
X94753250Y-66500200D01*
X94777142Y-66501374D01*
X94777142Y-66501374D01*
G37*
D11*
X94509500Y-67200200D03*
D10*
G36*
X92902142Y-66501374D02*
G01*
X92925803Y-66504884D01*
X92949007Y-66510696D01*
X92971529Y-66518754D01*
X92993153Y-66528982D01*
X93013670Y-66541279D01*
X93032883Y-66555529D01*
X93050607Y-66571593D01*
X93066671Y-66589317D01*
X93080921Y-66608530D01*
X93093218Y-66629047D01*
X93103446Y-66650671D01*
X93111504Y-66673193D01*
X93117316Y-66696397D01*
X93120826Y-66720058D01*
X93122000Y-66743950D01*
X93122000Y-67656450D01*
X93120826Y-67680342D01*
X93117316Y-67704003D01*
X93111504Y-67727207D01*
X93103446Y-67749729D01*
X93093218Y-67771353D01*
X93080921Y-67791870D01*
X93066671Y-67811083D01*
X93050607Y-67828807D01*
X93032883Y-67844871D01*
X93013670Y-67859121D01*
X92993153Y-67871418D01*
X92971529Y-67881646D01*
X92949007Y-67889704D01*
X92925803Y-67895516D01*
X92902142Y-67899026D01*
X92878250Y-67900200D01*
X92390750Y-67900200D01*
X92366858Y-67899026D01*
X92343197Y-67895516D01*
X92319993Y-67889704D01*
X92297471Y-67881646D01*
X92275847Y-67871418D01*
X92255330Y-67859121D01*
X92236117Y-67844871D01*
X92218393Y-67828807D01*
X92202329Y-67811083D01*
X92188079Y-67791870D01*
X92175782Y-67771353D01*
X92165554Y-67749729D01*
X92157496Y-67727207D01*
X92151684Y-67704003D01*
X92148174Y-67680342D01*
X92147000Y-67656450D01*
X92147000Y-66743950D01*
X92148174Y-66720058D01*
X92151684Y-66696397D01*
X92157496Y-66673193D01*
X92165554Y-66650671D01*
X92175782Y-66629047D01*
X92188079Y-66608530D01*
X92202329Y-66589317D01*
X92218393Y-66571593D01*
X92236117Y-66555529D01*
X92255330Y-66541279D01*
X92275847Y-66528982D01*
X92297471Y-66518754D01*
X92319993Y-66510696D01*
X92343197Y-66504884D01*
X92366858Y-66501374D01*
X92390750Y-66500200D01*
X92878250Y-66500200D01*
X92902142Y-66501374D01*
X92902142Y-66501374D01*
G37*
D11*
X92634500Y-67200200D03*
D10*
G36*
X95927142Y-76951374D02*
G01*
X95950803Y-76954884D01*
X95974007Y-76960696D01*
X95996529Y-76968754D01*
X96018153Y-76978982D01*
X96038670Y-76991279D01*
X96057883Y-77005529D01*
X96075607Y-77021593D01*
X96091671Y-77039317D01*
X96105921Y-77058530D01*
X96118218Y-77079047D01*
X96128446Y-77100671D01*
X96136504Y-77123193D01*
X96142316Y-77146397D01*
X96145826Y-77170058D01*
X96147000Y-77193950D01*
X96147000Y-78106450D01*
X96145826Y-78130342D01*
X96142316Y-78154003D01*
X96136504Y-78177207D01*
X96128446Y-78199729D01*
X96118218Y-78221353D01*
X96105921Y-78241870D01*
X96091671Y-78261083D01*
X96075607Y-78278807D01*
X96057883Y-78294871D01*
X96038670Y-78309121D01*
X96018153Y-78321418D01*
X95996529Y-78331646D01*
X95974007Y-78339704D01*
X95950803Y-78345516D01*
X95927142Y-78349026D01*
X95903250Y-78350200D01*
X95415750Y-78350200D01*
X95391858Y-78349026D01*
X95368197Y-78345516D01*
X95344993Y-78339704D01*
X95322471Y-78331646D01*
X95300847Y-78321418D01*
X95280330Y-78309121D01*
X95261117Y-78294871D01*
X95243393Y-78278807D01*
X95227329Y-78261083D01*
X95213079Y-78241870D01*
X95200782Y-78221353D01*
X95190554Y-78199729D01*
X95182496Y-78177207D01*
X95176684Y-78154003D01*
X95173174Y-78130342D01*
X95172000Y-78106450D01*
X95172000Y-77193950D01*
X95173174Y-77170058D01*
X95176684Y-77146397D01*
X95182496Y-77123193D01*
X95190554Y-77100671D01*
X95200782Y-77079047D01*
X95213079Y-77058530D01*
X95227329Y-77039317D01*
X95243393Y-77021593D01*
X95261117Y-77005529D01*
X95280330Y-76991279D01*
X95300847Y-76978982D01*
X95322471Y-76968754D01*
X95344993Y-76960696D01*
X95368197Y-76954884D01*
X95391858Y-76951374D01*
X95415750Y-76950200D01*
X95903250Y-76950200D01*
X95927142Y-76951374D01*
X95927142Y-76951374D01*
G37*
D11*
X95659500Y-77650200D03*
D10*
G36*
X94052142Y-76951374D02*
G01*
X94075803Y-76954884D01*
X94099007Y-76960696D01*
X94121529Y-76968754D01*
X94143153Y-76978982D01*
X94163670Y-76991279D01*
X94182883Y-77005529D01*
X94200607Y-77021593D01*
X94216671Y-77039317D01*
X94230921Y-77058530D01*
X94243218Y-77079047D01*
X94253446Y-77100671D01*
X94261504Y-77123193D01*
X94267316Y-77146397D01*
X94270826Y-77170058D01*
X94272000Y-77193950D01*
X94272000Y-78106450D01*
X94270826Y-78130342D01*
X94267316Y-78154003D01*
X94261504Y-78177207D01*
X94253446Y-78199729D01*
X94243218Y-78221353D01*
X94230921Y-78241870D01*
X94216671Y-78261083D01*
X94200607Y-78278807D01*
X94182883Y-78294871D01*
X94163670Y-78309121D01*
X94143153Y-78321418D01*
X94121529Y-78331646D01*
X94099007Y-78339704D01*
X94075803Y-78345516D01*
X94052142Y-78349026D01*
X94028250Y-78350200D01*
X93540750Y-78350200D01*
X93516858Y-78349026D01*
X93493197Y-78345516D01*
X93469993Y-78339704D01*
X93447471Y-78331646D01*
X93425847Y-78321418D01*
X93405330Y-78309121D01*
X93386117Y-78294871D01*
X93368393Y-78278807D01*
X93352329Y-78261083D01*
X93338079Y-78241870D01*
X93325782Y-78221353D01*
X93315554Y-78199729D01*
X93307496Y-78177207D01*
X93301684Y-78154003D01*
X93298174Y-78130342D01*
X93297000Y-78106450D01*
X93297000Y-77193950D01*
X93298174Y-77170058D01*
X93301684Y-77146397D01*
X93307496Y-77123193D01*
X93315554Y-77100671D01*
X93325782Y-77079047D01*
X93338079Y-77058530D01*
X93352329Y-77039317D01*
X93368393Y-77021593D01*
X93386117Y-77005529D01*
X93405330Y-76991279D01*
X93425847Y-76978982D01*
X93447471Y-76968754D01*
X93469993Y-76960696D01*
X93493197Y-76954884D01*
X93516858Y-76951374D01*
X93540750Y-76950200D01*
X94028250Y-76950200D01*
X94052142Y-76951374D01*
X94052142Y-76951374D01*
G37*
D11*
X93784500Y-77650200D03*
D10*
G36*
X95927142Y-78951374D02*
G01*
X95950803Y-78954884D01*
X95974007Y-78960696D01*
X95996529Y-78968754D01*
X96018153Y-78978982D01*
X96038670Y-78991279D01*
X96057883Y-79005529D01*
X96075607Y-79021593D01*
X96091671Y-79039317D01*
X96105921Y-79058530D01*
X96118218Y-79079047D01*
X96128446Y-79100671D01*
X96136504Y-79123193D01*
X96142316Y-79146397D01*
X96145826Y-79170058D01*
X96147000Y-79193950D01*
X96147000Y-80106450D01*
X96145826Y-80130342D01*
X96142316Y-80154003D01*
X96136504Y-80177207D01*
X96128446Y-80199729D01*
X96118218Y-80221353D01*
X96105921Y-80241870D01*
X96091671Y-80261083D01*
X96075607Y-80278807D01*
X96057883Y-80294871D01*
X96038670Y-80309121D01*
X96018153Y-80321418D01*
X95996529Y-80331646D01*
X95974007Y-80339704D01*
X95950803Y-80345516D01*
X95927142Y-80349026D01*
X95903250Y-80350200D01*
X95415750Y-80350200D01*
X95391858Y-80349026D01*
X95368197Y-80345516D01*
X95344993Y-80339704D01*
X95322471Y-80331646D01*
X95300847Y-80321418D01*
X95280330Y-80309121D01*
X95261117Y-80294871D01*
X95243393Y-80278807D01*
X95227329Y-80261083D01*
X95213079Y-80241870D01*
X95200782Y-80221353D01*
X95190554Y-80199729D01*
X95182496Y-80177207D01*
X95176684Y-80154003D01*
X95173174Y-80130342D01*
X95172000Y-80106450D01*
X95172000Y-79193950D01*
X95173174Y-79170058D01*
X95176684Y-79146397D01*
X95182496Y-79123193D01*
X95190554Y-79100671D01*
X95200782Y-79079047D01*
X95213079Y-79058530D01*
X95227329Y-79039317D01*
X95243393Y-79021593D01*
X95261117Y-79005529D01*
X95280330Y-78991279D01*
X95300847Y-78978982D01*
X95322471Y-78968754D01*
X95344993Y-78960696D01*
X95368197Y-78954884D01*
X95391858Y-78951374D01*
X95415750Y-78950200D01*
X95903250Y-78950200D01*
X95927142Y-78951374D01*
X95927142Y-78951374D01*
G37*
D11*
X95659500Y-79650200D03*
D10*
G36*
X94052142Y-78951374D02*
G01*
X94075803Y-78954884D01*
X94099007Y-78960696D01*
X94121529Y-78968754D01*
X94143153Y-78978982D01*
X94163670Y-78991279D01*
X94182883Y-79005529D01*
X94200607Y-79021593D01*
X94216671Y-79039317D01*
X94230921Y-79058530D01*
X94243218Y-79079047D01*
X94253446Y-79100671D01*
X94261504Y-79123193D01*
X94267316Y-79146397D01*
X94270826Y-79170058D01*
X94272000Y-79193950D01*
X94272000Y-80106450D01*
X94270826Y-80130342D01*
X94267316Y-80154003D01*
X94261504Y-80177207D01*
X94253446Y-80199729D01*
X94243218Y-80221353D01*
X94230921Y-80241870D01*
X94216671Y-80261083D01*
X94200607Y-80278807D01*
X94182883Y-80294871D01*
X94163670Y-80309121D01*
X94143153Y-80321418D01*
X94121529Y-80331646D01*
X94099007Y-80339704D01*
X94075803Y-80345516D01*
X94052142Y-80349026D01*
X94028250Y-80350200D01*
X93540750Y-80350200D01*
X93516858Y-80349026D01*
X93493197Y-80345516D01*
X93469993Y-80339704D01*
X93447471Y-80331646D01*
X93425847Y-80321418D01*
X93405330Y-80309121D01*
X93386117Y-80294871D01*
X93368393Y-80278807D01*
X93352329Y-80261083D01*
X93338079Y-80241870D01*
X93325782Y-80221353D01*
X93315554Y-80199729D01*
X93307496Y-80177207D01*
X93301684Y-80154003D01*
X93298174Y-80130342D01*
X93297000Y-80106450D01*
X93297000Y-79193950D01*
X93298174Y-79170058D01*
X93301684Y-79146397D01*
X93307496Y-79123193D01*
X93315554Y-79100671D01*
X93325782Y-79079047D01*
X93338079Y-79058530D01*
X93352329Y-79039317D01*
X93368393Y-79021593D01*
X93386117Y-79005529D01*
X93405330Y-78991279D01*
X93425847Y-78978982D01*
X93447471Y-78968754D01*
X93469993Y-78960696D01*
X93493197Y-78954884D01*
X93516858Y-78951374D01*
X93540750Y-78950200D01*
X94028250Y-78950200D01*
X94052142Y-78951374D01*
X94052142Y-78951374D01*
G37*
D11*
X93784500Y-79650200D03*
D10*
G36*
X96402142Y-89901374D02*
G01*
X96425803Y-89904884D01*
X96449007Y-89910696D01*
X96471529Y-89918754D01*
X96493153Y-89928982D01*
X96513670Y-89941279D01*
X96532883Y-89955529D01*
X96550607Y-89971593D01*
X96566671Y-89989317D01*
X96580921Y-90008530D01*
X96593218Y-90029047D01*
X96603446Y-90050671D01*
X96611504Y-90073193D01*
X96617316Y-90096397D01*
X96620826Y-90120058D01*
X96622000Y-90143950D01*
X96622000Y-90631450D01*
X96620826Y-90655342D01*
X96617316Y-90679003D01*
X96611504Y-90702207D01*
X96603446Y-90724729D01*
X96593218Y-90746353D01*
X96580921Y-90766870D01*
X96566671Y-90786083D01*
X96550607Y-90803807D01*
X96532883Y-90819871D01*
X96513670Y-90834121D01*
X96493153Y-90846418D01*
X96471529Y-90856646D01*
X96449007Y-90864704D01*
X96425803Y-90870516D01*
X96402142Y-90874026D01*
X96378250Y-90875200D01*
X95465750Y-90875200D01*
X95441858Y-90874026D01*
X95418197Y-90870516D01*
X95394993Y-90864704D01*
X95372471Y-90856646D01*
X95350847Y-90846418D01*
X95330330Y-90834121D01*
X95311117Y-90819871D01*
X95293393Y-90803807D01*
X95277329Y-90786083D01*
X95263079Y-90766870D01*
X95250782Y-90746353D01*
X95240554Y-90724729D01*
X95232496Y-90702207D01*
X95226684Y-90679003D01*
X95223174Y-90655342D01*
X95222000Y-90631450D01*
X95222000Y-90143950D01*
X95223174Y-90120058D01*
X95226684Y-90096397D01*
X95232496Y-90073193D01*
X95240554Y-90050671D01*
X95250782Y-90029047D01*
X95263079Y-90008530D01*
X95277329Y-89989317D01*
X95293393Y-89971593D01*
X95311117Y-89955529D01*
X95330330Y-89941279D01*
X95350847Y-89928982D01*
X95372471Y-89918754D01*
X95394993Y-89910696D01*
X95418197Y-89904884D01*
X95441858Y-89901374D01*
X95465750Y-89900200D01*
X96378250Y-89900200D01*
X96402142Y-89901374D01*
X96402142Y-89901374D01*
G37*
D11*
X95922000Y-90387700D03*
D10*
G36*
X96402142Y-88026374D02*
G01*
X96425803Y-88029884D01*
X96449007Y-88035696D01*
X96471529Y-88043754D01*
X96493153Y-88053982D01*
X96513670Y-88066279D01*
X96532883Y-88080529D01*
X96550607Y-88096593D01*
X96566671Y-88114317D01*
X96580921Y-88133530D01*
X96593218Y-88154047D01*
X96603446Y-88175671D01*
X96611504Y-88198193D01*
X96617316Y-88221397D01*
X96620826Y-88245058D01*
X96622000Y-88268950D01*
X96622000Y-88756450D01*
X96620826Y-88780342D01*
X96617316Y-88804003D01*
X96611504Y-88827207D01*
X96603446Y-88849729D01*
X96593218Y-88871353D01*
X96580921Y-88891870D01*
X96566671Y-88911083D01*
X96550607Y-88928807D01*
X96532883Y-88944871D01*
X96513670Y-88959121D01*
X96493153Y-88971418D01*
X96471529Y-88981646D01*
X96449007Y-88989704D01*
X96425803Y-88995516D01*
X96402142Y-88999026D01*
X96378250Y-89000200D01*
X95465750Y-89000200D01*
X95441858Y-88999026D01*
X95418197Y-88995516D01*
X95394993Y-88989704D01*
X95372471Y-88981646D01*
X95350847Y-88971418D01*
X95330330Y-88959121D01*
X95311117Y-88944871D01*
X95293393Y-88928807D01*
X95277329Y-88911083D01*
X95263079Y-88891870D01*
X95250782Y-88871353D01*
X95240554Y-88849729D01*
X95232496Y-88827207D01*
X95226684Y-88804003D01*
X95223174Y-88780342D01*
X95222000Y-88756450D01*
X95222000Y-88268950D01*
X95223174Y-88245058D01*
X95226684Y-88221397D01*
X95232496Y-88198193D01*
X95240554Y-88175671D01*
X95250782Y-88154047D01*
X95263079Y-88133530D01*
X95277329Y-88114317D01*
X95293393Y-88096593D01*
X95311117Y-88080529D01*
X95330330Y-88066279D01*
X95350847Y-88053982D01*
X95372471Y-88043754D01*
X95394993Y-88035696D01*
X95418197Y-88029884D01*
X95441858Y-88026374D01*
X95465750Y-88025200D01*
X96378250Y-88025200D01*
X96402142Y-88026374D01*
X96402142Y-88026374D01*
G37*
D11*
X95922000Y-88512700D03*
D10*
G36*
X94402142Y-89901374D02*
G01*
X94425803Y-89904884D01*
X94449007Y-89910696D01*
X94471529Y-89918754D01*
X94493153Y-89928982D01*
X94513670Y-89941279D01*
X94532883Y-89955529D01*
X94550607Y-89971593D01*
X94566671Y-89989317D01*
X94580921Y-90008530D01*
X94593218Y-90029047D01*
X94603446Y-90050671D01*
X94611504Y-90073193D01*
X94617316Y-90096397D01*
X94620826Y-90120058D01*
X94622000Y-90143950D01*
X94622000Y-90631450D01*
X94620826Y-90655342D01*
X94617316Y-90679003D01*
X94611504Y-90702207D01*
X94603446Y-90724729D01*
X94593218Y-90746353D01*
X94580921Y-90766870D01*
X94566671Y-90786083D01*
X94550607Y-90803807D01*
X94532883Y-90819871D01*
X94513670Y-90834121D01*
X94493153Y-90846418D01*
X94471529Y-90856646D01*
X94449007Y-90864704D01*
X94425803Y-90870516D01*
X94402142Y-90874026D01*
X94378250Y-90875200D01*
X93465750Y-90875200D01*
X93441858Y-90874026D01*
X93418197Y-90870516D01*
X93394993Y-90864704D01*
X93372471Y-90856646D01*
X93350847Y-90846418D01*
X93330330Y-90834121D01*
X93311117Y-90819871D01*
X93293393Y-90803807D01*
X93277329Y-90786083D01*
X93263079Y-90766870D01*
X93250782Y-90746353D01*
X93240554Y-90724729D01*
X93232496Y-90702207D01*
X93226684Y-90679003D01*
X93223174Y-90655342D01*
X93222000Y-90631450D01*
X93222000Y-90143950D01*
X93223174Y-90120058D01*
X93226684Y-90096397D01*
X93232496Y-90073193D01*
X93240554Y-90050671D01*
X93250782Y-90029047D01*
X93263079Y-90008530D01*
X93277329Y-89989317D01*
X93293393Y-89971593D01*
X93311117Y-89955529D01*
X93330330Y-89941279D01*
X93350847Y-89928982D01*
X93372471Y-89918754D01*
X93394993Y-89910696D01*
X93418197Y-89904884D01*
X93441858Y-89901374D01*
X93465750Y-89900200D01*
X94378250Y-89900200D01*
X94402142Y-89901374D01*
X94402142Y-89901374D01*
G37*
D11*
X93922000Y-90387700D03*
D10*
G36*
X94402142Y-88026374D02*
G01*
X94425803Y-88029884D01*
X94449007Y-88035696D01*
X94471529Y-88043754D01*
X94493153Y-88053982D01*
X94513670Y-88066279D01*
X94532883Y-88080529D01*
X94550607Y-88096593D01*
X94566671Y-88114317D01*
X94580921Y-88133530D01*
X94593218Y-88154047D01*
X94603446Y-88175671D01*
X94611504Y-88198193D01*
X94617316Y-88221397D01*
X94620826Y-88245058D01*
X94622000Y-88268950D01*
X94622000Y-88756450D01*
X94620826Y-88780342D01*
X94617316Y-88804003D01*
X94611504Y-88827207D01*
X94603446Y-88849729D01*
X94593218Y-88871353D01*
X94580921Y-88891870D01*
X94566671Y-88911083D01*
X94550607Y-88928807D01*
X94532883Y-88944871D01*
X94513670Y-88959121D01*
X94493153Y-88971418D01*
X94471529Y-88981646D01*
X94449007Y-88989704D01*
X94425803Y-88995516D01*
X94402142Y-88999026D01*
X94378250Y-89000200D01*
X93465750Y-89000200D01*
X93441858Y-88999026D01*
X93418197Y-88995516D01*
X93394993Y-88989704D01*
X93372471Y-88981646D01*
X93350847Y-88971418D01*
X93330330Y-88959121D01*
X93311117Y-88944871D01*
X93293393Y-88928807D01*
X93277329Y-88911083D01*
X93263079Y-88891870D01*
X93250782Y-88871353D01*
X93240554Y-88849729D01*
X93232496Y-88827207D01*
X93226684Y-88804003D01*
X93223174Y-88780342D01*
X93222000Y-88756450D01*
X93222000Y-88268950D01*
X93223174Y-88245058D01*
X93226684Y-88221397D01*
X93232496Y-88198193D01*
X93240554Y-88175671D01*
X93250782Y-88154047D01*
X93263079Y-88133530D01*
X93277329Y-88114317D01*
X93293393Y-88096593D01*
X93311117Y-88080529D01*
X93330330Y-88066279D01*
X93350847Y-88053982D01*
X93372471Y-88043754D01*
X93394993Y-88035696D01*
X93418197Y-88029884D01*
X93441858Y-88026374D01*
X93465750Y-88025200D01*
X94378250Y-88025200D01*
X94402142Y-88026374D01*
X94402142Y-88026374D01*
G37*
D11*
X93922000Y-88512700D03*
D10*
G36*
X85452142Y-89601374D02*
G01*
X85475803Y-89604884D01*
X85499007Y-89610696D01*
X85521529Y-89618754D01*
X85543153Y-89628982D01*
X85563670Y-89641279D01*
X85582883Y-89655529D01*
X85600607Y-89671593D01*
X85616671Y-89689317D01*
X85630921Y-89708530D01*
X85643218Y-89729047D01*
X85653446Y-89750671D01*
X85661504Y-89773193D01*
X85667316Y-89796397D01*
X85670826Y-89820058D01*
X85672000Y-89843950D01*
X85672000Y-90331450D01*
X85670826Y-90355342D01*
X85667316Y-90379003D01*
X85661504Y-90402207D01*
X85653446Y-90424729D01*
X85643218Y-90446353D01*
X85630921Y-90466870D01*
X85616671Y-90486083D01*
X85600607Y-90503807D01*
X85582883Y-90519871D01*
X85563670Y-90534121D01*
X85543153Y-90546418D01*
X85521529Y-90556646D01*
X85499007Y-90564704D01*
X85475803Y-90570516D01*
X85452142Y-90574026D01*
X85428250Y-90575200D01*
X84515750Y-90575200D01*
X84491858Y-90574026D01*
X84468197Y-90570516D01*
X84444993Y-90564704D01*
X84422471Y-90556646D01*
X84400847Y-90546418D01*
X84380330Y-90534121D01*
X84361117Y-90519871D01*
X84343393Y-90503807D01*
X84327329Y-90486083D01*
X84313079Y-90466870D01*
X84300782Y-90446353D01*
X84290554Y-90424729D01*
X84282496Y-90402207D01*
X84276684Y-90379003D01*
X84273174Y-90355342D01*
X84272000Y-90331450D01*
X84272000Y-89843950D01*
X84273174Y-89820058D01*
X84276684Y-89796397D01*
X84282496Y-89773193D01*
X84290554Y-89750671D01*
X84300782Y-89729047D01*
X84313079Y-89708530D01*
X84327329Y-89689317D01*
X84343393Y-89671593D01*
X84361117Y-89655529D01*
X84380330Y-89641279D01*
X84400847Y-89628982D01*
X84422471Y-89618754D01*
X84444993Y-89610696D01*
X84468197Y-89604884D01*
X84491858Y-89601374D01*
X84515750Y-89600200D01*
X85428250Y-89600200D01*
X85452142Y-89601374D01*
X85452142Y-89601374D01*
G37*
D11*
X84972000Y-90087700D03*
D10*
G36*
X85452142Y-87726374D02*
G01*
X85475803Y-87729884D01*
X85499007Y-87735696D01*
X85521529Y-87743754D01*
X85543153Y-87753982D01*
X85563670Y-87766279D01*
X85582883Y-87780529D01*
X85600607Y-87796593D01*
X85616671Y-87814317D01*
X85630921Y-87833530D01*
X85643218Y-87854047D01*
X85653446Y-87875671D01*
X85661504Y-87898193D01*
X85667316Y-87921397D01*
X85670826Y-87945058D01*
X85672000Y-87968950D01*
X85672000Y-88456450D01*
X85670826Y-88480342D01*
X85667316Y-88504003D01*
X85661504Y-88527207D01*
X85653446Y-88549729D01*
X85643218Y-88571353D01*
X85630921Y-88591870D01*
X85616671Y-88611083D01*
X85600607Y-88628807D01*
X85582883Y-88644871D01*
X85563670Y-88659121D01*
X85543153Y-88671418D01*
X85521529Y-88681646D01*
X85499007Y-88689704D01*
X85475803Y-88695516D01*
X85452142Y-88699026D01*
X85428250Y-88700200D01*
X84515750Y-88700200D01*
X84491858Y-88699026D01*
X84468197Y-88695516D01*
X84444993Y-88689704D01*
X84422471Y-88681646D01*
X84400847Y-88671418D01*
X84380330Y-88659121D01*
X84361117Y-88644871D01*
X84343393Y-88628807D01*
X84327329Y-88611083D01*
X84313079Y-88591870D01*
X84300782Y-88571353D01*
X84290554Y-88549729D01*
X84282496Y-88527207D01*
X84276684Y-88504003D01*
X84273174Y-88480342D01*
X84272000Y-88456450D01*
X84272000Y-87968950D01*
X84273174Y-87945058D01*
X84276684Y-87921397D01*
X84282496Y-87898193D01*
X84290554Y-87875671D01*
X84300782Y-87854047D01*
X84313079Y-87833530D01*
X84327329Y-87814317D01*
X84343393Y-87796593D01*
X84361117Y-87780529D01*
X84380330Y-87766279D01*
X84400847Y-87753982D01*
X84422471Y-87743754D01*
X84444993Y-87735696D01*
X84468197Y-87729884D01*
X84491858Y-87726374D01*
X84515750Y-87725200D01*
X85428250Y-87725200D01*
X85452142Y-87726374D01*
X85452142Y-87726374D01*
G37*
D11*
X84972000Y-88212700D03*
D10*
G36*
X83452142Y-89601374D02*
G01*
X83475803Y-89604884D01*
X83499007Y-89610696D01*
X83521529Y-89618754D01*
X83543153Y-89628982D01*
X83563670Y-89641279D01*
X83582883Y-89655529D01*
X83600607Y-89671593D01*
X83616671Y-89689317D01*
X83630921Y-89708530D01*
X83643218Y-89729047D01*
X83653446Y-89750671D01*
X83661504Y-89773193D01*
X83667316Y-89796397D01*
X83670826Y-89820058D01*
X83672000Y-89843950D01*
X83672000Y-90331450D01*
X83670826Y-90355342D01*
X83667316Y-90379003D01*
X83661504Y-90402207D01*
X83653446Y-90424729D01*
X83643218Y-90446353D01*
X83630921Y-90466870D01*
X83616671Y-90486083D01*
X83600607Y-90503807D01*
X83582883Y-90519871D01*
X83563670Y-90534121D01*
X83543153Y-90546418D01*
X83521529Y-90556646D01*
X83499007Y-90564704D01*
X83475803Y-90570516D01*
X83452142Y-90574026D01*
X83428250Y-90575200D01*
X82515750Y-90575200D01*
X82491858Y-90574026D01*
X82468197Y-90570516D01*
X82444993Y-90564704D01*
X82422471Y-90556646D01*
X82400847Y-90546418D01*
X82380330Y-90534121D01*
X82361117Y-90519871D01*
X82343393Y-90503807D01*
X82327329Y-90486083D01*
X82313079Y-90466870D01*
X82300782Y-90446353D01*
X82290554Y-90424729D01*
X82282496Y-90402207D01*
X82276684Y-90379003D01*
X82273174Y-90355342D01*
X82272000Y-90331450D01*
X82272000Y-89843950D01*
X82273174Y-89820058D01*
X82276684Y-89796397D01*
X82282496Y-89773193D01*
X82290554Y-89750671D01*
X82300782Y-89729047D01*
X82313079Y-89708530D01*
X82327329Y-89689317D01*
X82343393Y-89671593D01*
X82361117Y-89655529D01*
X82380330Y-89641279D01*
X82400847Y-89628982D01*
X82422471Y-89618754D01*
X82444993Y-89610696D01*
X82468197Y-89604884D01*
X82491858Y-89601374D01*
X82515750Y-89600200D01*
X83428250Y-89600200D01*
X83452142Y-89601374D01*
X83452142Y-89601374D01*
G37*
D11*
X82972000Y-90087700D03*
D10*
G36*
X83452142Y-87726374D02*
G01*
X83475803Y-87729884D01*
X83499007Y-87735696D01*
X83521529Y-87743754D01*
X83543153Y-87753982D01*
X83563670Y-87766279D01*
X83582883Y-87780529D01*
X83600607Y-87796593D01*
X83616671Y-87814317D01*
X83630921Y-87833530D01*
X83643218Y-87854047D01*
X83653446Y-87875671D01*
X83661504Y-87898193D01*
X83667316Y-87921397D01*
X83670826Y-87945058D01*
X83672000Y-87968950D01*
X83672000Y-88456450D01*
X83670826Y-88480342D01*
X83667316Y-88504003D01*
X83661504Y-88527207D01*
X83653446Y-88549729D01*
X83643218Y-88571353D01*
X83630921Y-88591870D01*
X83616671Y-88611083D01*
X83600607Y-88628807D01*
X83582883Y-88644871D01*
X83563670Y-88659121D01*
X83543153Y-88671418D01*
X83521529Y-88681646D01*
X83499007Y-88689704D01*
X83475803Y-88695516D01*
X83452142Y-88699026D01*
X83428250Y-88700200D01*
X82515750Y-88700200D01*
X82491858Y-88699026D01*
X82468197Y-88695516D01*
X82444993Y-88689704D01*
X82422471Y-88681646D01*
X82400847Y-88671418D01*
X82380330Y-88659121D01*
X82361117Y-88644871D01*
X82343393Y-88628807D01*
X82327329Y-88611083D01*
X82313079Y-88591870D01*
X82300782Y-88571353D01*
X82290554Y-88549729D01*
X82282496Y-88527207D01*
X82276684Y-88504003D01*
X82273174Y-88480342D01*
X82272000Y-88456450D01*
X82272000Y-87968950D01*
X82273174Y-87945058D01*
X82276684Y-87921397D01*
X82282496Y-87898193D01*
X82290554Y-87875671D01*
X82300782Y-87854047D01*
X82313079Y-87833530D01*
X82327329Y-87814317D01*
X82343393Y-87796593D01*
X82361117Y-87780529D01*
X82380330Y-87766279D01*
X82400847Y-87753982D01*
X82422471Y-87743754D01*
X82444993Y-87735696D01*
X82468197Y-87729884D01*
X82491858Y-87726374D01*
X82515750Y-87725200D01*
X83428250Y-87725200D01*
X83452142Y-87726374D01*
X83452142Y-87726374D01*
G37*
D11*
X82972000Y-88212700D03*
D10*
G36*
X74252142Y-89751374D02*
G01*
X74275803Y-89754884D01*
X74299007Y-89760696D01*
X74321529Y-89768754D01*
X74343153Y-89778982D01*
X74363670Y-89791279D01*
X74382883Y-89805529D01*
X74400607Y-89821593D01*
X74416671Y-89839317D01*
X74430921Y-89858530D01*
X74443218Y-89879047D01*
X74453446Y-89900671D01*
X74461504Y-89923193D01*
X74467316Y-89946397D01*
X74470826Y-89970058D01*
X74472000Y-89993950D01*
X74472000Y-90481450D01*
X74470826Y-90505342D01*
X74467316Y-90529003D01*
X74461504Y-90552207D01*
X74453446Y-90574729D01*
X74443218Y-90596353D01*
X74430921Y-90616870D01*
X74416671Y-90636083D01*
X74400607Y-90653807D01*
X74382883Y-90669871D01*
X74363670Y-90684121D01*
X74343153Y-90696418D01*
X74321529Y-90706646D01*
X74299007Y-90714704D01*
X74275803Y-90720516D01*
X74252142Y-90724026D01*
X74228250Y-90725200D01*
X73315750Y-90725200D01*
X73291858Y-90724026D01*
X73268197Y-90720516D01*
X73244993Y-90714704D01*
X73222471Y-90706646D01*
X73200847Y-90696418D01*
X73180330Y-90684121D01*
X73161117Y-90669871D01*
X73143393Y-90653807D01*
X73127329Y-90636083D01*
X73113079Y-90616870D01*
X73100782Y-90596353D01*
X73090554Y-90574729D01*
X73082496Y-90552207D01*
X73076684Y-90529003D01*
X73073174Y-90505342D01*
X73072000Y-90481450D01*
X73072000Y-89993950D01*
X73073174Y-89970058D01*
X73076684Y-89946397D01*
X73082496Y-89923193D01*
X73090554Y-89900671D01*
X73100782Y-89879047D01*
X73113079Y-89858530D01*
X73127329Y-89839317D01*
X73143393Y-89821593D01*
X73161117Y-89805529D01*
X73180330Y-89791279D01*
X73200847Y-89778982D01*
X73222471Y-89768754D01*
X73244993Y-89760696D01*
X73268197Y-89754884D01*
X73291858Y-89751374D01*
X73315750Y-89750200D01*
X74228250Y-89750200D01*
X74252142Y-89751374D01*
X74252142Y-89751374D01*
G37*
D11*
X73772000Y-90237700D03*
D10*
G36*
X74252142Y-87876374D02*
G01*
X74275803Y-87879884D01*
X74299007Y-87885696D01*
X74321529Y-87893754D01*
X74343153Y-87903982D01*
X74363670Y-87916279D01*
X74382883Y-87930529D01*
X74400607Y-87946593D01*
X74416671Y-87964317D01*
X74430921Y-87983530D01*
X74443218Y-88004047D01*
X74453446Y-88025671D01*
X74461504Y-88048193D01*
X74467316Y-88071397D01*
X74470826Y-88095058D01*
X74472000Y-88118950D01*
X74472000Y-88606450D01*
X74470826Y-88630342D01*
X74467316Y-88654003D01*
X74461504Y-88677207D01*
X74453446Y-88699729D01*
X74443218Y-88721353D01*
X74430921Y-88741870D01*
X74416671Y-88761083D01*
X74400607Y-88778807D01*
X74382883Y-88794871D01*
X74363670Y-88809121D01*
X74343153Y-88821418D01*
X74321529Y-88831646D01*
X74299007Y-88839704D01*
X74275803Y-88845516D01*
X74252142Y-88849026D01*
X74228250Y-88850200D01*
X73315750Y-88850200D01*
X73291858Y-88849026D01*
X73268197Y-88845516D01*
X73244993Y-88839704D01*
X73222471Y-88831646D01*
X73200847Y-88821418D01*
X73180330Y-88809121D01*
X73161117Y-88794871D01*
X73143393Y-88778807D01*
X73127329Y-88761083D01*
X73113079Y-88741870D01*
X73100782Y-88721353D01*
X73090554Y-88699729D01*
X73082496Y-88677207D01*
X73076684Y-88654003D01*
X73073174Y-88630342D01*
X73072000Y-88606450D01*
X73072000Y-88118950D01*
X73073174Y-88095058D01*
X73076684Y-88071397D01*
X73082496Y-88048193D01*
X73090554Y-88025671D01*
X73100782Y-88004047D01*
X73113079Y-87983530D01*
X73127329Y-87964317D01*
X73143393Y-87946593D01*
X73161117Y-87930529D01*
X73180330Y-87916279D01*
X73200847Y-87903982D01*
X73222471Y-87893754D01*
X73244993Y-87885696D01*
X73268197Y-87879884D01*
X73291858Y-87876374D01*
X73315750Y-87875200D01*
X74228250Y-87875200D01*
X74252142Y-87876374D01*
X74252142Y-87876374D01*
G37*
D11*
X73772000Y-88362700D03*
D10*
G36*
X72252142Y-89751374D02*
G01*
X72275803Y-89754884D01*
X72299007Y-89760696D01*
X72321529Y-89768754D01*
X72343153Y-89778982D01*
X72363670Y-89791279D01*
X72382883Y-89805529D01*
X72400607Y-89821593D01*
X72416671Y-89839317D01*
X72430921Y-89858530D01*
X72443218Y-89879047D01*
X72453446Y-89900671D01*
X72461504Y-89923193D01*
X72467316Y-89946397D01*
X72470826Y-89970058D01*
X72472000Y-89993950D01*
X72472000Y-90481450D01*
X72470826Y-90505342D01*
X72467316Y-90529003D01*
X72461504Y-90552207D01*
X72453446Y-90574729D01*
X72443218Y-90596353D01*
X72430921Y-90616870D01*
X72416671Y-90636083D01*
X72400607Y-90653807D01*
X72382883Y-90669871D01*
X72363670Y-90684121D01*
X72343153Y-90696418D01*
X72321529Y-90706646D01*
X72299007Y-90714704D01*
X72275803Y-90720516D01*
X72252142Y-90724026D01*
X72228250Y-90725200D01*
X71315750Y-90725200D01*
X71291858Y-90724026D01*
X71268197Y-90720516D01*
X71244993Y-90714704D01*
X71222471Y-90706646D01*
X71200847Y-90696418D01*
X71180330Y-90684121D01*
X71161117Y-90669871D01*
X71143393Y-90653807D01*
X71127329Y-90636083D01*
X71113079Y-90616870D01*
X71100782Y-90596353D01*
X71090554Y-90574729D01*
X71082496Y-90552207D01*
X71076684Y-90529003D01*
X71073174Y-90505342D01*
X71072000Y-90481450D01*
X71072000Y-89993950D01*
X71073174Y-89970058D01*
X71076684Y-89946397D01*
X71082496Y-89923193D01*
X71090554Y-89900671D01*
X71100782Y-89879047D01*
X71113079Y-89858530D01*
X71127329Y-89839317D01*
X71143393Y-89821593D01*
X71161117Y-89805529D01*
X71180330Y-89791279D01*
X71200847Y-89778982D01*
X71222471Y-89768754D01*
X71244993Y-89760696D01*
X71268197Y-89754884D01*
X71291858Y-89751374D01*
X71315750Y-89750200D01*
X72228250Y-89750200D01*
X72252142Y-89751374D01*
X72252142Y-89751374D01*
G37*
D11*
X71772000Y-90237700D03*
D10*
G36*
X72252142Y-87876374D02*
G01*
X72275803Y-87879884D01*
X72299007Y-87885696D01*
X72321529Y-87893754D01*
X72343153Y-87903982D01*
X72363670Y-87916279D01*
X72382883Y-87930529D01*
X72400607Y-87946593D01*
X72416671Y-87964317D01*
X72430921Y-87983530D01*
X72443218Y-88004047D01*
X72453446Y-88025671D01*
X72461504Y-88048193D01*
X72467316Y-88071397D01*
X72470826Y-88095058D01*
X72472000Y-88118950D01*
X72472000Y-88606450D01*
X72470826Y-88630342D01*
X72467316Y-88654003D01*
X72461504Y-88677207D01*
X72453446Y-88699729D01*
X72443218Y-88721353D01*
X72430921Y-88741870D01*
X72416671Y-88761083D01*
X72400607Y-88778807D01*
X72382883Y-88794871D01*
X72363670Y-88809121D01*
X72343153Y-88821418D01*
X72321529Y-88831646D01*
X72299007Y-88839704D01*
X72275803Y-88845516D01*
X72252142Y-88849026D01*
X72228250Y-88850200D01*
X71315750Y-88850200D01*
X71291858Y-88849026D01*
X71268197Y-88845516D01*
X71244993Y-88839704D01*
X71222471Y-88831646D01*
X71200847Y-88821418D01*
X71180330Y-88809121D01*
X71161117Y-88794871D01*
X71143393Y-88778807D01*
X71127329Y-88761083D01*
X71113079Y-88741870D01*
X71100782Y-88721353D01*
X71090554Y-88699729D01*
X71082496Y-88677207D01*
X71076684Y-88654003D01*
X71073174Y-88630342D01*
X71072000Y-88606450D01*
X71072000Y-88118950D01*
X71073174Y-88095058D01*
X71076684Y-88071397D01*
X71082496Y-88048193D01*
X71090554Y-88025671D01*
X71100782Y-88004047D01*
X71113079Y-87983530D01*
X71127329Y-87964317D01*
X71143393Y-87946593D01*
X71161117Y-87930529D01*
X71180330Y-87916279D01*
X71200847Y-87903982D01*
X71222471Y-87893754D01*
X71244993Y-87885696D01*
X71268197Y-87879884D01*
X71291858Y-87876374D01*
X71315750Y-87875200D01*
X72228250Y-87875200D01*
X72252142Y-87876374D01*
X72252142Y-87876374D01*
G37*
D11*
X71772000Y-88362700D03*
D12*
X74523744Y-77213693D03*
D10*
G36*
X75283884Y-77266726D02*
G01*
X74576777Y-77973833D01*
X73763604Y-77160660D01*
X74470711Y-76453553D01*
X75283884Y-77266726D01*
X75283884Y-77266726D01*
G37*
D12*
X73286307Y-75976256D03*
D10*
G36*
X74046447Y-76029289D02*
G01*
X73339340Y-76736396D01*
X72526167Y-75923223D01*
X73233274Y-75216116D01*
X74046447Y-76029289D01*
X74046447Y-76029289D01*
G37*
D12*
X74276256Y-74986307D03*
D10*
G36*
X75036396Y-75039340D02*
G01*
X74329289Y-75746447D01*
X73516116Y-74933274D01*
X74223223Y-74226167D01*
X75036396Y-75039340D01*
X75036396Y-75039340D01*
G37*
D12*
X75513693Y-76223744D03*
D10*
G36*
X76273833Y-76276777D02*
G01*
X75566726Y-76983884D01*
X74753553Y-76170711D01*
X75460660Y-75463604D01*
X76273833Y-76276777D01*
X76273833Y-76276777D01*
G37*
D13*
X70600000Y-61000000D03*
X71400000Y-61000000D03*
X72200000Y-61000000D03*
X73000000Y-61000000D03*
X73800000Y-61000000D03*
X74600000Y-61000000D03*
X75400000Y-61000000D03*
X76200000Y-61000000D03*
X77000000Y-61000000D03*
X77800000Y-61000000D03*
X78600000Y-61000000D03*
D14*
X80300000Y-62700000D03*
X80300000Y-63500000D03*
X80300000Y-64300000D03*
X80300000Y-65100000D03*
X80300000Y-65900000D03*
X80300000Y-66700000D03*
X80300000Y-67500000D03*
X80300000Y-68300000D03*
X80300000Y-69100000D03*
X80300000Y-69900000D03*
X80300000Y-70700000D03*
D13*
X78600000Y-72400000D03*
X77800000Y-72400000D03*
X77000000Y-72400000D03*
X76200000Y-72400000D03*
X75400000Y-72400000D03*
X74600000Y-72400000D03*
X73800000Y-72400000D03*
X73000000Y-72400000D03*
X72200000Y-72400000D03*
X71400000Y-72400000D03*
X70600000Y-72400000D03*
D14*
X68900000Y-70700000D03*
X68900000Y-69900000D03*
X68900000Y-69100000D03*
X68900000Y-68300000D03*
X68900000Y-67500000D03*
X68900000Y-66700000D03*
X68900000Y-65900000D03*
X68900000Y-65100000D03*
X68900000Y-64300000D03*
X68900000Y-63500000D03*
X68900000Y-62700000D03*
D15*
X93573600Y-62447400D03*
X94523601Y-64885800D03*
X92623599Y-64885800D03*
X93624400Y-71856600D03*
X94574401Y-74295000D03*
X92674399Y-74295000D03*
X94772000Y-82731000D03*
X95722001Y-85169400D03*
X93821999Y-85169400D03*
D16*
X91821000Y-89509600D03*
X89382600Y-90459601D03*
X89382600Y-88559599D03*
X80721200Y-89484200D03*
X78282800Y-90434201D03*
X78282800Y-88534199D03*
X69545200Y-89535000D03*
X67106800Y-90485001D03*
X67106800Y-88584999D03*
D17*
X60700000Y-65150000D03*
X60700000Y-71450000D03*
X56900000Y-65150000D03*
X56900000Y-71450000D03*
D10*
G36*
X83630142Y-61501174D02*
G01*
X83653803Y-61504684D01*
X83677007Y-61510496D01*
X83699529Y-61518554D01*
X83721153Y-61528782D01*
X83741670Y-61541079D01*
X83760883Y-61555329D01*
X83778607Y-61571393D01*
X83794671Y-61589117D01*
X83808921Y-61608330D01*
X83821218Y-61628847D01*
X83831446Y-61650471D01*
X83839504Y-61672993D01*
X83845316Y-61696197D01*
X83848826Y-61719858D01*
X83850000Y-61743750D01*
X83850000Y-62656250D01*
X83848826Y-62680142D01*
X83845316Y-62703803D01*
X83839504Y-62727007D01*
X83831446Y-62749529D01*
X83821218Y-62771153D01*
X83808921Y-62791670D01*
X83794671Y-62810883D01*
X83778607Y-62828607D01*
X83760883Y-62844671D01*
X83741670Y-62858921D01*
X83721153Y-62871218D01*
X83699529Y-62881446D01*
X83677007Y-62889504D01*
X83653803Y-62895316D01*
X83630142Y-62898826D01*
X83606250Y-62900000D01*
X83118750Y-62900000D01*
X83094858Y-62898826D01*
X83071197Y-62895316D01*
X83047993Y-62889504D01*
X83025471Y-62881446D01*
X83003847Y-62871218D01*
X82983330Y-62858921D01*
X82964117Y-62844671D01*
X82946393Y-62828607D01*
X82930329Y-62810883D01*
X82916079Y-62791670D01*
X82903782Y-62771153D01*
X82893554Y-62749529D01*
X82885496Y-62727007D01*
X82879684Y-62703803D01*
X82876174Y-62680142D01*
X82875000Y-62656250D01*
X82875000Y-61743750D01*
X82876174Y-61719858D01*
X82879684Y-61696197D01*
X82885496Y-61672993D01*
X82893554Y-61650471D01*
X82903782Y-61628847D01*
X82916079Y-61608330D01*
X82930329Y-61589117D01*
X82946393Y-61571393D01*
X82964117Y-61555329D01*
X82983330Y-61541079D01*
X83003847Y-61528782D01*
X83025471Y-61518554D01*
X83047993Y-61510496D01*
X83071197Y-61504684D01*
X83094858Y-61501174D01*
X83118750Y-61500000D01*
X83606250Y-61500000D01*
X83630142Y-61501174D01*
X83630142Y-61501174D01*
G37*
D11*
X83362500Y-62200000D03*
D10*
G36*
X85505142Y-61501174D02*
G01*
X85528803Y-61504684D01*
X85552007Y-61510496D01*
X85574529Y-61518554D01*
X85596153Y-61528782D01*
X85616670Y-61541079D01*
X85635883Y-61555329D01*
X85653607Y-61571393D01*
X85669671Y-61589117D01*
X85683921Y-61608330D01*
X85696218Y-61628847D01*
X85706446Y-61650471D01*
X85714504Y-61672993D01*
X85720316Y-61696197D01*
X85723826Y-61719858D01*
X85725000Y-61743750D01*
X85725000Y-62656250D01*
X85723826Y-62680142D01*
X85720316Y-62703803D01*
X85714504Y-62727007D01*
X85706446Y-62749529D01*
X85696218Y-62771153D01*
X85683921Y-62791670D01*
X85669671Y-62810883D01*
X85653607Y-62828607D01*
X85635883Y-62844671D01*
X85616670Y-62858921D01*
X85596153Y-62871218D01*
X85574529Y-62881446D01*
X85552007Y-62889504D01*
X85528803Y-62895316D01*
X85505142Y-62898826D01*
X85481250Y-62900000D01*
X84993750Y-62900000D01*
X84969858Y-62898826D01*
X84946197Y-62895316D01*
X84922993Y-62889504D01*
X84900471Y-62881446D01*
X84878847Y-62871218D01*
X84858330Y-62858921D01*
X84839117Y-62844671D01*
X84821393Y-62828607D01*
X84805329Y-62810883D01*
X84791079Y-62791670D01*
X84778782Y-62771153D01*
X84768554Y-62749529D01*
X84760496Y-62727007D01*
X84754684Y-62703803D01*
X84751174Y-62680142D01*
X84750000Y-62656250D01*
X84750000Y-61743750D01*
X84751174Y-61719858D01*
X84754684Y-61696197D01*
X84760496Y-61672993D01*
X84768554Y-61650471D01*
X84778782Y-61628847D01*
X84791079Y-61608330D01*
X84805329Y-61589117D01*
X84821393Y-61571393D01*
X84839117Y-61555329D01*
X84858330Y-61541079D01*
X84878847Y-61528782D01*
X84900471Y-61518554D01*
X84922993Y-61510496D01*
X84946197Y-61504684D01*
X84969858Y-61501174D01*
X84993750Y-61500000D01*
X85481250Y-61500000D01*
X85505142Y-61501174D01*
X85505142Y-61501174D01*
G37*
D11*
X85237500Y-62200000D03*
D10*
G36*
X66901142Y-72587174D02*
G01*
X66924803Y-72590684D01*
X66948007Y-72596496D01*
X66970529Y-72604554D01*
X66992153Y-72614782D01*
X67012670Y-72627079D01*
X67031883Y-72641329D01*
X67049607Y-72657393D01*
X67065671Y-72675117D01*
X67079921Y-72694330D01*
X67092218Y-72714847D01*
X67102446Y-72736471D01*
X67110504Y-72758993D01*
X67116316Y-72782197D01*
X67119826Y-72805858D01*
X67121000Y-72829750D01*
X67121000Y-73317250D01*
X67119826Y-73341142D01*
X67116316Y-73364803D01*
X67110504Y-73388007D01*
X67102446Y-73410529D01*
X67092218Y-73432153D01*
X67079921Y-73452670D01*
X67065671Y-73471883D01*
X67049607Y-73489607D01*
X67031883Y-73505671D01*
X67012670Y-73519921D01*
X66992153Y-73532218D01*
X66970529Y-73542446D01*
X66948007Y-73550504D01*
X66924803Y-73556316D01*
X66901142Y-73559826D01*
X66877250Y-73561000D01*
X65964750Y-73561000D01*
X65940858Y-73559826D01*
X65917197Y-73556316D01*
X65893993Y-73550504D01*
X65871471Y-73542446D01*
X65849847Y-73532218D01*
X65829330Y-73519921D01*
X65810117Y-73505671D01*
X65792393Y-73489607D01*
X65776329Y-73471883D01*
X65762079Y-73452670D01*
X65749782Y-73432153D01*
X65739554Y-73410529D01*
X65731496Y-73388007D01*
X65725684Y-73364803D01*
X65722174Y-73341142D01*
X65721000Y-73317250D01*
X65721000Y-72829750D01*
X65722174Y-72805858D01*
X65725684Y-72782197D01*
X65731496Y-72758993D01*
X65739554Y-72736471D01*
X65749782Y-72714847D01*
X65762079Y-72694330D01*
X65776329Y-72675117D01*
X65792393Y-72657393D01*
X65810117Y-72641329D01*
X65829330Y-72627079D01*
X65849847Y-72614782D01*
X65871471Y-72604554D01*
X65893993Y-72596496D01*
X65917197Y-72590684D01*
X65940858Y-72587174D01*
X65964750Y-72586000D01*
X66877250Y-72586000D01*
X66901142Y-72587174D01*
X66901142Y-72587174D01*
G37*
D11*
X66421000Y-73073500D03*
D10*
G36*
X66901142Y-70712174D02*
G01*
X66924803Y-70715684D01*
X66948007Y-70721496D01*
X66970529Y-70729554D01*
X66992153Y-70739782D01*
X67012670Y-70752079D01*
X67031883Y-70766329D01*
X67049607Y-70782393D01*
X67065671Y-70800117D01*
X67079921Y-70819330D01*
X67092218Y-70839847D01*
X67102446Y-70861471D01*
X67110504Y-70883993D01*
X67116316Y-70907197D01*
X67119826Y-70930858D01*
X67121000Y-70954750D01*
X67121000Y-71442250D01*
X67119826Y-71466142D01*
X67116316Y-71489803D01*
X67110504Y-71513007D01*
X67102446Y-71535529D01*
X67092218Y-71557153D01*
X67079921Y-71577670D01*
X67065671Y-71596883D01*
X67049607Y-71614607D01*
X67031883Y-71630671D01*
X67012670Y-71644921D01*
X66992153Y-71657218D01*
X66970529Y-71667446D01*
X66948007Y-71675504D01*
X66924803Y-71681316D01*
X66901142Y-71684826D01*
X66877250Y-71686000D01*
X65964750Y-71686000D01*
X65940858Y-71684826D01*
X65917197Y-71681316D01*
X65893993Y-71675504D01*
X65871471Y-71667446D01*
X65849847Y-71657218D01*
X65829330Y-71644921D01*
X65810117Y-71630671D01*
X65792393Y-71614607D01*
X65776329Y-71596883D01*
X65762079Y-71577670D01*
X65749782Y-71557153D01*
X65739554Y-71535529D01*
X65731496Y-71513007D01*
X65725684Y-71489803D01*
X65722174Y-71466142D01*
X65721000Y-71442250D01*
X65721000Y-70954750D01*
X65722174Y-70930858D01*
X65725684Y-70907197D01*
X65731496Y-70883993D01*
X65739554Y-70861471D01*
X65749782Y-70839847D01*
X65762079Y-70819330D01*
X65776329Y-70800117D01*
X65792393Y-70782393D01*
X65810117Y-70766329D01*
X65829330Y-70752079D01*
X65849847Y-70739782D01*
X65871471Y-70729554D01*
X65893993Y-70721496D01*
X65917197Y-70715684D01*
X65940858Y-70712174D01*
X65964750Y-70711000D01*
X66877250Y-70711000D01*
X66901142Y-70712174D01*
X66901142Y-70712174D01*
G37*
D11*
X66421000Y-71198500D03*
D10*
G36*
X60230142Y-84551174D02*
G01*
X60253803Y-84554684D01*
X60277007Y-84560496D01*
X60299529Y-84568554D01*
X60321153Y-84578782D01*
X60341670Y-84591079D01*
X60360883Y-84605329D01*
X60378607Y-84621393D01*
X60394671Y-84639117D01*
X60408921Y-84658330D01*
X60421218Y-84678847D01*
X60431446Y-84700471D01*
X60439504Y-84722993D01*
X60445316Y-84746197D01*
X60448826Y-84769858D01*
X60450000Y-84793750D01*
X60450000Y-85281250D01*
X60448826Y-85305142D01*
X60445316Y-85328803D01*
X60439504Y-85352007D01*
X60431446Y-85374529D01*
X60421218Y-85396153D01*
X60408921Y-85416670D01*
X60394671Y-85435883D01*
X60378607Y-85453607D01*
X60360883Y-85469671D01*
X60341670Y-85483921D01*
X60321153Y-85496218D01*
X60299529Y-85506446D01*
X60277007Y-85514504D01*
X60253803Y-85520316D01*
X60230142Y-85523826D01*
X60206250Y-85525000D01*
X59293750Y-85525000D01*
X59269858Y-85523826D01*
X59246197Y-85520316D01*
X59222993Y-85514504D01*
X59200471Y-85506446D01*
X59178847Y-85496218D01*
X59158330Y-85483921D01*
X59139117Y-85469671D01*
X59121393Y-85453607D01*
X59105329Y-85435883D01*
X59091079Y-85416670D01*
X59078782Y-85396153D01*
X59068554Y-85374529D01*
X59060496Y-85352007D01*
X59054684Y-85328803D01*
X59051174Y-85305142D01*
X59050000Y-85281250D01*
X59050000Y-84793750D01*
X59051174Y-84769858D01*
X59054684Y-84746197D01*
X59060496Y-84722993D01*
X59068554Y-84700471D01*
X59078782Y-84678847D01*
X59091079Y-84658330D01*
X59105329Y-84639117D01*
X59121393Y-84621393D01*
X59139117Y-84605329D01*
X59158330Y-84591079D01*
X59178847Y-84578782D01*
X59200471Y-84568554D01*
X59222993Y-84560496D01*
X59246197Y-84554684D01*
X59269858Y-84551174D01*
X59293750Y-84550000D01*
X60206250Y-84550000D01*
X60230142Y-84551174D01*
X60230142Y-84551174D01*
G37*
D11*
X59750000Y-85037500D03*
D10*
G36*
X60230142Y-82676174D02*
G01*
X60253803Y-82679684D01*
X60277007Y-82685496D01*
X60299529Y-82693554D01*
X60321153Y-82703782D01*
X60341670Y-82716079D01*
X60360883Y-82730329D01*
X60378607Y-82746393D01*
X60394671Y-82764117D01*
X60408921Y-82783330D01*
X60421218Y-82803847D01*
X60431446Y-82825471D01*
X60439504Y-82847993D01*
X60445316Y-82871197D01*
X60448826Y-82894858D01*
X60450000Y-82918750D01*
X60450000Y-83406250D01*
X60448826Y-83430142D01*
X60445316Y-83453803D01*
X60439504Y-83477007D01*
X60431446Y-83499529D01*
X60421218Y-83521153D01*
X60408921Y-83541670D01*
X60394671Y-83560883D01*
X60378607Y-83578607D01*
X60360883Y-83594671D01*
X60341670Y-83608921D01*
X60321153Y-83621218D01*
X60299529Y-83631446D01*
X60277007Y-83639504D01*
X60253803Y-83645316D01*
X60230142Y-83648826D01*
X60206250Y-83650000D01*
X59293750Y-83650000D01*
X59269858Y-83648826D01*
X59246197Y-83645316D01*
X59222993Y-83639504D01*
X59200471Y-83631446D01*
X59178847Y-83621218D01*
X59158330Y-83608921D01*
X59139117Y-83594671D01*
X59121393Y-83578607D01*
X59105329Y-83560883D01*
X59091079Y-83541670D01*
X59078782Y-83521153D01*
X59068554Y-83499529D01*
X59060496Y-83477007D01*
X59054684Y-83453803D01*
X59051174Y-83430142D01*
X59050000Y-83406250D01*
X59050000Y-82918750D01*
X59051174Y-82894858D01*
X59054684Y-82871197D01*
X59060496Y-82847993D01*
X59068554Y-82825471D01*
X59078782Y-82803847D01*
X59091079Y-82783330D01*
X59105329Y-82764117D01*
X59121393Y-82746393D01*
X59139117Y-82730329D01*
X59158330Y-82716079D01*
X59178847Y-82703782D01*
X59200471Y-82693554D01*
X59222993Y-82685496D01*
X59246197Y-82679684D01*
X59269858Y-82676174D01*
X59293750Y-82675000D01*
X60206250Y-82675000D01*
X60230142Y-82676174D01*
X60230142Y-82676174D01*
G37*
D11*
X59750000Y-83162500D03*
D10*
G36*
X62430142Y-84451174D02*
G01*
X62453803Y-84454684D01*
X62477007Y-84460496D01*
X62499529Y-84468554D01*
X62521153Y-84478782D01*
X62541670Y-84491079D01*
X62560883Y-84505329D01*
X62578607Y-84521393D01*
X62594671Y-84539117D01*
X62608921Y-84558330D01*
X62621218Y-84578847D01*
X62631446Y-84600471D01*
X62639504Y-84622993D01*
X62645316Y-84646197D01*
X62648826Y-84669858D01*
X62650000Y-84693750D01*
X62650000Y-85181250D01*
X62648826Y-85205142D01*
X62645316Y-85228803D01*
X62639504Y-85252007D01*
X62631446Y-85274529D01*
X62621218Y-85296153D01*
X62608921Y-85316670D01*
X62594671Y-85335883D01*
X62578607Y-85353607D01*
X62560883Y-85369671D01*
X62541670Y-85383921D01*
X62521153Y-85396218D01*
X62499529Y-85406446D01*
X62477007Y-85414504D01*
X62453803Y-85420316D01*
X62430142Y-85423826D01*
X62406250Y-85425000D01*
X61493750Y-85425000D01*
X61469858Y-85423826D01*
X61446197Y-85420316D01*
X61422993Y-85414504D01*
X61400471Y-85406446D01*
X61378847Y-85396218D01*
X61358330Y-85383921D01*
X61339117Y-85369671D01*
X61321393Y-85353607D01*
X61305329Y-85335883D01*
X61291079Y-85316670D01*
X61278782Y-85296153D01*
X61268554Y-85274529D01*
X61260496Y-85252007D01*
X61254684Y-85228803D01*
X61251174Y-85205142D01*
X61250000Y-85181250D01*
X61250000Y-84693750D01*
X61251174Y-84669858D01*
X61254684Y-84646197D01*
X61260496Y-84622993D01*
X61268554Y-84600471D01*
X61278782Y-84578847D01*
X61291079Y-84558330D01*
X61305329Y-84539117D01*
X61321393Y-84521393D01*
X61339117Y-84505329D01*
X61358330Y-84491079D01*
X61378847Y-84478782D01*
X61400471Y-84468554D01*
X61422993Y-84460496D01*
X61446197Y-84454684D01*
X61469858Y-84451174D01*
X61493750Y-84450000D01*
X62406250Y-84450000D01*
X62430142Y-84451174D01*
X62430142Y-84451174D01*
G37*
D11*
X61950000Y-84937500D03*
D10*
G36*
X62430142Y-82576174D02*
G01*
X62453803Y-82579684D01*
X62477007Y-82585496D01*
X62499529Y-82593554D01*
X62521153Y-82603782D01*
X62541670Y-82616079D01*
X62560883Y-82630329D01*
X62578607Y-82646393D01*
X62594671Y-82664117D01*
X62608921Y-82683330D01*
X62621218Y-82703847D01*
X62631446Y-82725471D01*
X62639504Y-82747993D01*
X62645316Y-82771197D01*
X62648826Y-82794858D01*
X62650000Y-82818750D01*
X62650000Y-83306250D01*
X62648826Y-83330142D01*
X62645316Y-83353803D01*
X62639504Y-83377007D01*
X62631446Y-83399529D01*
X62621218Y-83421153D01*
X62608921Y-83441670D01*
X62594671Y-83460883D01*
X62578607Y-83478607D01*
X62560883Y-83494671D01*
X62541670Y-83508921D01*
X62521153Y-83521218D01*
X62499529Y-83531446D01*
X62477007Y-83539504D01*
X62453803Y-83545316D01*
X62430142Y-83548826D01*
X62406250Y-83550000D01*
X61493750Y-83550000D01*
X61469858Y-83548826D01*
X61446197Y-83545316D01*
X61422993Y-83539504D01*
X61400471Y-83531446D01*
X61378847Y-83521218D01*
X61358330Y-83508921D01*
X61339117Y-83494671D01*
X61321393Y-83478607D01*
X61305329Y-83460883D01*
X61291079Y-83441670D01*
X61278782Y-83421153D01*
X61268554Y-83399529D01*
X61260496Y-83377007D01*
X61254684Y-83353803D01*
X61251174Y-83330142D01*
X61250000Y-83306250D01*
X61250000Y-82818750D01*
X61251174Y-82794858D01*
X61254684Y-82771197D01*
X61260496Y-82747993D01*
X61268554Y-82725471D01*
X61278782Y-82703847D01*
X61291079Y-82683330D01*
X61305329Y-82664117D01*
X61321393Y-82646393D01*
X61339117Y-82630329D01*
X61358330Y-82616079D01*
X61378847Y-82603782D01*
X61400471Y-82593554D01*
X61422993Y-82585496D01*
X61446197Y-82579684D01*
X61469858Y-82576174D01*
X61493750Y-82575000D01*
X62406250Y-82575000D01*
X62430142Y-82576174D01*
X62430142Y-82576174D01*
G37*
D11*
X61950000Y-83062500D03*
D18*
X55411400Y-83354200D03*
X55411400Y-87994200D03*
D19*
X53181400Y-84549200D03*
D20*
X55831400Y-85674200D03*
X55831400Y-86324200D03*
X55831400Y-86974200D03*
X55831400Y-84374200D03*
X55831400Y-85024200D03*
D19*
X53181400Y-86799200D03*
D21*
X92475000Y-54453299D03*
X91205000Y-54453299D03*
X89935000Y-54453299D03*
X88665000Y-54453299D03*
X87395000Y-54453299D03*
X86125000Y-54453299D03*
X84855000Y-54453299D03*
X83585000Y-54453299D03*
X82315000Y-54453299D03*
X81045000Y-54453299D03*
X79775000Y-54453299D03*
X78505000Y-54453299D03*
X77235000Y-54453299D03*
X75965000Y-54453299D03*
X74695000Y-54453299D03*
X68345000Y-54453299D03*
X67075000Y-54453299D03*
X65805000Y-54453299D03*
X64535000Y-54453299D03*
X63265000Y-54453299D03*
X61995000Y-54453299D03*
X60725000Y-54453299D03*
D10*
G36*
X85480142Y-71751174D02*
G01*
X85503803Y-71754684D01*
X85527007Y-71760496D01*
X85549529Y-71768554D01*
X85571153Y-71778782D01*
X85591670Y-71791079D01*
X85610883Y-71805329D01*
X85628607Y-71821393D01*
X85644671Y-71839117D01*
X85658921Y-71858330D01*
X85671218Y-71878847D01*
X85681446Y-71900471D01*
X85689504Y-71922993D01*
X85695316Y-71946197D01*
X85698826Y-71969858D01*
X85700000Y-71993750D01*
X85700000Y-72481250D01*
X85698826Y-72505142D01*
X85695316Y-72528803D01*
X85689504Y-72552007D01*
X85681446Y-72574529D01*
X85671218Y-72596153D01*
X85658921Y-72616670D01*
X85644671Y-72635883D01*
X85628607Y-72653607D01*
X85610883Y-72669671D01*
X85591670Y-72683921D01*
X85571153Y-72696218D01*
X85549529Y-72706446D01*
X85527007Y-72714504D01*
X85503803Y-72720316D01*
X85480142Y-72723826D01*
X85456250Y-72725000D01*
X84543750Y-72725000D01*
X84519858Y-72723826D01*
X84496197Y-72720316D01*
X84472993Y-72714504D01*
X84450471Y-72706446D01*
X84428847Y-72696218D01*
X84408330Y-72683921D01*
X84389117Y-72669671D01*
X84371393Y-72653607D01*
X84355329Y-72635883D01*
X84341079Y-72616670D01*
X84328782Y-72596153D01*
X84318554Y-72574529D01*
X84310496Y-72552007D01*
X84304684Y-72528803D01*
X84301174Y-72505142D01*
X84300000Y-72481250D01*
X84300000Y-71993750D01*
X84301174Y-71969858D01*
X84304684Y-71946197D01*
X84310496Y-71922993D01*
X84318554Y-71900471D01*
X84328782Y-71878847D01*
X84341079Y-71858330D01*
X84355329Y-71839117D01*
X84371393Y-71821393D01*
X84389117Y-71805329D01*
X84408330Y-71791079D01*
X84428847Y-71778782D01*
X84450471Y-71768554D01*
X84472993Y-71760496D01*
X84496197Y-71754684D01*
X84519858Y-71751174D01*
X84543750Y-71750000D01*
X85456250Y-71750000D01*
X85480142Y-71751174D01*
X85480142Y-71751174D01*
G37*
D11*
X85000000Y-72237500D03*
D10*
G36*
X85480142Y-69876174D02*
G01*
X85503803Y-69879684D01*
X85527007Y-69885496D01*
X85549529Y-69893554D01*
X85571153Y-69903782D01*
X85591670Y-69916079D01*
X85610883Y-69930329D01*
X85628607Y-69946393D01*
X85644671Y-69964117D01*
X85658921Y-69983330D01*
X85671218Y-70003847D01*
X85681446Y-70025471D01*
X85689504Y-70047993D01*
X85695316Y-70071197D01*
X85698826Y-70094858D01*
X85700000Y-70118750D01*
X85700000Y-70606250D01*
X85698826Y-70630142D01*
X85695316Y-70653803D01*
X85689504Y-70677007D01*
X85681446Y-70699529D01*
X85671218Y-70721153D01*
X85658921Y-70741670D01*
X85644671Y-70760883D01*
X85628607Y-70778607D01*
X85610883Y-70794671D01*
X85591670Y-70808921D01*
X85571153Y-70821218D01*
X85549529Y-70831446D01*
X85527007Y-70839504D01*
X85503803Y-70845316D01*
X85480142Y-70848826D01*
X85456250Y-70850000D01*
X84543750Y-70850000D01*
X84519858Y-70848826D01*
X84496197Y-70845316D01*
X84472993Y-70839504D01*
X84450471Y-70831446D01*
X84428847Y-70821218D01*
X84408330Y-70808921D01*
X84389117Y-70794671D01*
X84371393Y-70778607D01*
X84355329Y-70760883D01*
X84341079Y-70741670D01*
X84328782Y-70721153D01*
X84318554Y-70699529D01*
X84310496Y-70677007D01*
X84304684Y-70653803D01*
X84301174Y-70630142D01*
X84300000Y-70606250D01*
X84300000Y-70118750D01*
X84301174Y-70094858D01*
X84304684Y-70071197D01*
X84310496Y-70047993D01*
X84318554Y-70025471D01*
X84328782Y-70003847D01*
X84341079Y-69983330D01*
X84355329Y-69964117D01*
X84371393Y-69946393D01*
X84389117Y-69930329D01*
X84408330Y-69916079D01*
X84428847Y-69903782D01*
X84450471Y-69893554D01*
X84472993Y-69885496D01*
X84496197Y-69879684D01*
X84519858Y-69876174D01*
X84543750Y-69875000D01*
X85456250Y-69875000D01*
X85480142Y-69876174D01*
X85480142Y-69876174D01*
G37*
D11*
X85000000Y-70362500D03*
D10*
G36*
X77530142Y-58001174D02*
G01*
X77553803Y-58004684D01*
X77577007Y-58010496D01*
X77599529Y-58018554D01*
X77621153Y-58028782D01*
X77641670Y-58041079D01*
X77660883Y-58055329D01*
X77678607Y-58071393D01*
X77694671Y-58089117D01*
X77708921Y-58108330D01*
X77721218Y-58128847D01*
X77731446Y-58150471D01*
X77739504Y-58172993D01*
X77745316Y-58196197D01*
X77748826Y-58219858D01*
X77750000Y-58243750D01*
X77750000Y-59156250D01*
X77748826Y-59180142D01*
X77745316Y-59203803D01*
X77739504Y-59227007D01*
X77731446Y-59249529D01*
X77721218Y-59271153D01*
X77708921Y-59291670D01*
X77694671Y-59310883D01*
X77678607Y-59328607D01*
X77660883Y-59344671D01*
X77641670Y-59358921D01*
X77621153Y-59371218D01*
X77599529Y-59381446D01*
X77577007Y-59389504D01*
X77553803Y-59395316D01*
X77530142Y-59398826D01*
X77506250Y-59400000D01*
X77018750Y-59400000D01*
X76994858Y-59398826D01*
X76971197Y-59395316D01*
X76947993Y-59389504D01*
X76925471Y-59381446D01*
X76903847Y-59371218D01*
X76883330Y-59358921D01*
X76864117Y-59344671D01*
X76846393Y-59328607D01*
X76830329Y-59310883D01*
X76816079Y-59291670D01*
X76803782Y-59271153D01*
X76793554Y-59249529D01*
X76785496Y-59227007D01*
X76779684Y-59203803D01*
X76776174Y-59180142D01*
X76775000Y-59156250D01*
X76775000Y-58243750D01*
X76776174Y-58219858D01*
X76779684Y-58196197D01*
X76785496Y-58172993D01*
X76793554Y-58150471D01*
X76803782Y-58128847D01*
X76816079Y-58108330D01*
X76830329Y-58089117D01*
X76846393Y-58071393D01*
X76864117Y-58055329D01*
X76883330Y-58041079D01*
X76903847Y-58028782D01*
X76925471Y-58018554D01*
X76947993Y-58010496D01*
X76971197Y-58004684D01*
X76994858Y-58001174D01*
X77018750Y-58000000D01*
X77506250Y-58000000D01*
X77530142Y-58001174D01*
X77530142Y-58001174D01*
G37*
D11*
X77262500Y-58700000D03*
D10*
G36*
X79405142Y-58001174D02*
G01*
X79428803Y-58004684D01*
X79452007Y-58010496D01*
X79474529Y-58018554D01*
X79496153Y-58028782D01*
X79516670Y-58041079D01*
X79535883Y-58055329D01*
X79553607Y-58071393D01*
X79569671Y-58089117D01*
X79583921Y-58108330D01*
X79596218Y-58128847D01*
X79606446Y-58150471D01*
X79614504Y-58172993D01*
X79620316Y-58196197D01*
X79623826Y-58219858D01*
X79625000Y-58243750D01*
X79625000Y-59156250D01*
X79623826Y-59180142D01*
X79620316Y-59203803D01*
X79614504Y-59227007D01*
X79606446Y-59249529D01*
X79596218Y-59271153D01*
X79583921Y-59291670D01*
X79569671Y-59310883D01*
X79553607Y-59328607D01*
X79535883Y-59344671D01*
X79516670Y-59358921D01*
X79496153Y-59371218D01*
X79474529Y-59381446D01*
X79452007Y-59389504D01*
X79428803Y-59395316D01*
X79405142Y-59398826D01*
X79381250Y-59400000D01*
X78893750Y-59400000D01*
X78869858Y-59398826D01*
X78846197Y-59395316D01*
X78822993Y-59389504D01*
X78800471Y-59381446D01*
X78778847Y-59371218D01*
X78758330Y-59358921D01*
X78739117Y-59344671D01*
X78721393Y-59328607D01*
X78705329Y-59310883D01*
X78691079Y-59291670D01*
X78678782Y-59271153D01*
X78668554Y-59249529D01*
X78660496Y-59227007D01*
X78654684Y-59203803D01*
X78651174Y-59180142D01*
X78650000Y-59156250D01*
X78650000Y-58243750D01*
X78651174Y-58219858D01*
X78654684Y-58196197D01*
X78660496Y-58172993D01*
X78668554Y-58150471D01*
X78678782Y-58128847D01*
X78691079Y-58108330D01*
X78705329Y-58089117D01*
X78721393Y-58071393D01*
X78739117Y-58055329D01*
X78758330Y-58041079D01*
X78778847Y-58028782D01*
X78800471Y-58018554D01*
X78822993Y-58010496D01*
X78846197Y-58004684D01*
X78869858Y-58001174D01*
X78893750Y-58000000D01*
X79381250Y-58000000D01*
X79405142Y-58001174D01*
X79405142Y-58001174D01*
G37*
D11*
X79137500Y-58700000D03*
D10*
G36*
X72305142Y-57701174D02*
G01*
X72328803Y-57704684D01*
X72352007Y-57710496D01*
X72374529Y-57718554D01*
X72396153Y-57728782D01*
X72416670Y-57741079D01*
X72435883Y-57755329D01*
X72453607Y-57771393D01*
X72469671Y-57789117D01*
X72483921Y-57808330D01*
X72496218Y-57828847D01*
X72506446Y-57850471D01*
X72514504Y-57872993D01*
X72520316Y-57896197D01*
X72523826Y-57919858D01*
X72525000Y-57943750D01*
X72525000Y-58856250D01*
X72523826Y-58880142D01*
X72520316Y-58903803D01*
X72514504Y-58927007D01*
X72506446Y-58949529D01*
X72496218Y-58971153D01*
X72483921Y-58991670D01*
X72469671Y-59010883D01*
X72453607Y-59028607D01*
X72435883Y-59044671D01*
X72416670Y-59058921D01*
X72396153Y-59071218D01*
X72374529Y-59081446D01*
X72352007Y-59089504D01*
X72328803Y-59095316D01*
X72305142Y-59098826D01*
X72281250Y-59100000D01*
X71793750Y-59100000D01*
X71769858Y-59098826D01*
X71746197Y-59095316D01*
X71722993Y-59089504D01*
X71700471Y-59081446D01*
X71678847Y-59071218D01*
X71658330Y-59058921D01*
X71639117Y-59044671D01*
X71621393Y-59028607D01*
X71605329Y-59010883D01*
X71591079Y-58991670D01*
X71578782Y-58971153D01*
X71568554Y-58949529D01*
X71560496Y-58927007D01*
X71554684Y-58903803D01*
X71551174Y-58880142D01*
X71550000Y-58856250D01*
X71550000Y-57943750D01*
X71551174Y-57919858D01*
X71554684Y-57896197D01*
X71560496Y-57872993D01*
X71568554Y-57850471D01*
X71578782Y-57828847D01*
X71591079Y-57808330D01*
X71605329Y-57789117D01*
X71621393Y-57771393D01*
X71639117Y-57755329D01*
X71658330Y-57741079D01*
X71678847Y-57728782D01*
X71700471Y-57718554D01*
X71722993Y-57710496D01*
X71746197Y-57704684D01*
X71769858Y-57701174D01*
X71793750Y-57700000D01*
X72281250Y-57700000D01*
X72305142Y-57701174D01*
X72305142Y-57701174D01*
G37*
D11*
X72037500Y-58400000D03*
D10*
G36*
X70430142Y-57701174D02*
G01*
X70453803Y-57704684D01*
X70477007Y-57710496D01*
X70499529Y-57718554D01*
X70521153Y-57728782D01*
X70541670Y-57741079D01*
X70560883Y-57755329D01*
X70578607Y-57771393D01*
X70594671Y-57789117D01*
X70608921Y-57808330D01*
X70621218Y-57828847D01*
X70631446Y-57850471D01*
X70639504Y-57872993D01*
X70645316Y-57896197D01*
X70648826Y-57919858D01*
X70650000Y-57943750D01*
X70650000Y-58856250D01*
X70648826Y-58880142D01*
X70645316Y-58903803D01*
X70639504Y-58927007D01*
X70631446Y-58949529D01*
X70621218Y-58971153D01*
X70608921Y-58991670D01*
X70594671Y-59010883D01*
X70578607Y-59028607D01*
X70560883Y-59044671D01*
X70541670Y-59058921D01*
X70521153Y-59071218D01*
X70499529Y-59081446D01*
X70477007Y-59089504D01*
X70453803Y-59095316D01*
X70430142Y-59098826D01*
X70406250Y-59100000D01*
X69918750Y-59100000D01*
X69894858Y-59098826D01*
X69871197Y-59095316D01*
X69847993Y-59089504D01*
X69825471Y-59081446D01*
X69803847Y-59071218D01*
X69783330Y-59058921D01*
X69764117Y-59044671D01*
X69746393Y-59028607D01*
X69730329Y-59010883D01*
X69716079Y-58991670D01*
X69703782Y-58971153D01*
X69693554Y-58949529D01*
X69685496Y-58927007D01*
X69679684Y-58903803D01*
X69676174Y-58880142D01*
X69675000Y-58856250D01*
X69675000Y-57943750D01*
X69676174Y-57919858D01*
X69679684Y-57896197D01*
X69685496Y-57872993D01*
X69693554Y-57850471D01*
X69703782Y-57828847D01*
X69716079Y-57808330D01*
X69730329Y-57789117D01*
X69746393Y-57771393D01*
X69764117Y-57755329D01*
X69783330Y-57741079D01*
X69803847Y-57728782D01*
X69825471Y-57718554D01*
X69847993Y-57710496D01*
X69871197Y-57704684D01*
X69894858Y-57701174D01*
X69918750Y-57700000D01*
X70406250Y-57700000D01*
X70430142Y-57701174D01*
X70430142Y-57701174D01*
G37*
D11*
X70162500Y-58400000D03*
D10*
G36*
X70227142Y-74951374D02*
G01*
X70250803Y-74954884D01*
X70274007Y-74960696D01*
X70296529Y-74968754D01*
X70318153Y-74978982D01*
X70338670Y-74991279D01*
X70357883Y-75005529D01*
X70375607Y-75021593D01*
X70391671Y-75039317D01*
X70405921Y-75058530D01*
X70418218Y-75079047D01*
X70428446Y-75100671D01*
X70436504Y-75123193D01*
X70442316Y-75146397D01*
X70445826Y-75170058D01*
X70447000Y-75193950D01*
X70447000Y-76106450D01*
X70445826Y-76130342D01*
X70442316Y-76154003D01*
X70436504Y-76177207D01*
X70428446Y-76199729D01*
X70418218Y-76221353D01*
X70405921Y-76241870D01*
X70391671Y-76261083D01*
X70375607Y-76278807D01*
X70357883Y-76294871D01*
X70338670Y-76309121D01*
X70318153Y-76321418D01*
X70296529Y-76331646D01*
X70274007Y-76339704D01*
X70250803Y-76345516D01*
X70227142Y-76349026D01*
X70203250Y-76350200D01*
X69715750Y-76350200D01*
X69691858Y-76349026D01*
X69668197Y-76345516D01*
X69644993Y-76339704D01*
X69622471Y-76331646D01*
X69600847Y-76321418D01*
X69580330Y-76309121D01*
X69561117Y-76294871D01*
X69543393Y-76278807D01*
X69527329Y-76261083D01*
X69513079Y-76241870D01*
X69500782Y-76221353D01*
X69490554Y-76199729D01*
X69482496Y-76177207D01*
X69476684Y-76154003D01*
X69473174Y-76130342D01*
X69472000Y-76106450D01*
X69472000Y-75193950D01*
X69473174Y-75170058D01*
X69476684Y-75146397D01*
X69482496Y-75123193D01*
X69490554Y-75100671D01*
X69500782Y-75079047D01*
X69513079Y-75058530D01*
X69527329Y-75039317D01*
X69543393Y-75021593D01*
X69561117Y-75005529D01*
X69580330Y-74991279D01*
X69600847Y-74978982D01*
X69622471Y-74968754D01*
X69644993Y-74960696D01*
X69668197Y-74954884D01*
X69691858Y-74951374D01*
X69715750Y-74950200D01*
X70203250Y-74950200D01*
X70227142Y-74951374D01*
X70227142Y-74951374D01*
G37*
D11*
X69959500Y-75650200D03*
D10*
G36*
X68352142Y-74951374D02*
G01*
X68375803Y-74954884D01*
X68399007Y-74960696D01*
X68421529Y-74968754D01*
X68443153Y-74978982D01*
X68463670Y-74991279D01*
X68482883Y-75005529D01*
X68500607Y-75021593D01*
X68516671Y-75039317D01*
X68530921Y-75058530D01*
X68543218Y-75079047D01*
X68553446Y-75100671D01*
X68561504Y-75123193D01*
X68567316Y-75146397D01*
X68570826Y-75170058D01*
X68572000Y-75193950D01*
X68572000Y-76106450D01*
X68570826Y-76130342D01*
X68567316Y-76154003D01*
X68561504Y-76177207D01*
X68553446Y-76199729D01*
X68543218Y-76221353D01*
X68530921Y-76241870D01*
X68516671Y-76261083D01*
X68500607Y-76278807D01*
X68482883Y-76294871D01*
X68463670Y-76309121D01*
X68443153Y-76321418D01*
X68421529Y-76331646D01*
X68399007Y-76339704D01*
X68375803Y-76345516D01*
X68352142Y-76349026D01*
X68328250Y-76350200D01*
X67840750Y-76350200D01*
X67816858Y-76349026D01*
X67793197Y-76345516D01*
X67769993Y-76339704D01*
X67747471Y-76331646D01*
X67725847Y-76321418D01*
X67705330Y-76309121D01*
X67686117Y-76294871D01*
X67668393Y-76278807D01*
X67652329Y-76261083D01*
X67638079Y-76241870D01*
X67625782Y-76221353D01*
X67615554Y-76199729D01*
X67607496Y-76177207D01*
X67601684Y-76154003D01*
X67598174Y-76130342D01*
X67597000Y-76106450D01*
X67597000Y-75193950D01*
X67598174Y-75170058D01*
X67601684Y-75146397D01*
X67607496Y-75123193D01*
X67615554Y-75100671D01*
X67625782Y-75079047D01*
X67638079Y-75058530D01*
X67652329Y-75039317D01*
X67668393Y-75021593D01*
X67686117Y-75005529D01*
X67705330Y-74991279D01*
X67725847Y-74978982D01*
X67747471Y-74968754D01*
X67769993Y-74960696D01*
X67793197Y-74954884D01*
X67816858Y-74951374D01*
X67840750Y-74950200D01*
X68328250Y-74950200D01*
X68352142Y-74951374D01*
X68352142Y-74951374D01*
G37*
D11*
X68084500Y-75650200D03*
D10*
G36*
X65430142Y-66976174D02*
G01*
X65453803Y-66979684D01*
X65477007Y-66985496D01*
X65499529Y-66993554D01*
X65521153Y-67003782D01*
X65541670Y-67016079D01*
X65560883Y-67030329D01*
X65578607Y-67046393D01*
X65594671Y-67064117D01*
X65608921Y-67083330D01*
X65621218Y-67103847D01*
X65631446Y-67125471D01*
X65639504Y-67147993D01*
X65645316Y-67171197D01*
X65648826Y-67194858D01*
X65650000Y-67218750D01*
X65650000Y-67706250D01*
X65648826Y-67730142D01*
X65645316Y-67753803D01*
X65639504Y-67777007D01*
X65631446Y-67799529D01*
X65621218Y-67821153D01*
X65608921Y-67841670D01*
X65594671Y-67860883D01*
X65578607Y-67878607D01*
X65560883Y-67894671D01*
X65541670Y-67908921D01*
X65521153Y-67921218D01*
X65499529Y-67931446D01*
X65477007Y-67939504D01*
X65453803Y-67945316D01*
X65430142Y-67948826D01*
X65406250Y-67950000D01*
X64493750Y-67950000D01*
X64469858Y-67948826D01*
X64446197Y-67945316D01*
X64422993Y-67939504D01*
X64400471Y-67931446D01*
X64378847Y-67921218D01*
X64358330Y-67908921D01*
X64339117Y-67894671D01*
X64321393Y-67878607D01*
X64305329Y-67860883D01*
X64291079Y-67841670D01*
X64278782Y-67821153D01*
X64268554Y-67799529D01*
X64260496Y-67777007D01*
X64254684Y-67753803D01*
X64251174Y-67730142D01*
X64250000Y-67706250D01*
X64250000Y-67218750D01*
X64251174Y-67194858D01*
X64254684Y-67171197D01*
X64260496Y-67147993D01*
X64268554Y-67125471D01*
X64278782Y-67103847D01*
X64291079Y-67083330D01*
X64305329Y-67064117D01*
X64321393Y-67046393D01*
X64339117Y-67030329D01*
X64358330Y-67016079D01*
X64378847Y-67003782D01*
X64400471Y-66993554D01*
X64422993Y-66985496D01*
X64446197Y-66979684D01*
X64469858Y-66976174D01*
X64493750Y-66975000D01*
X65406250Y-66975000D01*
X65430142Y-66976174D01*
X65430142Y-66976174D01*
G37*
D11*
X64950000Y-67462500D03*
D10*
G36*
X65430142Y-68851174D02*
G01*
X65453803Y-68854684D01*
X65477007Y-68860496D01*
X65499529Y-68868554D01*
X65521153Y-68878782D01*
X65541670Y-68891079D01*
X65560883Y-68905329D01*
X65578607Y-68921393D01*
X65594671Y-68939117D01*
X65608921Y-68958330D01*
X65621218Y-68978847D01*
X65631446Y-69000471D01*
X65639504Y-69022993D01*
X65645316Y-69046197D01*
X65648826Y-69069858D01*
X65650000Y-69093750D01*
X65650000Y-69581250D01*
X65648826Y-69605142D01*
X65645316Y-69628803D01*
X65639504Y-69652007D01*
X65631446Y-69674529D01*
X65621218Y-69696153D01*
X65608921Y-69716670D01*
X65594671Y-69735883D01*
X65578607Y-69753607D01*
X65560883Y-69769671D01*
X65541670Y-69783921D01*
X65521153Y-69796218D01*
X65499529Y-69806446D01*
X65477007Y-69814504D01*
X65453803Y-69820316D01*
X65430142Y-69823826D01*
X65406250Y-69825000D01*
X64493750Y-69825000D01*
X64469858Y-69823826D01*
X64446197Y-69820316D01*
X64422993Y-69814504D01*
X64400471Y-69806446D01*
X64378847Y-69796218D01*
X64358330Y-69783921D01*
X64339117Y-69769671D01*
X64321393Y-69753607D01*
X64305329Y-69735883D01*
X64291079Y-69716670D01*
X64278782Y-69696153D01*
X64268554Y-69674529D01*
X64260496Y-69652007D01*
X64254684Y-69628803D01*
X64251174Y-69605142D01*
X64250000Y-69581250D01*
X64250000Y-69093750D01*
X64251174Y-69069858D01*
X64254684Y-69046197D01*
X64260496Y-69022993D01*
X64268554Y-69000471D01*
X64278782Y-68978847D01*
X64291079Y-68958330D01*
X64305329Y-68939117D01*
X64321393Y-68921393D01*
X64339117Y-68905329D01*
X64358330Y-68891079D01*
X64378847Y-68878782D01*
X64400471Y-68868554D01*
X64422993Y-68860496D01*
X64446197Y-68854684D01*
X64469858Y-68851174D01*
X64493750Y-68850000D01*
X65406250Y-68850000D01*
X65430142Y-68851174D01*
X65430142Y-68851174D01*
G37*
D11*
X64950000Y-69337500D03*
D10*
G36*
X83180142Y-71751174D02*
G01*
X83203803Y-71754684D01*
X83227007Y-71760496D01*
X83249529Y-71768554D01*
X83271153Y-71778782D01*
X83291670Y-71791079D01*
X83310883Y-71805329D01*
X83328607Y-71821393D01*
X83344671Y-71839117D01*
X83358921Y-71858330D01*
X83371218Y-71878847D01*
X83381446Y-71900471D01*
X83389504Y-71922993D01*
X83395316Y-71946197D01*
X83398826Y-71969858D01*
X83400000Y-71993750D01*
X83400000Y-72481250D01*
X83398826Y-72505142D01*
X83395316Y-72528803D01*
X83389504Y-72552007D01*
X83381446Y-72574529D01*
X83371218Y-72596153D01*
X83358921Y-72616670D01*
X83344671Y-72635883D01*
X83328607Y-72653607D01*
X83310883Y-72669671D01*
X83291670Y-72683921D01*
X83271153Y-72696218D01*
X83249529Y-72706446D01*
X83227007Y-72714504D01*
X83203803Y-72720316D01*
X83180142Y-72723826D01*
X83156250Y-72725000D01*
X82243750Y-72725000D01*
X82219858Y-72723826D01*
X82196197Y-72720316D01*
X82172993Y-72714504D01*
X82150471Y-72706446D01*
X82128847Y-72696218D01*
X82108330Y-72683921D01*
X82089117Y-72669671D01*
X82071393Y-72653607D01*
X82055329Y-72635883D01*
X82041079Y-72616670D01*
X82028782Y-72596153D01*
X82018554Y-72574529D01*
X82010496Y-72552007D01*
X82004684Y-72528803D01*
X82001174Y-72505142D01*
X82000000Y-72481250D01*
X82000000Y-71993750D01*
X82001174Y-71969858D01*
X82004684Y-71946197D01*
X82010496Y-71922993D01*
X82018554Y-71900471D01*
X82028782Y-71878847D01*
X82041079Y-71858330D01*
X82055329Y-71839117D01*
X82071393Y-71821393D01*
X82089117Y-71805329D01*
X82108330Y-71791079D01*
X82128847Y-71778782D01*
X82150471Y-71768554D01*
X82172993Y-71760496D01*
X82196197Y-71754684D01*
X82219858Y-71751174D01*
X82243750Y-71750000D01*
X83156250Y-71750000D01*
X83180142Y-71751174D01*
X83180142Y-71751174D01*
G37*
D11*
X82700000Y-72237500D03*
D10*
G36*
X83180142Y-69876174D02*
G01*
X83203803Y-69879684D01*
X83227007Y-69885496D01*
X83249529Y-69893554D01*
X83271153Y-69903782D01*
X83291670Y-69916079D01*
X83310883Y-69930329D01*
X83328607Y-69946393D01*
X83344671Y-69964117D01*
X83358921Y-69983330D01*
X83371218Y-70003847D01*
X83381446Y-70025471D01*
X83389504Y-70047993D01*
X83395316Y-70071197D01*
X83398826Y-70094858D01*
X83400000Y-70118750D01*
X83400000Y-70606250D01*
X83398826Y-70630142D01*
X83395316Y-70653803D01*
X83389504Y-70677007D01*
X83381446Y-70699529D01*
X83371218Y-70721153D01*
X83358921Y-70741670D01*
X83344671Y-70760883D01*
X83328607Y-70778607D01*
X83310883Y-70794671D01*
X83291670Y-70808921D01*
X83271153Y-70821218D01*
X83249529Y-70831446D01*
X83227007Y-70839504D01*
X83203803Y-70845316D01*
X83180142Y-70848826D01*
X83156250Y-70850000D01*
X82243750Y-70850000D01*
X82219858Y-70848826D01*
X82196197Y-70845316D01*
X82172993Y-70839504D01*
X82150471Y-70831446D01*
X82128847Y-70821218D01*
X82108330Y-70808921D01*
X82089117Y-70794671D01*
X82071393Y-70778607D01*
X82055329Y-70760883D01*
X82041079Y-70741670D01*
X82028782Y-70721153D01*
X82018554Y-70699529D01*
X82010496Y-70677007D01*
X82004684Y-70653803D01*
X82001174Y-70630142D01*
X82000000Y-70606250D01*
X82000000Y-70118750D01*
X82001174Y-70094858D01*
X82004684Y-70071197D01*
X82010496Y-70047993D01*
X82018554Y-70025471D01*
X82028782Y-70003847D01*
X82041079Y-69983330D01*
X82055329Y-69964117D01*
X82071393Y-69946393D01*
X82089117Y-69930329D01*
X82108330Y-69916079D01*
X82128847Y-69903782D01*
X82150471Y-69893554D01*
X82172993Y-69885496D01*
X82196197Y-69879684D01*
X82219858Y-69876174D01*
X82243750Y-69875000D01*
X83156250Y-69875000D01*
X83180142Y-69876174D01*
X83180142Y-69876174D01*
G37*
D11*
X82700000Y-70362500D03*
D10*
G36*
X65430142Y-63376174D02*
G01*
X65453803Y-63379684D01*
X65477007Y-63385496D01*
X65499529Y-63393554D01*
X65521153Y-63403782D01*
X65541670Y-63416079D01*
X65560883Y-63430329D01*
X65578607Y-63446393D01*
X65594671Y-63464117D01*
X65608921Y-63483330D01*
X65621218Y-63503847D01*
X65631446Y-63525471D01*
X65639504Y-63547993D01*
X65645316Y-63571197D01*
X65648826Y-63594858D01*
X65650000Y-63618750D01*
X65650000Y-64106250D01*
X65648826Y-64130142D01*
X65645316Y-64153803D01*
X65639504Y-64177007D01*
X65631446Y-64199529D01*
X65621218Y-64221153D01*
X65608921Y-64241670D01*
X65594671Y-64260883D01*
X65578607Y-64278607D01*
X65560883Y-64294671D01*
X65541670Y-64308921D01*
X65521153Y-64321218D01*
X65499529Y-64331446D01*
X65477007Y-64339504D01*
X65453803Y-64345316D01*
X65430142Y-64348826D01*
X65406250Y-64350000D01*
X64493750Y-64350000D01*
X64469858Y-64348826D01*
X64446197Y-64345316D01*
X64422993Y-64339504D01*
X64400471Y-64331446D01*
X64378847Y-64321218D01*
X64358330Y-64308921D01*
X64339117Y-64294671D01*
X64321393Y-64278607D01*
X64305329Y-64260883D01*
X64291079Y-64241670D01*
X64278782Y-64221153D01*
X64268554Y-64199529D01*
X64260496Y-64177007D01*
X64254684Y-64153803D01*
X64251174Y-64130142D01*
X64250000Y-64106250D01*
X64250000Y-63618750D01*
X64251174Y-63594858D01*
X64254684Y-63571197D01*
X64260496Y-63547993D01*
X64268554Y-63525471D01*
X64278782Y-63503847D01*
X64291079Y-63483330D01*
X64305329Y-63464117D01*
X64321393Y-63446393D01*
X64339117Y-63430329D01*
X64358330Y-63416079D01*
X64378847Y-63403782D01*
X64400471Y-63393554D01*
X64422993Y-63385496D01*
X64446197Y-63379684D01*
X64469858Y-63376174D01*
X64493750Y-63375000D01*
X65406250Y-63375000D01*
X65430142Y-63376174D01*
X65430142Y-63376174D01*
G37*
D11*
X64950000Y-63862500D03*
D10*
G36*
X65430142Y-65251174D02*
G01*
X65453803Y-65254684D01*
X65477007Y-65260496D01*
X65499529Y-65268554D01*
X65521153Y-65278782D01*
X65541670Y-65291079D01*
X65560883Y-65305329D01*
X65578607Y-65321393D01*
X65594671Y-65339117D01*
X65608921Y-65358330D01*
X65621218Y-65378847D01*
X65631446Y-65400471D01*
X65639504Y-65422993D01*
X65645316Y-65446197D01*
X65648826Y-65469858D01*
X65650000Y-65493750D01*
X65650000Y-65981250D01*
X65648826Y-66005142D01*
X65645316Y-66028803D01*
X65639504Y-66052007D01*
X65631446Y-66074529D01*
X65621218Y-66096153D01*
X65608921Y-66116670D01*
X65594671Y-66135883D01*
X65578607Y-66153607D01*
X65560883Y-66169671D01*
X65541670Y-66183921D01*
X65521153Y-66196218D01*
X65499529Y-66206446D01*
X65477007Y-66214504D01*
X65453803Y-66220316D01*
X65430142Y-66223826D01*
X65406250Y-66225000D01*
X64493750Y-66225000D01*
X64469858Y-66223826D01*
X64446197Y-66220316D01*
X64422993Y-66214504D01*
X64400471Y-66206446D01*
X64378847Y-66196218D01*
X64358330Y-66183921D01*
X64339117Y-66169671D01*
X64321393Y-66153607D01*
X64305329Y-66135883D01*
X64291079Y-66116670D01*
X64278782Y-66096153D01*
X64268554Y-66074529D01*
X64260496Y-66052007D01*
X64254684Y-66028803D01*
X64251174Y-66005142D01*
X64250000Y-65981250D01*
X64250000Y-65493750D01*
X64251174Y-65469858D01*
X64254684Y-65446197D01*
X64260496Y-65422993D01*
X64268554Y-65400471D01*
X64278782Y-65378847D01*
X64291079Y-65358330D01*
X64305329Y-65339117D01*
X64321393Y-65321393D01*
X64339117Y-65305329D01*
X64358330Y-65291079D01*
X64378847Y-65278782D01*
X64400471Y-65268554D01*
X64422993Y-65260496D01*
X64446197Y-65254684D01*
X64469858Y-65251174D01*
X64493750Y-65250000D01*
X65406250Y-65250000D01*
X65430142Y-65251174D01*
X65430142Y-65251174D01*
G37*
D11*
X64950000Y-65737500D03*
D10*
G36*
X71811239Y-76799536D02*
G01*
X71834900Y-76803046D01*
X71858104Y-76808858D01*
X71880626Y-76816916D01*
X71902250Y-76827144D01*
X71922767Y-76839441D01*
X71941980Y-76853691D01*
X71959704Y-76869755D01*
X72304419Y-77214470D01*
X72320483Y-77232194D01*
X72334733Y-77251407D01*
X72347030Y-77271924D01*
X72357258Y-77293548D01*
X72365316Y-77316070D01*
X72371128Y-77339274D01*
X72374638Y-77362935D01*
X72375812Y-77386827D01*
X72374638Y-77410719D01*
X72371128Y-77434380D01*
X72365316Y-77457584D01*
X72357258Y-77480106D01*
X72347030Y-77501730D01*
X72334733Y-77522247D01*
X72320483Y-77541460D01*
X72304419Y-77559184D01*
X71659184Y-78204419D01*
X71641460Y-78220483D01*
X71622247Y-78234733D01*
X71601730Y-78247030D01*
X71580106Y-78257258D01*
X71557584Y-78265316D01*
X71534380Y-78271128D01*
X71510719Y-78274638D01*
X71486827Y-78275812D01*
X71462935Y-78274638D01*
X71439274Y-78271128D01*
X71416070Y-78265316D01*
X71393548Y-78257258D01*
X71371924Y-78247030D01*
X71351407Y-78234733D01*
X71332194Y-78220483D01*
X71314470Y-78204419D01*
X70969755Y-77859704D01*
X70953691Y-77841980D01*
X70939441Y-77822767D01*
X70927144Y-77802250D01*
X70916916Y-77780626D01*
X70908858Y-77758104D01*
X70903046Y-77734900D01*
X70899536Y-77711239D01*
X70898362Y-77687347D01*
X70899536Y-77663455D01*
X70903046Y-77639794D01*
X70908858Y-77616590D01*
X70916916Y-77594068D01*
X70927144Y-77572444D01*
X70939441Y-77551927D01*
X70953691Y-77532714D01*
X70969755Y-77514990D01*
X71614990Y-76869755D01*
X71632714Y-76853691D01*
X71651927Y-76839441D01*
X71672444Y-76827144D01*
X71694068Y-76816916D01*
X71716590Y-76808858D01*
X71739794Y-76803046D01*
X71763455Y-76799536D01*
X71787347Y-76798362D01*
X71811239Y-76799536D01*
X71811239Y-76799536D01*
G37*
D11*
X71637087Y-77537087D03*
D10*
G36*
X73137065Y-78125362D02*
G01*
X73160726Y-78128872D01*
X73183930Y-78134684D01*
X73206452Y-78142742D01*
X73228076Y-78152970D01*
X73248593Y-78165267D01*
X73267806Y-78179517D01*
X73285530Y-78195581D01*
X73630245Y-78540296D01*
X73646309Y-78558020D01*
X73660559Y-78577233D01*
X73672856Y-78597750D01*
X73683084Y-78619374D01*
X73691142Y-78641896D01*
X73696954Y-78665100D01*
X73700464Y-78688761D01*
X73701638Y-78712653D01*
X73700464Y-78736545D01*
X73696954Y-78760206D01*
X73691142Y-78783410D01*
X73683084Y-78805932D01*
X73672856Y-78827556D01*
X73660559Y-78848073D01*
X73646309Y-78867286D01*
X73630245Y-78885010D01*
X72985010Y-79530245D01*
X72967286Y-79546309D01*
X72948073Y-79560559D01*
X72927556Y-79572856D01*
X72905932Y-79583084D01*
X72883410Y-79591142D01*
X72860206Y-79596954D01*
X72836545Y-79600464D01*
X72812653Y-79601638D01*
X72788761Y-79600464D01*
X72765100Y-79596954D01*
X72741896Y-79591142D01*
X72719374Y-79583084D01*
X72697750Y-79572856D01*
X72677233Y-79560559D01*
X72658020Y-79546309D01*
X72640296Y-79530245D01*
X72295581Y-79185530D01*
X72279517Y-79167806D01*
X72265267Y-79148593D01*
X72252970Y-79128076D01*
X72242742Y-79106452D01*
X72234684Y-79083930D01*
X72228872Y-79060726D01*
X72225362Y-79037065D01*
X72224188Y-79013173D01*
X72225362Y-78989281D01*
X72228872Y-78965620D01*
X72234684Y-78942416D01*
X72242742Y-78919894D01*
X72252970Y-78898270D01*
X72265267Y-78877753D01*
X72279517Y-78858540D01*
X72295581Y-78840816D01*
X72940816Y-78195581D01*
X72958540Y-78179517D01*
X72977753Y-78165267D01*
X72998270Y-78152970D01*
X73019894Y-78142742D01*
X73042416Y-78134684D01*
X73065620Y-78128872D01*
X73089281Y-78125362D01*
X73113173Y-78124188D01*
X73137065Y-78125362D01*
X73137065Y-78125362D01*
G37*
D11*
X72962913Y-78862913D03*
D10*
G36*
X75910719Y-78225362D02*
G01*
X75934380Y-78228872D01*
X75957584Y-78234684D01*
X75980106Y-78242742D01*
X76001730Y-78252970D01*
X76022247Y-78265267D01*
X76041460Y-78279517D01*
X76059184Y-78295581D01*
X76704419Y-78940816D01*
X76720483Y-78958540D01*
X76734733Y-78977753D01*
X76747030Y-78998270D01*
X76757258Y-79019894D01*
X76765316Y-79042416D01*
X76771128Y-79065620D01*
X76774638Y-79089281D01*
X76775812Y-79113173D01*
X76774638Y-79137065D01*
X76771128Y-79160726D01*
X76765316Y-79183930D01*
X76757258Y-79206452D01*
X76747030Y-79228076D01*
X76734733Y-79248593D01*
X76720483Y-79267806D01*
X76704419Y-79285530D01*
X76359704Y-79630245D01*
X76341980Y-79646309D01*
X76322767Y-79660559D01*
X76302250Y-79672856D01*
X76280626Y-79683084D01*
X76258104Y-79691142D01*
X76234900Y-79696954D01*
X76211239Y-79700464D01*
X76187347Y-79701638D01*
X76163455Y-79700464D01*
X76139794Y-79696954D01*
X76116590Y-79691142D01*
X76094068Y-79683084D01*
X76072444Y-79672856D01*
X76051927Y-79660559D01*
X76032714Y-79646309D01*
X76014990Y-79630245D01*
X75369755Y-78985010D01*
X75353691Y-78967286D01*
X75339441Y-78948073D01*
X75327144Y-78927556D01*
X75316916Y-78905932D01*
X75308858Y-78883410D01*
X75303046Y-78860206D01*
X75299536Y-78836545D01*
X75298362Y-78812653D01*
X75299536Y-78788761D01*
X75303046Y-78765100D01*
X75308858Y-78741896D01*
X75316916Y-78719374D01*
X75327144Y-78697750D01*
X75339441Y-78677233D01*
X75353691Y-78658020D01*
X75369755Y-78640296D01*
X75714470Y-78295581D01*
X75732194Y-78279517D01*
X75751407Y-78265267D01*
X75771924Y-78252970D01*
X75793548Y-78242742D01*
X75816070Y-78234684D01*
X75839274Y-78228872D01*
X75862935Y-78225362D01*
X75886827Y-78224188D01*
X75910719Y-78225362D01*
X75910719Y-78225362D01*
G37*
D11*
X76037087Y-78962913D03*
D10*
G36*
X77236545Y-76899536D02*
G01*
X77260206Y-76903046D01*
X77283410Y-76908858D01*
X77305932Y-76916916D01*
X77327556Y-76927144D01*
X77348073Y-76939441D01*
X77367286Y-76953691D01*
X77385010Y-76969755D01*
X78030245Y-77614990D01*
X78046309Y-77632714D01*
X78060559Y-77651927D01*
X78072856Y-77672444D01*
X78083084Y-77694068D01*
X78091142Y-77716590D01*
X78096954Y-77739794D01*
X78100464Y-77763455D01*
X78101638Y-77787347D01*
X78100464Y-77811239D01*
X78096954Y-77834900D01*
X78091142Y-77858104D01*
X78083084Y-77880626D01*
X78072856Y-77902250D01*
X78060559Y-77922767D01*
X78046309Y-77941980D01*
X78030245Y-77959704D01*
X77685530Y-78304419D01*
X77667806Y-78320483D01*
X77648593Y-78334733D01*
X77628076Y-78347030D01*
X77606452Y-78357258D01*
X77583930Y-78365316D01*
X77560726Y-78371128D01*
X77537065Y-78374638D01*
X77513173Y-78375812D01*
X77489281Y-78374638D01*
X77465620Y-78371128D01*
X77442416Y-78365316D01*
X77419894Y-78357258D01*
X77398270Y-78347030D01*
X77377753Y-78334733D01*
X77358540Y-78320483D01*
X77340816Y-78304419D01*
X76695581Y-77659184D01*
X76679517Y-77641460D01*
X76665267Y-77622247D01*
X76652970Y-77601730D01*
X76642742Y-77580106D01*
X76634684Y-77557584D01*
X76628872Y-77534380D01*
X76625362Y-77510719D01*
X76624188Y-77486827D01*
X76625362Y-77462935D01*
X76628872Y-77439274D01*
X76634684Y-77416070D01*
X76642742Y-77393548D01*
X76652970Y-77371924D01*
X76665267Y-77351407D01*
X76679517Y-77332194D01*
X76695581Y-77314470D01*
X77040296Y-76969755D01*
X77058020Y-76953691D01*
X77077233Y-76939441D01*
X77097750Y-76927144D01*
X77119374Y-76916916D01*
X77141896Y-76908858D01*
X77165100Y-76903046D01*
X77188761Y-76899536D01*
X77212653Y-76898362D01*
X77236545Y-76899536D01*
X77236545Y-76899536D01*
G37*
D11*
X77362913Y-77637087D03*
M02*
