G04 #@! TF.GenerationSoftware,KiCad,Pcbnew,(5.1.4)-1*
G04 #@! TF.CreationDate,2021-01-13T15:58:14-08:00*
G04 #@! TF.ProjectId,Fan Controller,46616e20-436f-46e7-9472-6f6c6c65722e,rev?*
G04 #@! TF.SameCoordinates,Original*
G04 #@! TF.FileFunction,Copper,L2,Bot*
G04 #@! TF.FilePolarity,Positive*
%FSLAX46Y46*%
G04 Gerber Fmt 4.6, Leading zero omitted, Abs format (unit mm)*
G04 Created by KiCad (PCBNEW (5.1.4)-1) date 2021-01-13 15:58:14*
%MOMM*%
%LPD*%
G04 APERTURE LIST*
%ADD10R,1.700000X1.700000*%
%ADD11O,1.700000X1.700000*%
%ADD12O,1.900000X1.050000*%
%ADD13C,0.800000*%
%ADD14C,0.250000*%
G04 APERTURE END LIST*
D10*
X53622000Y-58950200D03*
D11*
X53622000Y-61490200D03*
X53622000Y-64030200D03*
X53622000Y-66570200D03*
D10*
X53622000Y-70150200D03*
D11*
X53622000Y-72690200D03*
X53622000Y-75230200D03*
X53622000Y-77770200D03*
X99572000Y-58980200D03*
X99572000Y-61520200D03*
X99572000Y-64060200D03*
D10*
X99572000Y-66600200D03*
D11*
X99572000Y-70180200D03*
X99572000Y-72720200D03*
X99572000Y-75260200D03*
D10*
X99572000Y-77800200D03*
D11*
X99572000Y-81380200D03*
X99572000Y-83920200D03*
X99572000Y-86460200D03*
D10*
X99572000Y-89000200D03*
D11*
X94564200Y-94056200D03*
X92024200Y-94056200D03*
X89484200Y-94056200D03*
D10*
X86944200Y-94056200D03*
D11*
X83362800Y-94056200D03*
X80822800Y-94056200D03*
X78282800Y-94056200D03*
D10*
X75742800Y-94056200D03*
D11*
X72161400Y-94056200D03*
X69621400Y-94056200D03*
X67081400Y-94056200D03*
D10*
X64541400Y-94056200D03*
D12*
X53181400Y-89249200D03*
X53181400Y-82099200D03*
D13*
X57972000Y-82200200D03*
X57972000Y-77040200D03*
X65264651Y-81252199D03*
X63172000Y-75650200D03*
X67322000Y-85150200D03*
X73772000Y-86500200D03*
X72172000Y-69650200D03*
X71722000Y-86450200D03*
X71372000Y-63550200D03*
X85022000Y-86850200D03*
X78722000Y-79700200D03*
X82922000Y-86700200D03*
X73822000Y-62700200D03*
X94972000Y-87250200D03*
X76147000Y-68850200D03*
X89472153Y-86775047D03*
X74822000Y-62700200D03*
X91022000Y-77850200D03*
X80046063Y-73976137D03*
X90772000Y-79750200D03*
X76322000Y-63550200D03*
X91172000Y-69150200D03*
X82022000Y-68350200D03*
X90935000Y-67000200D03*
X77572000Y-62650200D03*
X91022000Y-60250200D03*
X83622000Y-64450200D03*
X91072000Y-58050200D03*
X75722000Y-58450200D03*
X61972000Y-81600200D03*
X67234653Y-65412853D03*
X59722000Y-81550200D03*
X67272000Y-64350200D03*
X67022000Y-87050200D03*
X70622000Y-69950200D03*
X78172000Y-87000200D03*
X73072000Y-68600200D03*
X87022000Y-86650200D03*
X74547000Y-67150200D03*
X90159653Y-82512547D03*
X76972000Y-65950200D03*
X91322000Y-74250200D03*
X78547000Y-65225200D03*
X91222000Y-65300200D03*
X69372000Y-72500200D03*
X79922000Y-87000200D03*
X76472000Y-82500200D03*
X86922000Y-88350200D03*
X81472000Y-82500200D03*
X89372000Y-81500200D03*
X85122000Y-79500200D03*
X90972000Y-72700200D03*
X87395000Y-72677200D03*
X91172000Y-63400200D03*
X87395000Y-63373200D03*
X69372000Y-79000200D03*
X69272000Y-82500200D03*
D14*
X57972000Y-77040200D02*
X53622000Y-72690200D01*
X57972000Y-82200200D02*
X57972000Y-77040200D01*
X65264651Y-77742851D02*
X63172000Y-75650200D01*
X65264651Y-81252199D02*
X65264651Y-77742851D01*
X66231401Y-86240799D02*
X67322000Y-85150200D01*
X66231401Y-93206201D02*
X66231401Y-86240799D01*
X67081400Y-94056200D02*
X66231401Y-93206201D01*
X52772001Y-67420199D02*
X53622000Y-66570200D01*
X52446999Y-67745201D02*
X52772001Y-67420199D01*
X52446999Y-76595199D02*
X52446999Y-67745201D01*
X53622000Y-77770200D02*
X52446999Y-76595199D01*
X73772000Y-85934515D02*
X72022000Y-84184515D01*
X73772000Y-86500200D02*
X73772000Y-85934515D01*
X72022000Y-84184515D02*
X72022000Y-69800200D01*
X72022000Y-69800200D02*
X72172000Y-69650200D01*
X71072009Y-85800209D02*
X71072010Y-83636600D01*
X71722000Y-86450200D02*
X71072009Y-85800209D01*
X71072010Y-83636600D02*
X71072010Y-71000200D01*
X71422000Y-63600200D02*
X71372000Y-63550200D01*
X71072010Y-71000200D02*
X71422000Y-70650210D01*
X71422000Y-70650210D02*
X71422000Y-63600200D01*
X78722000Y-81115885D02*
X78722000Y-79700200D01*
X85022000Y-86850200D02*
X84456315Y-86850200D01*
X84456315Y-86850200D02*
X78722000Y-81115885D01*
X82922000Y-86700200D02*
X73722000Y-77500200D01*
X73722000Y-77500200D02*
X73822000Y-77400200D01*
X73822000Y-77400200D02*
X73822000Y-62700200D01*
X94972000Y-87250200D02*
X91022000Y-87250200D01*
X91022000Y-87250200D02*
X76147000Y-72375200D01*
X76147000Y-72375200D02*
X76147000Y-68850200D01*
X89472153Y-86775047D02*
X75422000Y-72724894D01*
X75422000Y-72724894D02*
X75422000Y-63300200D01*
X75422000Y-63300200D02*
X74822000Y-62700200D01*
X91022000Y-77850200D02*
X83920126Y-77850200D01*
X83920126Y-77850200D02*
X80046063Y-73976137D01*
X89796999Y-78775199D02*
X83819819Y-78775199D01*
X90772000Y-79750200D02*
X89796999Y-78775199D01*
X83819819Y-78775199D02*
X77822000Y-72777380D01*
X77822000Y-72777380D02*
X77822000Y-64250200D01*
X77822000Y-64250200D02*
X77122000Y-63550200D01*
X77122000Y-63550200D02*
X76322000Y-63550200D01*
X91172000Y-69150200D02*
X90372000Y-68350200D01*
X90372000Y-68350200D02*
X82022000Y-68350200D01*
X90935000Y-67000200D02*
X81922000Y-67000200D01*
X81922000Y-67000200D02*
X77572000Y-62650200D01*
X83622000Y-63900200D02*
X83622000Y-64450200D01*
X91022000Y-60250200D02*
X87272000Y-60250200D01*
X87272000Y-60250200D02*
X83622000Y-63900200D01*
X91072000Y-58050200D02*
X76122000Y-58050200D01*
X76122000Y-58050200D02*
X75722000Y-58450200D01*
X61972000Y-81600200D02*
X61972000Y-70675506D01*
X61972000Y-70675506D02*
X67234653Y-65412853D01*
X59722000Y-81550200D02*
X59722000Y-71900200D01*
X59722000Y-71900200D02*
X67272000Y-64350200D01*
X67022000Y-87050200D02*
X70622000Y-83450200D01*
X70622000Y-83450200D02*
X70622000Y-69950200D01*
X78172000Y-87000200D02*
X75972000Y-87000200D01*
X75972000Y-87000200D02*
X73072000Y-84100200D01*
X73072000Y-84100200D02*
X73072000Y-68600200D01*
X87022000Y-86650200D02*
X74547000Y-74175200D01*
X74547000Y-74175200D02*
X74547000Y-67150200D01*
X90159653Y-82512547D02*
X86920757Y-82512547D01*
X86920757Y-82512547D02*
X76972000Y-72563790D01*
X76972000Y-72563790D02*
X76972000Y-65950200D01*
X91322000Y-74250200D02*
X88172010Y-77400190D01*
X88172010Y-77400190D02*
X84671990Y-77400190D01*
X84671990Y-77400190D02*
X78547000Y-71275200D01*
X78547000Y-71275200D02*
X78547000Y-65225200D01*
X69372000Y-64477198D02*
X69372000Y-72500200D01*
X71923999Y-61925199D02*
X69372000Y-64477198D01*
X77920001Y-61925199D02*
X71923999Y-61925199D01*
X91222000Y-65300200D02*
X81295002Y-65300200D01*
X81295002Y-65300200D02*
X77920001Y-61925199D01*
X79922000Y-85950200D02*
X76472000Y-82500200D01*
X79922000Y-87000200D02*
X79922000Y-85950200D01*
X81745002Y-82500200D02*
X81472000Y-82500200D01*
X86922000Y-87677198D02*
X81745002Y-82500200D01*
X86922000Y-88350200D02*
X86922000Y-87677198D01*
X87122000Y-81500200D02*
X85122000Y-79500200D01*
X89372000Y-81500200D02*
X87122000Y-81500200D01*
X87418000Y-72700200D02*
X87395000Y-72677200D01*
X90972000Y-72700200D02*
X87418000Y-72700200D01*
X87422000Y-63400200D02*
X87395000Y-63373200D01*
X91172000Y-63400200D02*
X87422000Y-63400200D01*
X54722000Y-58950200D02*
X53622000Y-58950200D01*
X54797001Y-59025201D02*
X54722000Y-58950200D01*
X54797001Y-70075199D02*
X54797001Y-59025201D01*
X54722000Y-70150200D02*
X54797001Y-70075199D01*
X53622000Y-70150200D02*
X54722000Y-70150200D01*
X69372000Y-82400200D02*
X69272000Y-82500200D01*
X69372000Y-79000200D02*
X69372000Y-82400200D01*
M02*
