G04 #@! TF.GenerationSoftware,KiCad,Pcbnew,(5.1.4)-1*
G04 #@! TF.CreationDate,2021-01-13T15:58:14-08:00*
G04 #@! TF.ProjectId,Fan Controller,46616e20-436f-46e7-9472-6f6c6c65722e,rev?*
G04 #@! TF.SameCoordinates,Original*
G04 #@! TF.FileFunction,Legend,Top*
G04 #@! TF.FilePolarity,Positive*
%FSLAX46Y46*%
G04 Gerber Fmt 4.6, Leading zero omitted, Abs format (unit mm)*
G04 Created by KiCad (PCBNEW (5.1.4)-1) date 2021-01-13 15:58:14*
%MOMM*%
%LPD*%
G04 APERTURE LIST*
%ADD10C,0.120000*%
%ADD11C,0.150000*%
%ADD12C,0.152400*%
G04 APERTURE END LIST*
D10*
X52292000Y-67900200D02*
X54952000Y-67900200D01*
X52292000Y-60220200D02*
X52292000Y-67900200D01*
X54952000Y-60220200D02*
X54952000Y-67900200D01*
X52292000Y-60220200D02*
X54952000Y-60220200D01*
X52292000Y-58950200D02*
X52292000Y-57620200D01*
X52292000Y-57620200D02*
X53622000Y-57620200D01*
X93880578Y-60760200D02*
X93363422Y-60760200D01*
X93880578Y-59340200D02*
X93363422Y-59340200D01*
X93880578Y-58760200D02*
X93363422Y-58760200D01*
X93880578Y-57340200D02*
X93363422Y-57340200D01*
X93830578Y-69910200D02*
X93313422Y-69910200D01*
X93830578Y-68490200D02*
X93313422Y-68490200D01*
X93830578Y-67910200D02*
X93313422Y-67910200D01*
X93830578Y-66490200D02*
X93313422Y-66490200D01*
X94980578Y-78360200D02*
X94463422Y-78360200D01*
X94980578Y-76940200D02*
X94463422Y-76940200D01*
X94980578Y-80360200D02*
X94463422Y-80360200D01*
X94980578Y-78940200D02*
X94463422Y-78940200D01*
X95212000Y-89708778D02*
X95212000Y-89191622D01*
X96632000Y-89708778D02*
X96632000Y-89191622D01*
X93212000Y-89708778D02*
X93212000Y-89191622D01*
X94632000Y-89708778D02*
X94632000Y-89191622D01*
X84262000Y-89408778D02*
X84262000Y-88891622D01*
X85682000Y-89408778D02*
X85682000Y-88891622D01*
X82262000Y-89408778D02*
X82262000Y-88891622D01*
X83682000Y-89408778D02*
X83682000Y-88891622D01*
X73062000Y-89558778D02*
X73062000Y-89041622D01*
X74482000Y-89558778D02*
X74482000Y-89041622D01*
X71062000Y-89558778D02*
X71062000Y-89041622D01*
X72482000Y-89558778D02*
X72482000Y-89041622D01*
X52292000Y-79100200D02*
X54952000Y-79100200D01*
X52292000Y-71420200D02*
X52292000Y-79100200D01*
X54952000Y-71420200D02*
X54952000Y-79100200D01*
X52292000Y-71420200D02*
X54952000Y-71420200D01*
X52292000Y-70150200D02*
X52292000Y-68820200D01*
X52292000Y-68820200D02*
X53622000Y-68820200D01*
X76556676Y-76276777D02*
X74223223Y-73943324D01*
X74576777Y-78256676D02*
X76556676Y-76276777D01*
D11*
X69425000Y-62100000D02*
X68150000Y-62100000D01*
X79775000Y-61525000D02*
X79100000Y-61525000D01*
X79775000Y-71875000D02*
X79100000Y-71875000D01*
X69425000Y-71875000D02*
X70100000Y-71875000D01*
X69425000Y-61525000D02*
X70100000Y-61525000D01*
X69425000Y-71875000D02*
X69425000Y-71200000D01*
X79775000Y-71875000D02*
X79775000Y-71200000D01*
X79775000Y-61525000D02*
X79775000Y-62200000D01*
X69425000Y-61525000D02*
X69425000Y-62100000D01*
D12*
X92961460Y-62688700D02*
X91897200Y-62688700D01*
X91897200Y-62688700D02*
X91897200Y-64644500D01*
X95250000Y-62688700D02*
X94185740Y-62688700D01*
X95250000Y-64644500D02*
X95250000Y-62688700D01*
X93235739Y-64644500D02*
X93911461Y-64644500D01*
X93012260Y-72097900D02*
X91948000Y-72097900D01*
X91948000Y-72097900D02*
X91948000Y-74053700D01*
X95300800Y-72097900D02*
X94236540Y-72097900D01*
X95300800Y-74053700D02*
X95300800Y-72097900D01*
X93286539Y-74053700D02*
X93962261Y-74053700D01*
X94159860Y-82972300D02*
X93095600Y-82972300D01*
X93095600Y-82972300D02*
X93095600Y-84928100D01*
X96448400Y-82972300D02*
X95384140Y-82972300D01*
X96448400Y-84928100D02*
X96448400Y-82972300D01*
X94434139Y-84928100D02*
X95109861Y-84928100D01*
X91579700Y-88897460D02*
X91579700Y-87833200D01*
X91579700Y-87833200D02*
X89623900Y-87833200D01*
X91579700Y-91186000D02*
X91579700Y-90121740D01*
X89623900Y-91186000D02*
X91579700Y-91186000D01*
X89623900Y-89171739D02*
X89623900Y-89847461D01*
X80479900Y-88872060D02*
X80479900Y-87807800D01*
X80479900Y-87807800D02*
X78524100Y-87807800D01*
X80479900Y-91160600D02*
X80479900Y-90096340D01*
X78524100Y-91160600D02*
X80479900Y-91160600D01*
X78524100Y-89146339D02*
X78524100Y-89822061D01*
X69303900Y-88922860D02*
X69303900Y-87858600D01*
X69303900Y-87858600D02*
X67348100Y-87858600D01*
X69303900Y-91211400D02*
X69303900Y-90147140D01*
X67348100Y-91211400D02*
X69303900Y-91211400D01*
X67348100Y-89197139D02*
X67348100Y-89872861D01*
D10*
X56050000Y-69550000D02*
X56050000Y-67050000D01*
X57800000Y-71050000D02*
X59800000Y-71050000D01*
X61550000Y-69550000D02*
X61550000Y-67050000D01*
X57800000Y-65550000D02*
X59800000Y-65550000D01*
X56500000Y-70000000D02*
X56050000Y-69550000D01*
X56500000Y-66600000D02*
X56050000Y-67050000D01*
X61100000Y-66600000D02*
X61550000Y-67050000D01*
X61100000Y-70000000D02*
X61550000Y-69550000D01*
X84558578Y-61490000D02*
X84041422Y-61490000D01*
X84558578Y-62910000D02*
X84041422Y-62910000D01*
X65711000Y-71877422D02*
X65711000Y-72394578D01*
X67131000Y-71877422D02*
X67131000Y-72394578D01*
X59040000Y-83841422D02*
X59040000Y-84358578D01*
X60460000Y-83841422D02*
X60460000Y-84358578D01*
X61240000Y-83741422D02*
X61240000Y-84258578D01*
X62660000Y-83741422D02*
X62660000Y-84258578D01*
X100902000Y-67930200D02*
X99572000Y-67930200D01*
X100902000Y-66600200D02*
X100902000Y-67930200D01*
X100902000Y-65330200D02*
X98242000Y-65330200D01*
X98242000Y-65330200D02*
X98242000Y-57650200D01*
X100902000Y-65330200D02*
X100902000Y-57650200D01*
X100902000Y-57650200D02*
X98242000Y-57650200D01*
X100902000Y-79130200D02*
X99572000Y-79130200D01*
X100902000Y-77800200D02*
X100902000Y-79130200D01*
X100902000Y-76530200D02*
X98242000Y-76530200D01*
X98242000Y-76530200D02*
X98242000Y-68850200D01*
X100902000Y-76530200D02*
X100902000Y-68850200D01*
X100902000Y-68850200D02*
X98242000Y-68850200D01*
X100902000Y-90330200D02*
X99572000Y-90330200D01*
X100902000Y-89000200D02*
X100902000Y-90330200D01*
X100902000Y-87730200D02*
X98242000Y-87730200D01*
X98242000Y-87730200D02*
X98242000Y-80050200D01*
X100902000Y-87730200D02*
X100902000Y-80050200D01*
X100902000Y-80050200D02*
X98242000Y-80050200D01*
X85614200Y-95386200D02*
X85614200Y-94056200D01*
X86944200Y-95386200D02*
X85614200Y-95386200D01*
X88214200Y-95386200D02*
X88214200Y-92726200D01*
X88214200Y-92726200D02*
X95894200Y-92726200D01*
X88214200Y-95386200D02*
X95894200Y-95386200D01*
X95894200Y-95386200D02*
X95894200Y-92726200D01*
X74412800Y-95386200D02*
X74412800Y-94056200D01*
X75742800Y-95386200D02*
X74412800Y-95386200D01*
X77012800Y-95386200D02*
X77012800Y-92726200D01*
X77012800Y-92726200D02*
X84692800Y-92726200D01*
X77012800Y-95386200D02*
X84692800Y-95386200D01*
X84692800Y-95386200D02*
X84692800Y-92726200D01*
X63211400Y-95386200D02*
X63211400Y-94056200D01*
X64541400Y-95386200D02*
X63211400Y-95386200D01*
X65811400Y-95386200D02*
X65811400Y-92726200D01*
X65811400Y-92726200D02*
X73491400Y-92726200D01*
X65811400Y-95386200D02*
X73491400Y-95386200D01*
X73491400Y-95386200D02*
X73491400Y-92726200D01*
X56791400Y-83914200D02*
X56401400Y-83914200D01*
X56791400Y-83914200D02*
X56791400Y-84364200D01*
X56091400Y-89484200D02*
X56091400Y-88834200D01*
X54361400Y-89484200D02*
X56091400Y-89484200D01*
X51791400Y-81864200D02*
X52001400Y-81864200D01*
X51791400Y-89484200D02*
X52001400Y-89484200D01*
X54361400Y-81864200D02*
X56091400Y-81864200D01*
X56091400Y-81864200D02*
X56091400Y-82524200D01*
D12*
X51720700Y-54453299D02*
G75*
G03X51720700Y-54453299I-381000J0D01*
G01*
X101225300Y-56780299D02*
X101225300Y-41819700D01*
X51974700Y-56780299D02*
X101225300Y-56780299D01*
X51974700Y-41819700D02*
X51974700Y-56780299D01*
X101225300Y-41819700D02*
X51974700Y-41819700D01*
D10*
X84290000Y-71041422D02*
X84290000Y-71558578D01*
X85710000Y-71041422D02*
X85710000Y-71558578D01*
X78458578Y-57990000D02*
X77941422Y-57990000D01*
X78458578Y-59410000D02*
X77941422Y-59410000D01*
X70841422Y-59110000D02*
X71358578Y-59110000D01*
X70841422Y-57690000D02*
X71358578Y-57690000D01*
X68763422Y-76360200D02*
X69280578Y-76360200D01*
X68763422Y-74940200D02*
X69280578Y-74940200D01*
X65660000Y-68658578D02*
X65660000Y-68141422D01*
X64240000Y-68658578D02*
X64240000Y-68141422D01*
X81990000Y-71041422D02*
X81990000Y-71558578D01*
X83410000Y-71041422D02*
X83410000Y-71558578D01*
X65660000Y-65058578D02*
X65660000Y-64541422D01*
X64240000Y-65058578D02*
X64240000Y-64541422D01*
X72984888Y-77880796D02*
X72619204Y-77515112D01*
X71980796Y-78884888D02*
X71615112Y-78519204D01*
X76380796Y-77615112D02*
X76015112Y-77980796D01*
X77384888Y-78619204D02*
X77019204Y-78984888D01*
D11*
X55924380Y-62685914D02*
X55924380Y-62114485D01*
X56924380Y-62400200D02*
X55924380Y-62400200D01*
X56400571Y-61781152D02*
X56400571Y-61447819D01*
X56924380Y-61304961D02*
X56924380Y-61781152D01*
X55924380Y-61781152D01*
X55924380Y-61304961D01*
X56924380Y-60876390D02*
X55924380Y-60876390D01*
X56638666Y-60543057D01*
X55924380Y-60209723D01*
X56924380Y-60209723D01*
X56924380Y-59733533D02*
X55924380Y-59733533D01*
X55924380Y-59352580D01*
X55972000Y-59257342D01*
X56019619Y-59209723D01*
X56114857Y-59162104D01*
X56257714Y-59162104D01*
X56352952Y-59209723D01*
X56400571Y-59257342D01*
X56448190Y-59352580D01*
X56448190Y-59733533D01*
X56019619Y-58781152D02*
X55972000Y-58733533D01*
X55924380Y-58638295D01*
X55924380Y-58400200D01*
X55972000Y-58304961D01*
X56019619Y-58257342D01*
X56114857Y-58209723D01*
X56210095Y-58209723D01*
X56352952Y-58257342D01*
X56924380Y-58828771D01*
X56924380Y-58209723D01*
X96624380Y-60219247D02*
X96624380Y-60790676D01*
X96624380Y-60504961D02*
X95624380Y-60504961D01*
X95767238Y-60600200D01*
X95862476Y-60695438D01*
X95910095Y-60790676D01*
X96624380Y-59790676D02*
X95624380Y-59790676D01*
X96243428Y-59695438D02*
X96624380Y-59409723D01*
X95957714Y-59409723D02*
X96338666Y-59790676D01*
X96774380Y-58119247D02*
X96774380Y-58690676D01*
X96774380Y-58404961D02*
X95774380Y-58404961D01*
X95917238Y-58500200D01*
X96012476Y-58595438D01*
X96060095Y-58690676D01*
X96774380Y-57690676D02*
X95774380Y-57690676D01*
X96393428Y-57595438D02*
X96774380Y-57309723D01*
X96107714Y-57309723D02*
X96488666Y-57690676D01*
X96624380Y-69169247D02*
X96624380Y-69740676D01*
X96624380Y-69454961D02*
X95624380Y-69454961D01*
X95767238Y-69550200D01*
X95862476Y-69645438D01*
X95910095Y-69740676D01*
X96624380Y-68740676D02*
X95624380Y-68740676D01*
X96243428Y-68645438D02*
X96624380Y-68359723D01*
X95957714Y-68359723D02*
X96338666Y-68740676D01*
X96674380Y-67419247D02*
X96674380Y-67990676D01*
X96674380Y-67704961D02*
X95674380Y-67704961D01*
X95817238Y-67800200D01*
X95912476Y-67895438D01*
X95960095Y-67990676D01*
X96674380Y-66990676D02*
X95674380Y-66990676D01*
X96293428Y-66895438D02*
X96674380Y-66609723D01*
X96007714Y-66609723D02*
X96388666Y-66990676D01*
X92674380Y-77719247D02*
X92674380Y-78290676D01*
X92674380Y-78004961D02*
X91674380Y-78004961D01*
X91817238Y-78100200D01*
X91912476Y-78195438D01*
X91960095Y-78290676D01*
X92674380Y-77290676D02*
X91674380Y-77290676D01*
X92293428Y-77195438D02*
X92674380Y-76909723D01*
X92007714Y-76909723D02*
X92388666Y-77290676D01*
X92724380Y-79819247D02*
X92724380Y-80390676D01*
X92724380Y-80104961D02*
X91724380Y-80104961D01*
X91867238Y-80200200D01*
X91962476Y-80295438D01*
X92010095Y-80390676D01*
X92724380Y-79390676D02*
X91724380Y-79390676D01*
X92343428Y-79295438D02*
X92724380Y-79009723D01*
X92057714Y-79009723D02*
X92438666Y-79390676D01*
X95802952Y-92052580D02*
X95231523Y-92052580D01*
X95517238Y-92052580D02*
X95517238Y-91052580D01*
X95422000Y-91195438D01*
X95326761Y-91290676D01*
X95231523Y-91338295D01*
X96231523Y-92052580D02*
X96231523Y-91052580D01*
X96326761Y-91671628D02*
X96612476Y-92052580D01*
X96612476Y-91385914D02*
X96231523Y-91766866D01*
X93802952Y-92102580D02*
X93231523Y-92102580D01*
X93517238Y-92102580D02*
X93517238Y-91102580D01*
X93422000Y-91245438D01*
X93326761Y-91340676D01*
X93231523Y-91388295D01*
X94231523Y-92102580D02*
X94231523Y-91102580D01*
X94326761Y-91721628D02*
X94612476Y-92102580D01*
X94612476Y-91435914D02*
X94231523Y-91816866D01*
X84902952Y-92102580D02*
X84331523Y-92102580D01*
X84617238Y-92102580D02*
X84617238Y-91102580D01*
X84522000Y-91245438D01*
X84426761Y-91340676D01*
X84331523Y-91388295D01*
X85331523Y-92102580D02*
X85331523Y-91102580D01*
X85426761Y-91721628D02*
X85712476Y-92102580D01*
X85712476Y-91435914D02*
X85331523Y-91816866D01*
X82902952Y-91852580D02*
X82331523Y-91852580D01*
X82617238Y-91852580D02*
X82617238Y-90852580D01*
X82522000Y-90995438D01*
X82426761Y-91090676D01*
X82331523Y-91138295D01*
X83331523Y-91852580D02*
X83331523Y-90852580D01*
X83426761Y-91471628D02*
X83712476Y-91852580D01*
X83712476Y-91185914D02*
X83331523Y-91566866D01*
X73602952Y-92002580D02*
X73031523Y-92002580D01*
X73317238Y-92002580D02*
X73317238Y-91002580D01*
X73222000Y-91145438D01*
X73126761Y-91240676D01*
X73031523Y-91288295D01*
X74031523Y-92002580D02*
X74031523Y-91002580D01*
X74126761Y-91621628D02*
X74412476Y-92002580D01*
X74412476Y-91335914D02*
X74031523Y-91716866D01*
X71752952Y-92002580D02*
X71181523Y-92002580D01*
X71467238Y-92002580D02*
X71467238Y-91002580D01*
X71372000Y-91145438D01*
X71276761Y-91240676D01*
X71181523Y-91288295D01*
X72181523Y-92002580D02*
X72181523Y-91002580D01*
X72276761Y-91621628D02*
X72562476Y-92002580D01*
X72562476Y-91335914D02*
X72181523Y-91716866D01*
X55674380Y-78835914D02*
X55674380Y-78264485D01*
X56674380Y-78550200D02*
X55674380Y-78550200D01*
X56150571Y-77931152D02*
X56150571Y-77597819D01*
X56674380Y-77454961D02*
X56674380Y-77931152D01*
X55674380Y-77931152D01*
X55674380Y-77454961D01*
X56674380Y-77026390D02*
X55674380Y-77026390D01*
X56388666Y-76693057D01*
X55674380Y-76359723D01*
X56674380Y-76359723D01*
X56674380Y-75883533D02*
X55674380Y-75883533D01*
X55674380Y-75502580D01*
X55722000Y-75407342D01*
X55769619Y-75359723D01*
X55864857Y-75312104D01*
X56007714Y-75312104D01*
X56102952Y-75359723D01*
X56150571Y-75407342D01*
X56198190Y-75502580D01*
X56198190Y-75883533D01*
X56674380Y-74359723D02*
X56674380Y-74931152D01*
X56674380Y-74645438D02*
X55674380Y-74645438D01*
X55817238Y-74740676D01*
X55912476Y-74835914D01*
X55960095Y-74931152D01*
X76402118Y-74496646D02*
X76065400Y-74833364D01*
X76536805Y-73890555D02*
X76402118Y-74496646D01*
X77008209Y-74361959D01*
X76907194Y-75675157D02*
X76503133Y-75271096D01*
X76705164Y-75473127D02*
X77412270Y-74766020D01*
X77243912Y-74799692D01*
X77109225Y-74799692D01*
X77008209Y-74766020D01*
X70119619Y-67366866D02*
X70595809Y-67366866D01*
X70024380Y-67652580D02*
X70357714Y-66652580D01*
X70691047Y-67652580D01*
X70881523Y-66652580D02*
X71452952Y-66652580D01*
X71167238Y-67652580D02*
X71167238Y-66652580D01*
X71786285Y-67652580D02*
X71786285Y-66652580D01*
X72119619Y-67366866D01*
X72452952Y-66652580D01*
X72452952Y-67652580D01*
X72929142Y-67128771D02*
X73262476Y-67128771D01*
X73405333Y-67652580D02*
X72929142Y-67652580D01*
X72929142Y-66652580D01*
X73405333Y-66652580D01*
X74357714Y-66700200D02*
X74262476Y-66652580D01*
X74119619Y-66652580D01*
X73976761Y-66700200D01*
X73881523Y-66795438D01*
X73833904Y-66890676D01*
X73786285Y-67081152D01*
X73786285Y-67224009D01*
X73833904Y-67414485D01*
X73881523Y-67509723D01*
X73976761Y-67604961D01*
X74119619Y-67652580D01*
X74214857Y-67652580D01*
X74357714Y-67604961D01*
X74405333Y-67557342D01*
X74405333Y-67224009D01*
X74214857Y-67224009D01*
X74786285Y-67366866D02*
X75262476Y-67366866D01*
X74691047Y-67652580D02*
X75024380Y-66652580D01*
X75357714Y-67652580D01*
X75595809Y-66652580D02*
X76214857Y-66652580D01*
X75881523Y-67033533D01*
X76024380Y-67033533D01*
X76119619Y-67081152D01*
X76167238Y-67128771D01*
X76214857Y-67224009D01*
X76214857Y-67462104D01*
X76167238Y-67557342D01*
X76119619Y-67604961D01*
X76024380Y-67652580D01*
X75738666Y-67652580D01*
X75643428Y-67604961D01*
X75595809Y-67557342D01*
X76595809Y-66747819D02*
X76643428Y-66700200D01*
X76738666Y-66652580D01*
X76976761Y-66652580D01*
X77072000Y-66700200D01*
X77119619Y-66747819D01*
X77167238Y-66843057D01*
X77167238Y-66938295D01*
X77119619Y-67081152D01*
X76548190Y-67652580D01*
X77167238Y-67652580D01*
X78024380Y-66985914D02*
X78024380Y-67652580D01*
X77595809Y-66985914D02*
X77595809Y-67509723D01*
X77643428Y-67604961D01*
X77738666Y-67652580D01*
X77881523Y-67652580D01*
X77976761Y-67604961D01*
X78024380Y-67557342D01*
X78929142Y-66985914D02*
X78929142Y-67652580D01*
X78691047Y-66604961D02*
X78452952Y-67319247D01*
X79072000Y-67319247D01*
X93960095Y-61152580D02*
X94531523Y-61152580D01*
X94245809Y-62152580D02*
X94245809Y-61152580D01*
X95293428Y-61152580D02*
X95102952Y-61152580D01*
X95007714Y-61200200D01*
X94960095Y-61247819D01*
X94864857Y-61390676D01*
X94817238Y-61581152D01*
X94817238Y-61962104D01*
X94864857Y-62057342D01*
X94912476Y-62104961D01*
X95007714Y-62152580D01*
X95198190Y-62152580D01*
X95293428Y-62104961D01*
X95341047Y-62057342D01*
X95388666Y-61962104D01*
X95388666Y-61724009D01*
X95341047Y-61628771D01*
X95293428Y-61581152D01*
X95198190Y-61533533D01*
X95007714Y-61533533D01*
X94912476Y-61581152D01*
X94864857Y-61628771D01*
X94817238Y-61724009D01*
X96924380Y-65507342D02*
X95924380Y-65507342D01*
X96924380Y-64935914D01*
X95924380Y-64935914D01*
X96924380Y-64459723D02*
X95924380Y-64459723D01*
X96638666Y-64126390D01*
X95924380Y-63793057D01*
X96924380Y-63793057D01*
X95924380Y-63126390D02*
X95924380Y-62935914D01*
X95972000Y-62840676D01*
X96067238Y-62745438D01*
X96257714Y-62697819D01*
X96591047Y-62697819D01*
X96781523Y-62745438D01*
X96876761Y-62840676D01*
X96924380Y-62935914D01*
X96924380Y-63126390D01*
X96876761Y-63221628D01*
X96781523Y-63316866D01*
X96591047Y-63364485D01*
X96257714Y-63364485D01*
X96067238Y-63316866D01*
X95972000Y-63221628D01*
X95924380Y-63126390D01*
X96876761Y-62316866D02*
X96924380Y-62174009D01*
X96924380Y-61935914D01*
X96876761Y-61840676D01*
X96829142Y-61793057D01*
X96733904Y-61745438D01*
X96638666Y-61745438D01*
X96543428Y-61793057D01*
X96495809Y-61840676D01*
X96448190Y-61935914D01*
X96400571Y-62126390D01*
X96352952Y-62221628D01*
X96305333Y-62269247D01*
X96210095Y-62316866D01*
X96114857Y-62316866D01*
X96019619Y-62269247D01*
X95972000Y-62221628D01*
X95924380Y-62126390D01*
X95924380Y-61888295D01*
X95972000Y-61745438D01*
X93573600Y-63118980D02*
X93573600Y-63357076D01*
X93335504Y-63261838D02*
X93573600Y-63357076D01*
X93811695Y-63261838D01*
X93430742Y-63547552D02*
X93573600Y-63357076D01*
X93716457Y-63547552D01*
X96024380Y-74062104D02*
X96024380Y-73490676D01*
X97024380Y-73776390D02*
X96024380Y-73776390D01*
X96024380Y-72681152D02*
X96024380Y-73157342D01*
X96500571Y-73204961D01*
X96452952Y-73157342D01*
X96405333Y-73062104D01*
X96405333Y-72824009D01*
X96452952Y-72728771D01*
X96500571Y-72681152D01*
X96595809Y-72633533D01*
X96833904Y-72633533D01*
X96929142Y-72681152D01*
X96976761Y-72728771D01*
X97024380Y-72824009D01*
X97024380Y-73062104D01*
X96976761Y-73157342D01*
X96929142Y-73204961D01*
X91864857Y-71102580D02*
X91864857Y-70102580D01*
X92436285Y-71102580D01*
X92436285Y-70102580D01*
X92912476Y-71102580D02*
X92912476Y-70102580D01*
X93245809Y-70816866D01*
X93579142Y-70102580D01*
X93579142Y-71102580D01*
X94245809Y-70102580D02*
X94436285Y-70102580D01*
X94531523Y-70150200D01*
X94626761Y-70245438D01*
X94674380Y-70435914D01*
X94674380Y-70769247D01*
X94626761Y-70959723D01*
X94531523Y-71054961D01*
X94436285Y-71102580D01*
X94245809Y-71102580D01*
X94150571Y-71054961D01*
X94055333Y-70959723D01*
X94007714Y-70769247D01*
X94007714Y-70435914D01*
X94055333Y-70245438D01*
X94150571Y-70150200D01*
X94245809Y-70102580D01*
X95055333Y-71054961D02*
X95198190Y-71102580D01*
X95436285Y-71102580D01*
X95531523Y-71054961D01*
X95579142Y-71007342D01*
X95626761Y-70912104D01*
X95626761Y-70816866D01*
X95579142Y-70721628D01*
X95531523Y-70674009D01*
X95436285Y-70626390D01*
X95245809Y-70578771D01*
X95150571Y-70531152D01*
X95102952Y-70483533D01*
X95055333Y-70388295D01*
X95055333Y-70293057D01*
X95102952Y-70197819D01*
X95150571Y-70150200D01*
X95245809Y-70102580D01*
X95483904Y-70102580D01*
X95626761Y-70150200D01*
X93624400Y-72528180D02*
X93624400Y-72766276D01*
X93386304Y-72671038D02*
X93624400Y-72766276D01*
X93862495Y-72671038D01*
X93481542Y-72956752D02*
X93624400Y-72766276D01*
X93767257Y-72956752D01*
X91574380Y-84712104D02*
X91574380Y-84140676D01*
X92574380Y-84426390D02*
X91574380Y-84426390D01*
X91907714Y-83378771D02*
X92574380Y-83378771D01*
X91526761Y-83616866D02*
X92241047Y-83854961D01*
X92241047Y-83235914D01*
X92864857Y-81702580D02*
X92864857Y-80702580D01*
X93436285Y-81702580D01*
X93436285Y-80702580D01*
X93912476Y-81702580D02*
X93912476Y-80702580D01*
X94245809Y-81416866D01*
X94579142Y-80702580D01*
X94579142Y-81702580D01*
X95245809Y-80702580D02*
X95436285Y-80702580D01*
X95531523Y-80750200D01*
X95626761Y-80845438D01*
X95674380Y-81035914D01*
X95674380Y-81369247D01*
X95626761Y-81559723D01*
X95531523Y-81654961D01*
X95436285Y-81702580D01*
X95245809Y-81702580D01*
X95150571Y-81654961D01*
X95055333Y-81559723D01*
X95007714Y-81369247D01*
X95007714Y-81035914D01*
X95055333Y-80845438D01*
X95150571Y-80750200D01*
X95245809Y-80702580D01*
X96055333Y-81654961D02*
X96198190Y-81702580D01*
X96436285Y-81702580D01*
X96531523Y-81654961D01*
X96579142Y-81607342D01*
X96626761Y-81512104D01*
X96626761Y-81416866D01*
X96579142Y-81321628D01*
X96531523Y-81274009D01*
X96436285Y-81226390D01*
X96245809Y-81178771D01*
X96150571Y-81131152D01*
X96102952Y-81083533D01*
X96055333Y-80988295D01*
X96055333Y-80893057D01*
X96102952Y-80797819D01*
X96150571Y-80750200D01*
X96245809Y-80702580D01*
X96483904Y-80702580D01*
X96626761Y-80750200D01*
X94772000Y-83402580D02*
X94772000Y-83640676D01*
X94533904Y-83545438D02*
X94772000Y-83640676D01*
X95010095Y-83545438D01*
X94629142Y-83831152D02*
X94772000Y-83640676D01*
X94914857Y-83831152D01*
X89610095Y-85952580D02*
X90181523Y-85952580D01*
X89895809Y-86952580D02*
X89895809Y-85952580D01*
X90419619Y-85952580D02*
X91038666Y-85952580D01*
X90705333Y-86333533D01*
X90848190Y-86333533D01*
X90943428Y-86381152D01*
X90991047Y-86428771D01*
X91038666Y-86524009D01*
X91038666Y-86762104D01*
X90991047Y-86857342D01*
X90943428Y-86904961D01*
X90848190Y-86952580D01*
X90562476Y-86952580D01*
X90467238Y-86904961D01*
X90419619Y-86857342D01*
X88424380Y-90507342D02*
X87424380Y-90507342D01*
X88424380Y-89935914D01*
X87424380Y-89935914D01*
X88424380Y-89459723D02*
X87424380Y-89459723D01*
X88138666Y-89126390D01*
X87424380Y-88793057D01*
X88424380Y-88793057D01*
X87424380Y-88126390D02*
X87424380Y-87935914D01*
X87472000Y-87840676D01*
X87567238Y-87745438D01*
X87757714Y-87697819D01*
X88091047Y-87697819D01*
X88281523Y-87745438D01*
X88376761Y-87840676D01*
X88424380Y-87935914D01*
X88424380Y-88126390D01*
X88376761Y-88221628D01*
X88281523Y-88316866D01*
X88091047Y-88364485D01*
X87757714Y-88364485D01*
X87567238Y-88316866D01*
X87472000Y-88221628D01*
X87424380Y-88126390D01*
X88376761Y-87316866D02*
X88424380Y-87174009D01*
X88424380Y-86935914D01*
X88376761Y-86840676D01*
X88329142Y-86793057D01*
X88233904Y-86745438D01*
X88138666Y-86745438D01*
X88043428Y-86793057D01*
X87995809Y-86840676D01*
X87948190Y-86935914D01*
X87900571Y-87126390D01*
X87852952Y-87221628D01*
X87805333Y-87269247D01*
X87710095Y-87316866D01*
X87614857Y-87316866D01*
X87519619Y-87269247D01*
X87472000Y-87221628D01*
X87424380Y-87126390D01*
X87424380Y-86888295D01*
X87472000Y-86745438D01*
X90054180Y-89509600D02*
X90292276Y-89509600D01*
X90197038Y-89747695D02*
X90292276Y-89509600D01*
X90197038Y-89271504D01*
X90482752Y-89652457D02*
X90292276Y-89509600D01*
X90482752Y-89366742D01*
X78310095Y-85802580D02*
X78881523Y-85802580D01*
X78595809Y-86802580D02*
X78595809Y-85802580D01*
X79167238Y-85897819D02*
X79214857Y-85850200D01*
X79310095Y-85802580D01*
X79548190Y-85802580D01*
X79643428Y-85850200D01*
X79691047Y-85897819D01*
X79738666Y-85993057D01*
X79738666Y-86088295D01*
X79691047Y-86231152D01*
X79119619Y-86802580D01*
X79738666Y-86802580D01*
X77124380Y-90507342D02*
X76124380Y-90507342D01*
X77124380Y-89935914D01*
X76124380Y-89935914D01*
X77124380Y-89459723D02*
X76124380Y-89459723D01*
X76838666Y-89126390D01*
X76124380Y-88793057D01*
X77124380Y-88793057D01*
X76124380Y-88126390D02*
X76124380Y-87935914D01*
X76172000Y-87840676D01*
X76267238Y-87745438D01*
X76457714Y-87697819D01*
X76791047Y-87697819D01*
X76981523Y-87745438D01*
X77076761Y-87840676D01*
X77124380Y-87935914D01*
X77124380Y-88126390D01*
X77076761Y-88221628D01*
X76981523Y-88316866D01*
X76791047Y-88364485D01*
X76457714Y-88364485D01*
X76267238Y-88316866D01*
X76172000Y-88221628D01*
X76124380Y-88126390D01*
X77076761Y-87316866D02*
X77124380Y-87174009D01*
X77124380Y-86935914D01*
X77076761Y-86840676D01*
X77029142Y-86793057D01*
X76933904Y-86745438D01*
X76838666Y-86745438D01*
X76743428Y-86793057D01*
X76695809Y-86840676D01*
X76648190Y-86935914D01*
X76600571Y-87126390D01*
X76552952Y-87221628D01*
X76505333Y-87269247D01*
X76410095Y-87316866D01*
X76314857Y-87316866D01*
X76219619Y-87269247D01*
X76172000Y-87221628D01*
X76124380Y-87126390D01*
X76124380Y-86888295D01*
X76172000Y-86745438D01*
X78954380Y-89484200D02*
X79192476Y-89484200D01*
X79097238Y-89722295D02*
X79192476Y-89484200D01*
X79097238Y-89246104D01*
X79382952Y-89627057D02*
X79192476Y-89484200D01*
X79382952Y-89341342D01*
X63024380Y-89862104D02*
X63024380Y-89290676D01*
X64024380Y-89576390D02*
X63024380Y-89576390D01*
X64024380Y-88433533D02*
X64024380Y-89004961D01*
X64024380Y-88719247D02*
X63024380Y-88719247D01*
X63167238Y-88814485D01*
X63262476Y-88909723D01*
X63310095Y-89004961D01*
X65424380Y-91057342D02*
X64424380Y-91057342D01*
X65424380Y-90485914D01*
X64424380Y-90485914D01*
X65424380Y-90009723D02*
X64424380Y-90009723D01*
X65138666Y-89676390D01*
X64424380Y-89343057D01*
X65424380Y-89343057D01*
X64424380Y-88676390D02*
X64424380Y-88485914D01*
X64472000Y-88390676D01*
X64567238Y-88295438D01*
X64757714Y-88247819D01*
X65091047Y-88247819D01*
X65281523Y-88295438D01*
X65376761Y-88390676D01*
X65424380Y-88485914D01*
X65424380Y-88676390D01*
X65376761Y-88771628D01*
X65281523Y-88866866D01*
X65091047Y-88914485D01*
X64757714Y-88914485D01*
X64567238Y-88866866D01*
X64472000Y-88771628D01*
X64424380Y-88676390D01*
X65376761Y-87866866D02*
X65424380Y-87724009D01*
X65424380Y-87485914D01*
X65376761Y-87390676D01*
X65329142Y-87343057D01*
X65233904Y-87295438D01*
X65138666Y-87295438D01*
X65043428Y-87343057D01*
X64995809Y-87390676D01*
X64948190Y-87485914D01*
X64900571Y-87676390D01*
X64852952Y-87771628D01*
X64805333Y-87819247D01*
X64710095Y-87866866D01*
X64614857Y-87866866D01*
X64519619Y-87819247D01*
X64472000Y-87771628D01*
X64424380Y-87676390D01*
X64424380Y-87438295D01*
X64472000Y-87295438D01*
X67778380Y-89535000D02*
X68016476Y-89535000D01*
X67921238Y-89773095D02*
X68016476Y-89535000D01*
X67921238Y-89296904D01*
X68206952Y-89677857D02*
X68016476Y-89535000D01*
X68206952Y-89392142D01*
X57657714Y-63752580D02*
X57657714Y-62752580D01*
X57895809Y-62752580D01*
X58038666Y-62800200D01*
X58133904Y-62895438D01*
X58181523Y-62990676D01*
X58229142Y-63181152D01*
X58229142Y-63324009D01*
X58181523Y-63514485D01*
X58133904Y-63609723D01*
X58038666Y-63704961D01*
X57895809Y-63752580D01*
X57657714Y-63752580D01*
X58991047Y-63228771D02*
X58657714Y-63228771D01*
X58657714Y-63752580D02*
X58657714Y-62752580D01*
X59133904Y-62752580D01*
X59514857Y-62752580D02*
X59514857Y-63562104D01*
X59562476Y-63657342D01*
X59610095Y-63704961D01*
X59705333Y-63752580D01*
X59895809Y-63752580D01*
X59991047Y-63704961D01*
X60038666Y-63657342D01*
X60086285Y-63562104D01*
X60086285Y-62752580D01*
X83676761Y-60752580D02*
X83105333Y-60752580D01*
X83391047Y-60752580D02*
X83391047Y-59752580D01*
X83295809Y-59895438D01*
X83200571Y-59990676D01*
X83105333Y-60038295D01*
X84295809Y-59752580D02*
X84391047Y-59752580D01*
X84486285Y-59800200D01*
X84533904Y-59847819D01*
X84581523Y-59943057D01*
X84629142Y-60133533D01*
X84629142Y-60371628D01*
X84581523Y-60562104D01*
X84533904Y-60657342D01*
X84486285Y-60704961D01*
X84391047Y-60752580D01*
X84295809Y-60752580D01*
X84200571Y-60704961D01*
X84152952Y-60657342D01*
X84105333Y-60562104D01*
X84057714Y-60371628D01*
X84057714Y-60133533D01*
X84105333Y-59943057D01*
X84152952Y-59847819D01*
X84200571Y-59800200D01*
X84295809Y-59752580D01*
X85057714Y-60752580D02*
X85057714Y-59752580D01*
X85152952Y-60371628D02*
X85438666Y-60752580D01*
X85438666Y-60085914D02*
X85057714Y-60466866D01*
X64576761Y-75002580D02*
X64005333Y-75002580D01*
X64291047Y-75002580D02*
X64291047Y-74002580D01*
X64195809Y-74145438D01*
X64100571Y-74240676D01*
X64005333Y-74288295D01*
X65195809Y-74002580D02*
X65291047Y-74002580D01*
X65386285Y-74050200D01*
X65433904Y-74097819D01*
X65481523Y-74193057D01*
X65529142Y-74383533D01*
X65529142Y-74621628D01*
X65481523Y-74812104D01*
X65433904Y-74907342D01*
X65386285Y-74954961D01*
X65291047Y-75002580D01*
X65195809Y-75002580D01*
X65100571Y-74954961D01*
X65052952Y-74907342D01*
X65005333Y-74812104D01*
X64957714Y-74621628D01*
X64957714Y-74383533D01*
X65005333Y-74193057D01*
X65052952Y-74097819D01*
X65100571Y-74050200D01*
X65195809Y-74002580D01*
X65957714Y-75002580D02*
X65957714Y-74002580D01*
X66052952Y-74621628D02*
X66338666Y-75002580D01*
X66338666Y-74335914D02*
X65957714Y-74716866D01*
X57850571Y-86197819D02*
X57898190Y-86150200D01*
X57993428Y-86102580D01*
X58231523Y-86102580D01*
X58326761Y-86150200D01*
X58374380Y-86197819D01*
X58422000Y-86293057D01*
X58422000Y-86388295D01*
X58374380Y-86531152D01*
X57802952Y-87102580D01*
X58422000Y-87102580D01*
X58802952Y-86197819D02*
X58850571Y-86150200D01*
X58945809Y-86102580D01*
X59183904Y-86102580D01*
X59279142Y-86150200D01*
X59326761Y-86197819D01*
X59374380Y-86293057D01*
X59374380Y-86388295D01*
X59326761Y-86531152D01*
X58755333Y-87102580D01*
X59374380Y-87102580D01*
X59802952Y-87102580D02*
X59802952Y-86435914D01*
X59802952Y-86626390D02*
X59850571Y-86531152D01*
X59898190Y-86483533D01*
X59993428Y-86435914D01*
X60088666Y-86435914D01*
X61350571Y-86247819D02*
X61398190Y-86200200D01*
X61493428Y-86152580D01*
X61731523Y-86152580D01*
X61826761Y-86200200D01*
X61874380Y-86247819D01*
X61922000Y-86343057D01*
X61922000Y-86438295D01*
X61874380Y-86581152D01*
X61302952Y-87152580D01*
X61922000Y-87152580D01*
X62302952Y-86247819D02*
X62350571Y-86200200D01*
X62445809Y-86152580D01*
X62683904Y-86152580D01*
X62779142Y-86200200D01*
X62826761Y-86247819D01*
X62874380Y-86343057D01*
X62874380Y-86438295D01*
X62826761Y-86581152D01*
X62255333Y-87152580D01*
X62874380Y-87152580D01*
X63302952Y-87152580D02*
X63302952Y-86485914D01*
X63302952Y-86676390D02*
X63350571Y-86581152D01*
X63398190Y-86533533D01*
X63493428Y-86485914D01*
X63588666Y-86485914D01*
X97400571Y-66983533D02*
X97400571Y-67316866D01*
X97924380Y-67316866D02*
X96924380Y-67316866D01*
X96924380Y-66840676D01*
X96924380Y-66031152D02*
X96924380Y-66221628D01*
X96972000Y-66316866D01*
X97019619Y-66364485D01*
X97162476Y-66459723D01*
X97352952Y-66507342D01*
X97733904Y-66507342D01*
X97829142Y-66459723D01*
X97876761Y-66412104D01*
X97924380Y-66316866D01*
X97924380Y-66126390D01*
X97876761Y-66031152D01*
X97829142Y-65983533D01*
X97733904Y-65935914D01*
X97495809Y-65935914D01*
X97400571Y-65983533D01*
X97352952Y-66031152D01*
X97305333Y-66126390D01*
X97305333Y-66316866D01*
X97352952Y-66412104D01*
X97400571Y-66459723D01*
X97495809Y-66507342D01*
X97200571Y-78083533D02*
X97200571Y-78416866D01*
X97724380Y-78416866D02*
X96724380Y-78416866D01*
X96724380Y-77940676D01*
X96724380Y-77083533D02*
X96724380Y-77559723D01*
X97200571Y-77607342D01*
X97152952Y-77559723D01*
X97105333Y-77464485D01*
X97105333Y-77226390D01*
X97152952Y-77131152D01*
X97200571Y-77083533D01*
X97295809Y-77035914D01*
X97533904Y-77035914D01*
X97629142Y-77083533D01*
X97676761Y-77131152D01*
X97724380Y-77226390D01*
X97724380Y-77464485D01*
X97676761Y-77559723D01*
X97629142Y-77607342D01*
X99700571Y-92283533D02*
X99700571Y-92616866D01*
X100224380Y-92616866D02*
X99224380Y-92616866D01*
X99224380Y-92140676D01*
X99557714Y-91331152D02*
X100224380Y-91331152D01*
X99176761Y-91569247D02*
X99891047Y-91807342D01*
X99891047Y-91188295D01*
X86588666Y-91528771D02*
X86255333Y-91528771D01*
X86255333Y-92052580D02*
X86255333Y-91052580D01*
X86731523Y-91052580D01*
X87017238Y-91052580D02*
X87636285Y-91052580D01*
X87302952Y-91433533D01*
X87445809Y-91433533D01*
X87541047Y-91481152D01*
X87588666Y-91528771D01*
X87636285Y-91624009D01*
X87636285Y-91862104D01*
X87588666Y-91957342D01*
X87541047Y-92004961D01*
X87445809Y-92052580D01*
X87160095Y-92052580D01*
X87064857Y-92004961D01*
X87017238Y-91957342D01*
X75438666Y-91478771D02*
X75105333Y-91478771D01*
X75105333Y-92002580D02*
X75105333Y-91002580D01*
X75581523Y-91002580D01*
X75914857Y-91097819D02*
X75962476Y-91050200D01*
X76057714Y-91002580D01*
X76295809Y-91002580D01*
X76391047Y-91050200D01*
X76438666Y-91097819D01*
X76486285Y-91193057D01*
X76486285Y-91288295D01*
X76438666Y-91431152D01*
X75867238Y-92002580D01*
X76486285Y-92002580D01*
X61288666Y-94128771D02*
X60955333Y-94128771D01*
X60955333Y-94652580D02*
X60955333Y-93652580D01*
X61431523Y-93652580D01*
X62336285Y-94652580D02*
X61764857Y-94652580D01*
X62050571Y-94652580D02*
X62050571Y-93652580D01*
X61955333Y-93795438D01*
X61860095Y-93890676D01*
X61764857Y-93938295D01*
X53460095Y-90802580D02*
X53460095Y-91612104D01*
X53507714Y-91707342D01*
X53555333Y-91754961D01*
X53650571Y-91802580D01*
X53841047Y-91802580D01*
X53936285Y-91754961D01*
X53983904Y-91707342D01*
X54031523Y-91612104D01*
X54031523Y-90802580D01*
X54460095Y-91754961D02*
X54602952Y-91802580D01*
X54841047Y-91802580D01*
X54936285Y-91754961D01*
X54983904Y-91707342D01*
X55031523Y-91612104D01*
X55031523Y-91516866D01*
X54983904Y-91421628D01*
X54936285Y-91374009D01*
X54841047Y-91326390D01*
X54650571Y-91278771D01*
X54555333Y-91231152D01*
X54507714Y-91183533D01*
X54460095Y-91088295D01*
X54460095Y-90993057D01*
X54507714Y-90897819D01*
X54555333Y-90850200D01*
X54650571Y-90802580D01*
X54888666Y-90802580D01*
X55031523Y-90850200D01*
X55793428Y-91278771D02*
X55936285Y-91326390D01*
X55983904Y-91374009D01*
X56031523Y-91469247D01*
X56031523Y-91612104D01*
X55983904Y-91707342D01*
X55936285Y-91754961D01*
X55841047Y-91802580D01*
X55460095Y-91802580D01*
X55460095Y-90802580D01*
X55793428Y-90802580D01*
X55888666Y-90850200D01*
X55936285Y-90897819D01*
X55983904Y-90993057D01*
X55983904Y-91088295D01*
X55936285Y-91183533D01*
X55888666Y-91231152D01*
X55793428Y-91278771D01*
X55460095Y-91278771D01*
X76266666Y-53905679D02*
X76266666Y-54619965D01*
X76219047Y-54762822D01*
X76123809Y-54858060D01*
X75980952Y-54905679D01*
X75885714Y-54905679D01*
X77266666Y-54905679D02*
X76695238Y-54905679D01*
X76980952Y-54905679D02*
X76980952Y-53905679D01*
X76885714Y-54048537D01*
X76790476Y-54143775D01*
X76695238Y-54191394D01*
X71529142Y-51204961D02*
X71672000Y-51252580D01*
X71910095Y-51252580D01*
X72005333Y-51204961D01*
X72052952Y-51157342D01*
X72100571Y-51062104D01*
X72100571Y-50966866D01*
X72052952Y-50871628D01*
X72005333Y-50824009D01*
X71910095Y-50776390D01*
X71719619Y-50728771D01*
X71624380Y-50681152D01*
X71576761Y-50633533D01*
X71529142Y-50538295D01*
X71529142Y-50443057D01*
X71576761Y-50347819D01*
X71624380Y-50300200D01*
X71719619Y-50252580D01*
X71957714Y-50252580D01*
X72100571Y-50300200D01*
X72481523Y-50966866D02*
X72957714Y-50966866D01*
X72386285Y-51252580D02*
X72719619Y-50252580D01*
X73052952Y-51252580D01*
X73243428Y-50252580D02*
X73814857Y-50252580D01*
X73529142Y-51252580D02*
X73529142Y-50252580D01*
X74100571Y-50966866D02*
X74576761Y-50966866D01*
X74005333Y-51252580D02*
X74338666Y-50252580D01*
X74672000Y-51252580D01*
X76338666Y-51252580D02*
X76005333Y-50776390D01*
X75767238Y-51252580D02*
X75767238Y-50252580D01*
X76148190Y-50252580D01*
X76243428Y-50300200D01*
X76291047Y-50347819D01*
X76338666Y-50443057D01*
X76338666Y-50585914D01*
X76291047Y-50681152D01*
X76243428Y-50728771D01*
X76148190Y-50776390D01*
X75767238Y-50776390D01*
X77338666Y-51157342D02*
X77291047Y-51204961D01*
X77148190Y-51252580D01*
X77052952Y-51252580D01*
X76910095Y-51204961D01*
X76814857Y-51109723D01*
X76767238Y-51014485D01*
X76719619Y-50824009D01*
X76719619Y-50681152D01*
X76767238Y-50490676D01*
X76814857Y-50395438D01*
X76910095Y-50300200D01*
X77052952Y-50252580D01*
X77148190Y-50252580D01*
X77291047Y-50300200D01*
X77338666Y-50347819D01*
X77767238Y-51252580D02*
X77767238Y-50252580D01*
X78148190Y-50252580D01*
X78243428Y-50300200D01*
X78291047Y-50347819D01*
X78338666Y-50443057D01*
X78338666Y-50585914D01*
X78291047Y-50681152D01*
X78243428Y-50728771D01*
X78148190Y-50776390D01*
X77767238Y-50776390D01*
X78624380Y-50252580D02*
X79195809Y-50252580D01*
X78910095Y-51252580D02*
X78910095Y-50252580D01*
X80100571Y-51157342D02*
X80052952Y-51204961D01*
X79910095Y-51252580D01*
X79814857Y-51252580D01*
X79672000Y-51204961D01*
X79576761Y-51109723D01*
X79529142Y-51014485D01*
X79481523Y-50824009D01*
X79481523Y-50681152D01*
X79529142Y-50490676D01*
X79576761Y-50395438D01*
X79672000Y-50300200D01*
X79814857Y-50252580D01*
X79910095Y-50252580D01*
X80052952Y-50300200D01*
X80100571Y-50347819D01*
X81005333Y-51252580D02*
X80529142Y-51252580D01*
X80529142Y-50252580D01*
X81338666Y-50728771D02*
X81672000Y-50728771D01*
X81814857Y-51252580D02*
X81338666Y-51252580D01*
X81338666Y-50252580D01*
X81814857Y-50252580D01*
X76600000Y-48752380D02*
X76600000Y-48990476D01*
X76361904Y-48895238D02*
X76600000Y-48990476D01*
X76838095Y-48895238D01*
X76457142Y-49180952D02*
X76600000Y-48990476D01*
X76742857Y-49180952D01*
X85329142Y-74452580D02*
X84757714Y-74452580D01*
X85043428Y-74452580D02*
X85043428Y-73452580D01*
X84948190Y-73595438D01*
X84852952Y-73690676D01*
X84757714Y-73738295D01*
X85948190Y-73452580D02*
X86043428Y-73452580D01*
X86138666Y-73500200D01*
X86186285Y-73547819D01*
X86233904Y-73643057D01*
X86281523Y-73833533D01*
X86281523Y-74071628D01*
X86233904Y-74262104D01*
X86186285Y-74357342D01*
X86138666Y-74404961D01*
X86043428Y-74452580D01*
X85948190Y-74452580D01*
X85852952Y-74404961D01*
X85805333Y-74357342D01*
X85757714Y-74262104D01*
X85710095Y-74071628D01*
X85710095Y-73833533D01*
X85757714Y-73643057D01*
X85805333Y-73547819D01*
X85852952Y-73500200D01*
X85948190Y-73452580D01*
X87138666Y-73785914D02*
X87138666Y-74452580D01*
X86710095Y-73785914D02*
X86710095Y-74309723D01*
X86757714Y-74404961D01*
X86852952Y-74452580D01*
X86995809Y-74452580D01*
X87091047Y-74404961D01*
X87138666Y-74357342D01*
X80657714Y-58102580D02*
X80752952Y-58102580D01*
X80848190Y-58150200D01*
X80895809Y-58197819D01*
X80943428Y-58293057D01*
X80991047Y-58483533D01*
X80991047Y-58721628D01*
X80943428Y-58912104D01*
X80895809Y-59007342D01*
X80848190Y-59054961D01*
X80752952Y-59102580D01*
X80657714Y-59102580D01*
X80562476Y-59054961D01*
X80514857Y-59007342D01*
X80467238Y-58912104D01*
X80419619Y-58721628D01*
X80419619Y-58483533D01*
X80467238Y-58293057D01*
X80514857Y-58197819D01*
X80562476Y-58150200D01*
X80657714Y-58102580D01*
X81419619Y-59007342D02*
X81467238Y-59054961D01*
X81419619Y-59102580D01*
X81372000Y-59054961D01*
X81419619Y-59007342D01*
X81419619Y-59102580D01*
X82419619Y-59102580D02*
X81848190Y-59102580D01*
X82133904Y-59102580D02*
X82133904Y-58102580D01*
X82038666Y-58245438D01*
X81943428Y-58340676D01*
X81848190Y-58388295D01*
X83276761Y-58435914D02*
X83276761Y-59102580D01*
X82848190Y-58435914D02*
X82848190Y-58959723D01*
X82895809Y-59054961D01*
X82991047Y-59102580D01*
X83133904Y-59102580D01*
X83229142Y-59054961D01*
X83276761Y-59007342D01*
X66257714Y-57952580D02*
X66352952Y-57952580D01*
X66448190Y-58000200D01*
X66495809Y-58047819D01*
X66543428Y-58143057D01*
X66591047Y-58333533D01*
X66591047Y-58571628D01*
X66543428Y-58762104D01*
X66495809Y-58857342D01*
X66448190Y-58904961D01*
X66352952Y-58952580D01*
X66257714Y-58952580D01*
X66162476Y-58904961D01*
X66114857Y-58857342D01*
X66067238Y-58762104D01*
X66019619Y-58571628D01*
X66019619Y-58333533D01*
X66067238Y-58143057D01*
X66114857Y-58047819D01*
X66162476Y-58000200D01*
X66257714Y-57952580D01*
X67019619Y-58857342D02*
X67067238Y-58904961D01*
X67019619Y-58952580D01*
X66972000Y-58904961D01*
X67019619Y-58857342D01*
X67019619Y-58952580D01*
X68019619Y-58952580D02*
X67448190Y-58952580D01*
X67733904Y-58952580D02*
X67733904Y-57952580D01*
X67638666Y-58095438D01*
X67543428Y-58190676D01*
X67448190Y-58238295D01*
X68876761Y-58285914D02*
X68876761Y-58952580D01*
X68448190Y-58285914D02*
X68448190Y-58809723D01*
X68495809Y-58904961D01*
X68591047Y-58952580D01*
X68733904Y-58952580D01*
X68829142Y-58904961D01*
X68876761Y-58857342D01*
X67457714Y-76752580D02*
X67552952Y-76752580D01*
X67648190Y-76800200D01*
X67695809Y-76847819D01*
X67743428Y-76943057D01*
X67791047Y-77133533D01*
X67791047Y-77371628D01*
X67743428Y-77562104D01*
X67695809Y-77657342D01*
X67648190Y-77704961D01*
X67552952Y-77752580D01*
X67457714Y-77752580D01*
X67362476Y-77704961D01*
X67314857Y-77657342D01*
X67267238Y-77562104D01*
X67219619Y-77371628D01*
X67219619Y-77133533D01*
X67267238Y-76943057D01*
X67314857Y-76847819D01*
X67362476Y-76800200D01*
X67457714Y-76752580D01*
X68219619Y-77657342D02*
X68267238Y-77704961D01*
X68219619Y-77752580D01*
X68172000Y-77704961D01*
X68219619Y-77657342D01*
X68219619Y-77752580D01*
X69219619Y-77752580D02*
X68648190Y-77752580D01*
X68933904Y-77752580D02*
X68933904Y-76752580D01*
X68838666Y-76895438D01*
X68743428Y-76990676D01*
X68648190Y-77038295D01*
X70076761Y-77085914D02*
X70076761Y-77752580D01*
X69648190Y-77085914D02*
X69648190Y-77609723D01*
X69695809Y-77704961D01*
X69791047Y-77752580D01*
X69933904Y-77752580D01*
X70029142Y-77704961D01*
X70076761Y-77657342D01*
X62724380Y-70964485D02*
X62724380Y-70869247D01*
X62772000Y-70774009D01*
X62819619Y-70726390D01*
X62914857Y-70678771D01*
X63105333Y-70631152D01*
X63343428Y-70631152D01*
X63533904Y-70678771D01*
X63629142Y-70726390D01*
X63676761Y-70774009D01*
X63724380Y-70869247D01*
X63724380Y-70964485D01*
X63676761Y-71059723D01*
X63629142Y-71107342D01*
X63533904Y-71154961D01*
X63343428Y-71202580D01*
X63105333Y-71202580D01*
X62914857Y-71154961D01*
X62819619Y-71107342D01*
X62772000Y-71059723D01*
X62724380Y-70964485D01*
X63629142Y-70202580D02*
X63676761Y-70154961D01*
X63724380Y-70202580D01*
X63676761Y-70250200D01*
X63629142Y-70202580D01*
X63724380Y-70202580D01*
X63724380Y-69202580D02*
X63724380Y-69774009D01*
X63724380Y-69488295D02*
X62724380Y-69488295D01*
X62867238Y-69583533D01*
X62962476Y-69678771D01*
X63010095Y-69774009D01*
X63057714Y-68345438D02*
X63724380Y-68345438D01*
X63057714Y-68774009D02*
X63581523Y-68774009D01*
X63676761Y-68726390D01*
X63724380Y-68631152D01*
X63724380Y-68488295D01*
X63676761Y-68393057D01*
X63629142Y-68345438D01*
X81557714Y-73452580D02*
X81652952Y-73452580D01*
X81748190Y-73500200D01*
X81795809Y-73547819D01*
X81843428Y-73643057D01*
X81891047Y-73833533D01*
X81891047Y-74071628D01*
X81843428Y-74262104D01*
X81795809Y-74357342D01*
X81748190Y-74404961D01*
X81652952Y-74452580D01*
X81557714Y-74452580D01*
X81462476Y-74404961D01*
X81414857Y-74357342D01*
X81367238Y-74262104D01*
X81319619Y-74071628D01*
X81319619Y-73833533D01*
X81367238Y-73643057D01*
X81414857Y-73547819D01*
X81462476Y-73500200D01*
X81557714Y-73452580D01*
X82319619Y-74357342D02*
X82367238Y-74404961D01*
X82319619Y-74452580D01*
X82272000Y-74404961D01*
X82319619Y-74357342D01*
X82319619Y-74452580D01*
X83319619Y-74452580D02*
X82748190Y-74452580D01*
X83033904Y-74452580D02*
X83033904Y-73452580D01*
X82938666Y-73595438D01*
X82843428Y-73690676D01*
X82748190Y-73738295D01*
X84176761Y-73785914D02*
X84176761Y-74452580D01*
X83748190Y-73785914D02*
X83748190Y-74309723D01*
X83795809Y-74404961D01*
X83891047Y-74452580D01*
X84033904Y-74452580D01*
X84129142Y-74404961D01*
X84176761Y-74357342D01*
X63324380Y-65066866D02*
X63324380Y-65638295D01*
X63324380Y-65352580D02*
X62324380Y-65352580D01*
X62467238Y-65447819D01*
X62562476Y-65543057D01*
X62610095Y-65638295D01*
X62657714Y-64209723D02*
X63324380Y-64209723D01*
X62657714Y-64638295D02*
X63181523Y-64638295D01*
X63276761Y-64590676D01*
X63324380Y-64495438D01*
X63324380Y-64352580D01*
X63276761Y-64257342D01*
X63229142Y-64209723D01*
X70594525Y-78188214D02*
X70661869Y-78188214D01*
X70762884Y-78221886D01*
X70931243Y-78390245D01*
X70964915Y-78491260D01*
X70964915Y-78558603D01*
X70931243Y-78659619D01*
X70863899Y-78726962D01*
X70729212Y-78794306D01*
X69921090Y-78794306D01*
X70358823Y-79232038D01*
X71267961Y-78861649D02*
X71335304Y-78861649D01*
X71436319Y-78895321D01*
X71604678Y-79063680D01*
X71638350Y-79164695D01*
X71638350Y-79232038D01*
X71604678Y-79333054D01*
X71537335Y-79400397D01*
X71402648Y-79467741D01*
X70594525Y-79467741D01*
X71032258Y-79905474D01*
X71806709Y-79737115D02*
X71099602Y-80444222D01*
X71773037Y-79770787D02*
X71874052Y-79804458D01*
X72008739Y-79939145D01*
X72042411Y-80040161D01*
X72042411Y-80107504D01*
X72008739Y-80208519D01*
X71806709Y-80410550D01*
X71705693Y-80444222D01*
X71638350Y-80444222D01*
X71537335Y-80410550D01*
X71402648Y-80275863D01*
X71368976Y-80174848D01*
X76688214Y-80005474D02*
X76688214Y-79938130D01*
X76721886Y-79837115D01*
X76890245Y-79668756D01*
X76991260Y-79635084D01*
X77058603Y-79635084D01*
X77159619Y-79668756D01*
X77226962Y-79736100D01*
X77294306Y-79870787D01*
X77294306Y-80678909D01*
X77732038Y-80241176D01*
X77361649Y-79332038D02*
X77361649Y-79264695D01*
X77395321Y-79163680D01*
X77563680Y-78995321D01*
X77664695Y-78961649D01*
X77732038Y-78961649D01*
X77833054Y-78995321D01*
X77900397Y-79062664D01*
X77967741Y-79197351D01*
X77967741Y-80005474D01*
X78405474Y-79567741D01*
X78237115Y-78793290D02*
X78944222Y-79500397D01*
X78270787Y-78826962D02*
X78304458Y-78725947D01*
X78439145Y-78591260D01*
X78540161Y-78557588D01*
X78607504Y-78557588D01*
X78708519Y-78591260D01*
X78910550Y-78793290D01*
X78944222Y-78894306D01*
X78944222Y-78961649D01*
X78910550Y-79062664D01*
X78775863Y-79197351D01*
X78674848Y-79231023D01*
M02*
